<svg width="286" height="358" viewBox="0 0 286 358" fill="none" xmlns="http://www.w3.org/2000/svg">
<path d="M179 193.917V29.8335L298.333 89.5002L179 149.167" stroke="#EE7200" stroke-opacity="0.3" stroke-width="19.1786" stroke-linecap="round" stroke-linejoin="round"/>
<path d="M306.697 162.016C314.635 186.482 315.377 212.713 308.837 237.588C302.296 262.463 288.747 284.936 269.801 302.333C250.856 319.729 227.312 331.317 201.97 335.718C176.629 340.119 150.556 337.148 126.855 327.157C103.153 317.167 82.8209 300.578 68.2761 279.364C53.7313 258.151 45.5866 233.205 44.8111 207.496C44.0355 181.787 50.6617 156.396 63.9013 134.344C77.1409 112.292 96.4366 94.5082 119.493 83.1072" stroke="#EE7200" stroke-opacity="0.3" stroke-width="19.1786" stroke-linecap="round" stroke-linejoin="round"/>
<path d="M119.333 149.167C111.859 159.117 106.992 170.779 105.178 183.09C103.364 195.402 104.659 207.972 108.945 219.655C113.232 231.338 120.374 241.763 129.72 249.979C139.067 258.196 150.32 263.943 162.456 266.698C174.592 269.452 187.225 269.126 199.202 265.749C211.18 262.373 222.122 256.052 231.032 247.365C239.943 238.677 246.537 227.898 250.215 216.009C253.894 204.12 254.539 191.5 252.092 179.299" stroke="#EE7200" stroke-opacity="0.3" stroke-width="19.1786" stroke-linecap="round" stroke-linejoin="round"/>
</svg>
