<svg width="85" height="85" viewBox="0 0 85 85" fill="none" xmlns="http://www.w3.org/2000/svg">
<g id="Top Icon">
<g id="Group">
<g id="Vector">
<path d="M26.75 24.4988H37.25H26.75ZM26.75 42.8738H58.25H26.75ZM26.75 53.3738H58.25H26.75ZM26.75 63.8738H37.25H26.75ZM21.5 76.9988H63.5C64.8924 76.9988 66.2277 76.4457 67.2123 75.4611C68.1969 74.4765 68.75 73.1412 68.75 71.7488V13.9988C68.75 12.6064 68.1969 11.271 67.2123 10.2865C66.2277 9.3019 64.8924 8.74878 63.5 8.74878H21.5C20.1076 8.74878 18.7723 9.3019 17.7877 10.2865C16.8031 11.271 16.25 12.6064 16.25 13.9988V71.7488C16.25 73.1412 16.8031 74.4765 17.7877 75.4611C18.7723 76.4457 20.1076 76.9988 21.5 76.9988Z" fill="#FF7A00"/>
<path d="M26.75 24.4988H37.25M26.75 42.8738H58.25M26.75 53.3738H58.25M26.75 63.8738H37.25M21.5 76.9988H63.5C64.8924 76.9988 66.2277 76.4457 67.2123 75.4611C68.1969 74.4765 68.75 73.1412 68.75 71.7488V13.9988C68.75 12.6064 68.1969 11.271 67.2123 10.2865C66.2277 9.3019 64.8924 8.74878 63.5 8.74878H21.5C20.1076 8.74878 18.7723 9.3019 17.7877 10.2865C16.8031 11.271 16.25 12.6064 16.25 13.9988V71.7488C16.25 73.1412 16.8031 74.4765 17.7877 75.4611C18.7723 76.4457 20.1076 76.9988 21.5 76.9988Z" stroke="white" stroke-width="3" stroke-linecap="round" stroke-linejoin="round"/>
</g>
<path id="Vector_2" d="M58.25 25.8113C58.9749 25.8113 59.5625 25.2237 59.5625 24.4988C59.5625 23.7739 58.9749 23.1863 58.25 23.1863C57.5251 23.1863 56.9375 23.7739 56.9375 24.4988C56.9375 25.2237 57.5251 25.8113 58.25 25.8113Z" fill="#FF7A00" stroke="white" stroke-width="2.625"/>
</g>
</g>
</svg>
