<svg width="43" height="37" viewBox="0 0 43 37" fill="none" xmlns="http://www.w3.org/2000/svg">
<path id="Vector" d="M22.7761 35.8912L38.8123 19.7756C40.893 17.6617 42.0548 14.8179 42.0466 11.8585C42.0384 8.89906 40.861 6.06164 38.7687 3.95913C37.7422 2.91695 36.5179 2.08834 35.1668 1.5215C33.8157 0.954662 32.3648 0.660915 30.8986 0.657346C29.4324 0.653778 27.9801 0.94046 26.6262 1.50071C25.2724 2.06097 24.0439 2.88361 23.0124 3.92078L21.4817 5.4623L19.9279 3.90289C18.9029 2.86209 17.6802 2.03452 16.331 1.46832C14.9818 0.902119 13.5329 0.60858 12.0687 0.604774C10.6044 0.600968 9.15406 0.886971 7.80188 1.44615C6.44969 2.00533 5.22269 2.82653 4.19222 3.86199C-0.142991 8.22066 -0.122445 15.3045 4.23332 19.6836L20.3543 35.8912C21.022 36.5635 22.1084 36.5635 22.7761 35.8912Z" fill="#FF7A00"/>
</svg>
