<svg width="37" height="35" viewBox="0 0 37 35" fill="none" xmlns="http://www.w3.org/2000/svg">
<path id="Vector" d="M4.93405 14.7764V17.7551V30.8103C4.93405 31.4644 5.19391 32.0918 5.65647 32.5544C6.11903 33.0169 6.74639 33.2768 7.40054 33.2768H29.599C30.2531 33.2768 30.8805 33.0169 31.343 32.5544C31.8056 32.0918 32.0655 31.4644 32.0655 30.8103V17.7551V14.7775L29.9604 12.6733L29.599 12.312V11.801V3.67888H27.1325V6.86805V9.84537L25.0272 7.74009L19.3717 2.08456C19.1404 1.85336 18.8268 1.72348 18.4998 1.72348C18.1728 1.72348 17.8592 1.85333 17.6279 2.08449L4.93405 14.7764ZM4.93405 14.7764L17.6279 2.08456L4.93405 14.7764ZM3.8283 15.882L2.8281 16.8838L1.23542 18.4789L1.23491 18.4793L1.23432 18.4794C1.2339 18.4794 1.2335 18.4792 1.23321 18.4789L1.23288 18.4784L1.23276 18.4778L1.23288 18.4772L1.23315 18.4768L1.23321 18.4767L3.8283 15.882ZM34.1714 16.8838L33.5321 16.2435L35.7663 18.4767C35.7663 18.4767 35.7663 18.4768 35.7663 18.4768C35.7666 18.4771 35.7668 18.4774 35.7668 18.4778C35.7668 18.4782 35.7666 18.4786 35.7663 18.4789C35.766 18.4792 35.7656 18.4794 35.7652 18.4794C35.7648 18.4794 35.7644 18.4792 35.7641 18.479C35.7641 18.479 35.7641 18.4789 35.7641 18.4789L34.1714 16.8838Z" fill="#FF7A00" stroke="#FF7A00" stroke-width="2.46649"/>
</svg>
