<svg width="37" height="35" viewBox="0 0 37 35" fill="none" xmlns="http://www.w3.org/2000/svg">
<g id="Vector">
<mask id="path-1-inside-1_854_149" fill="white">
<path d="M20.2436 1.21239C19.781 0.749994 19.1538 0.490234 18.4998 0.490234C17.8457 0.490234 17.2185 0.749994 16.7559 1.21239L0.361177 17.6047C0.246515 17.7194 0.15556 17.8555 0.0935056 18.0053C0.0314509 18.1551 -0.000488281 18.3157 -0.000488281 18.4778C-0.000488281 18.64 0.0314509 18.8006 0.0935056 18.9504C0.15556 19.1002 0.246515 19.2363 0.361177 19.351C0.592748 19.5825 0.906825 19.7126 1.23432 19.7126C1.39647 19.7126 1.55704 19.6807 1.70685 19.6186C1.85667 19.5566 1.99279 19.4656 2.10745 19.351L3.70081 17.7551V30.8103C3.70081 31.7915 4.0906 32.7326 4.78444 33.4264C5.47827 34.1202 6.41931 34.51 7.40054 34.51H29.599C30.5802 34.51 31.5212 34.1202 32.2151 33.4264C32.9089 32.7326 33.2987 31.7915 33.2987 30.8103V17.7551L34.8921 19.351C35.1236 19.5825 35.4377 19.7126 35.7652 19.7126C36.0927 19.7126 36.4068 19.5825 36.6383 19.351C36.8699 19.1194 37 18.8053 37 18.4778C37 18.1503 36.8699 17.8363 36.6383 17.6047L30.8322 11.801V3.67888C30.8322 3.3518 30.7023 3.03812 30.471 2.80684C30.2397 2.57557 29.926 2.44564 29.599 2.44564H27.1325C26.8054 2.44564 26.4917 2.57557 26.2604 2.80684C26.0292 3.03812 25.8992 3.3518 25.8992 3.67888V6.86805L20.2436 1.21239ZM30.8322 15.2887V30.8103C30.8322 31.1374 30.7023 31.451 30.471 31.6823C30.2397 31.9136 29.926 32.0435 29.599 32.0435H7.40054C7.07347 32.0435 6.75979 31.9136 6.52851 31.6823C6.29723 31.451 6.1673 31.1374 6.1673 30.8103V15.2887L18.4998 2.9562L30.8322 15.2887Z"/>
</mask>
<path d="M20.2436 1.21239C19.781 0.749994 19.1538 0.490234 18.4998 0.490234C17.8457 0.490234 17.2185 0.749994 16.7559 1.21239L0.361177 17.6047C0.246515 17.7194 0.15556 17.8555 0.0935056 18.0053C0.0314509 18.1551 -0.000488281 18.3157 -0.000488281 18.4778C-0.000488281 18.64 0.0314509 18.8006 0.0935056 18.9504C0.15556 19.1002 0.246515 19.2363 0.361177 19.351C0.592748 19.5825 0.906825 19.7126 1.23432 19.7126C1.39647 19.7126 1.55704 19.6807 1.70685 19.6186C1.85667 19.5566 1.99279 19.4656 2.10745 19.351L3.70081 17.7551V30.8103C3.70081 31.7915 4.0906 32.7326 4.78444 33.4264C5.47827 34.1202 6.41931 34.51 7.40054 34.51H29.599C30.5802 34.51 31.5212 34.1202 32.2151 33.4264C32.9089 32.7326 33.2987 31.7915 33.2987 30.8103V17.7551L34.8921 19.351C35.1236 19.5825 35.4377 19.7126 35.7652 19.7126C36.0927 19.7126 36.4068 19.5825 36.6383 19.351C36.8699 19.1194 37 18.8053 37 18.4778C37 18.1503 36.8699 17.8363 36.6383 17.6047L30.8322 11.801V3.67888C30.8322 3.3518 30.7023 3.03812 30.471 2.80684C30.2397 2.57557 29.926 2.44564 29.599 2.44564H27.1325C26.8054 2.44564 26.4917 2.57557 26.2604 2.80684C26.0292 3.03812 25.8992 3.3518 25.8992 3.67888V6.86805L20.2436 1.21239ZM30.8322 15.2887V30.8103C30.8322 31.1374 30.7023 31.451 30.471 31.6823C30.2397 31.9136 29.926 32.0435 29.599 32.0435H7.40054C7.07347 32.0435 6.75979 31.9136 6.52851 31.6823C6.29723 31.451 6.1673 31.1374 6.1673 30.8103V15.2887L18.4998 2.9562L30.8322 15.2887Z" fill="#FF7A00"/>
<path d="M20.2436 1.21239L21.9876 -0.531683L21.9874 -0.531947L20.2436 1.21239ZM16.7559 1.21239L15.0121 -0.531947L15.012 -0.531814L16.7559 1.21239ZM0.361177 17.6047L-1.38276 15.8605L-1.3829 15.8606L0.361177 17.6047ZM-0.000488281 18.4778H-2.46698H-0.000488281ZM0.361177 19.351L-1.3829 21.095L0.361177 19.351ZM1.23432 19.7126V22.1791V19.7126ZM2.10745 19.351L3.85153 21.095L3.85287 21.0937L2.10745 19.351ZM3.70081 17.7551H6.1673V11.794L1.95539 16.0124L3.70081 17.7551ZM7.40054 34.51V36.9765V34.51ZM29.599 34.51V36.9765V34.51ZM33.2987 17.7551L35.0441 16.0124L30.8322 11.794V17.7551H33.2987ZM34.8921 19.351L33.1466 21.0937L33.148 21.095L34.8921 19.351ZM35.7652 19.7126V22.1791V19.7126ZM37 18.4778H39.4665H37ZM36.6383 17.6047L38.3824 15.8606L38.382 15.8602L36.6383 17.6047ZM30.8322 11.801H28.3657V12.823L29.0885 13.5455L30.8322 11.801ZM29.599 2.44564V-0.020856V2.44564ZM25.8992 6.86805L24.1552 8.61213L28.3657 12.8227V6.86805H25.8992ZM30.8322 15.2887H33.2987V14.267L32.5763 13.5446L30.8322 15.2887ZM6.1673 15.2887L4.42323 13.5446L3.70081 14.267V15.2887H6.1673ZM18.4998 2.9562L20.2438 1.21213L18.4998 -0.531946L16.7557 1.21213L18.4998 2.9562ZM21.9874 -0.531947C21.0623 -1.45674 19.8078 -1.97626 18.4998 -1.97626V2.95673L18.4998 2.95673L21.9874 -0.531947ZM18.4998 -1.97626C17.1917 -1.97626 15.9372 -1.45674 15.0121 -0.531947L18.4998 2.95673V2.95673V-1.97626ZM15.012 -0.531814L-1.38276 15.8605L2.10512 19.3489L18.4999 2.95659L15.012 -0.531814ZM-1.3829 15.8606C-1.72659 16.2043 -1.99923 16.6123 -2.18524 17.0614L2.37225 18.9492C2.31035 19.0986 2.21962 19.2344 2.10525 19.3488L-1.3829 15.8606ZM-2.18524 17.0614C-2.37124 17.5105 -2.46698 17.9918 -2.46698 18.4778H2.466C2.466 18.6396 2.43414 18.7997 2.37225 18.9492L-2.18524 17.0614ZM-2.46698 18.4778C-2.46698 18.9639 -2.37124 19.4452 -2.18524 19.8943L2.37225 18.0065C2.43414 18.1559 2.466 18.3161 2.466 18.4778H-2.46698ZM-2.18524 19.8943C-1.99923 20.3433 -1.72659 20.7513 -1.3829 21.095L2.10525 17.6069C2.21962 17.7213 2.31035 17.857 2.37225 18.0065L-2.18524 19.8943ZM-1.3829 21.095C-0.688765 21.7892 0.252675 22.1791 1.23432 22.1791V17.2461C1.56097 17.2461 1.87426 17.3759 2.10525 17.6069L-1.3829 21.095ZM1.23432 22.1791C1.72037 22.1791 2.20167 22.0834 2.65074 21.8974L0.762969 17.3399C0.912414 17.278 1.07258 17.2461 1.23432 17.2461V22.1791ZM2.65074 21.8974C3.0998 21.7114 3.50783 21.4387 3.85153 21.095L0.363381 17.6069C0.477752 17.4925 0.613532 17.4018 0.762969 17.3399L2.65074 21.8974ZM3.85287 21.0937L5.44623 19.4979L1.95539 16.0124L0.362032 17.6082L3.85287 21.0937ZM1.23432 17.7551V30.8103H6.1673V17.7551H1.23432ZM1.23432 30.8103C1.23432 32.4457 1.88397 34.0141 3.04036 35.1705L6.52851 31.6823C6.29723 31.451 6.1673 31.1374 6.1673 30.8103H1.23432ZM3.04036 35.1705C4.19676 36.3269 5.76516 36.9765 7.40054 36.9765V32.0435C7.07347 32.0435 6.75979 31.9136 6.52851 31.6823L3.04036 35.1705ZM7.40054 36.9765H29.599V32.0435H7.40054V36.9765ZM29.599 36.9765C31.2344 36.9765 32.8028 36.3269 33.9592 35.1705L30.471 31.6823C30.2397 31.9136 29.926 32.0435 29.599 32.0435V36.9765ZM33.9592 35.1705C35.1155 34.0141 35.7652 32.4457 35.7652 30.8103H30.8322C30.8322 31.1374 30.7023 31.451 30.471 31.6823L33.9592 35.1705ZM35.7652 30.8103V17.7551H30.8322V30.8103H35.7652ZM31.5533 19.4979L33.1466 21.0937L36.6375 17.6082L35.0441 16.0124L31.5533 19.4979ZM33.148 21.095C33.8421 21.7892 34.7836 22.1791 35.7652 22.1791V17.2461C36.0919 17.2461 36.4051 17.3759 36.6361 17.6069L33.148 21.095ZM35.7652 22.1791C36.7468 22.1791 37.6883 21.7892 38.3824 21.095L34.8943 17.6069C35.1253 17.3759 35.4385 17.2461 35.7652 17.2461V22.1791ZM38.3824 21.095C39.0765 20.4009 39.4665 19.4595 39.4665 18.4778H34.5335C34.5335 18.1512 34.6633 17.8379 34.8943 17.6069L38.3824 21.095ZM39.4665 18.4778C39.4665 17.4962 39.0765 16.5548 38.3824 15.8606L34.8943 19.3488C34.6633 19.1178 34.5335 18.8045 34.5335 18.4778H39.4665ZM38.382 15.8602L32.5759 10.0566L29.0885 13.5455L34.8946 19.3491L38.382 15.8602ZM33.2987 11.801V3.67888H28.3657V11.801H33.2987ZM33.2987 3.67888C33.2987 2.69765 32.9089 1.75661 32.2151 1.06277L28.7269 4.55092C28.4957 4.31964 28.3657 4.00595 28.3657 3.67888H33.2987ZM32.2151 1.06277C31.5212 0.368936 30.5802 -0.020856 29.599 -0.020856V4.91213C29.2719 4.91213 28.9582 4.7822 28.7269 4.55092L32.2151 1.06277ZM29.599 -0.020856H27.1325V4.91213H29.599V-0.020856ZM27.1325 -0.020856C26.1512 -0.020856 25.2102 0.368936 24.5164 1.06277L28.0045 4.55092C27.7732 4.7822 27.4596 4.91213 27.1325 4.91213V-0.020856ZM24.5164 1.06277C23.8225 1.75661 23.4327 2.69765 23.4327 3.67888H28.3657C28.3657 4.00595 28.2358 4.31964 28.0045 4.55092L24.5164 1.06277ZM23.4327 3.67888V6.86805H28.3657V3.67888H23.4327ZM27.6433 5.12398L21.9876 -0.531683L18.4995 2.95646L24.1552 8.61213L27.6433 5.12398ZM28.3657 15.2887V30.8103H33.2987V15.2887H28.3657ZM28.3657 30.8103C28.3657 30.4832 28.4957 30.1695 28.7269 29.9383L32.2151 33.4264C32.9089 32.7326 33.2987 31.7915 33.2987 30.8103H28.3657ZM28.7269 29.9383C28.9582 29.707 29.2719 29.577 29.599 29.577V34.51C30.5802 34.51 31.5212 34.1202 32.2151 33.4264L28.7269 29.9383ZM29.599 29.577H7.40054V34.51H29.599V29.577ZM7.40054 29.577C7.72762 29.577 8.0413 29.707 8.27258 29.9383L4.78444 33.4264C5.47827 34.1202 6.41932 34.51 7.40054 34.51V29.577ZM8.27258 29.9383C8.50386 30.1695 8.63379 30.4832 8.63379 30.8103H3.70081C3.70081 31.7915 4.0906 32.7326 4.78444 33.4264L8.27258 29.9383ZM8.63379 30.8103V15.2887H3.70081V30.8103H8.63379ZM7.91137 17.0327L20.2438 4.70027L16.7557 1.21213L4.42323 13.5446L7.91137 17.0327ZM16.7557 4.70027L29.0881 17.0327L32.5763 13.5446L20.2438 1.21213L16.7557 4.70027Z" fill="#FF7A00" mask="url(#path-1-inside-1_854_149)"/>
</g>
</svg>
