<svg width="43" height="40" viewBox="0 0 43 40" fill="none" xmlns="http://www.w3.org/2000/svg">
<g id="Vector">
<mask id="path-1-inside-1_854_152" fill="white">
<path fill-rule="evenodd" clip-rule="evenodd" d="M11.9379 39.9782C11.7642 39.966 11.5905 39.9564 11.4176 39.9407C10.4458 39.8482 9.55393 39.5263 8.76272 38.9462C7.39787 37.943 6.52495 36.6092 6.1775 34.9317C6.05077 34.3042 6.00825 33.6622 6.05108 33.0231C6.09763 32.2741 6.24165 31.5346 6.47937 30.8239C6.85692 29.6829 7.42539 28.6474 8.14522 27.6931C8.68703 26.9772 9.30064 26.3203 9.9762 25.733C10.6048 25.1768 11.1888 24.571 11.7229 23.9211C12.4006 23.1055 13.0129 22.241 13.6192 21.3704C14.1542 20.601 14.6805 19.8264 15.2481 19.0832C15.6699 18.5182 16.1312 17.9847 16.6284 17.4868C17.2562 16.8701 17.9494 16.3484 18.7664 16.0091C19.3739 15.7557 20.0224 15.619 20.6791 15.6061C21.4256 15.586 22.1713 15.6661 22.8971 15.8442C23.993 16.1163 24.9981 16.6783 25.81 17.4728C26.3793 18.0224 26.8609 18.6453 27.3081 19.296C27.7837 19.9869 28.2197 20.7031 28.6695 21.4106C29.1769 22.207 29.7016 22.9912 30.2864 23.7327C30.8682 24.4708 31.5135 25.155 32.2145 25.7775C33.0638 26.5257 33.818 27.3781 34.46 28.3151C35.0109 29.1163 35.4502 29.9908 35.7655 30.9138C36.0113 31.633 36.1572 32.3834 36.199 33.1435C36.2592 34.3054 36.0614 35.4168 35.5411 36.4618C35.0595 37.4301 34.3628 38.2091 33.4891 38.8258C32.8458 39.2803 32.1517 39.6258 31.388 39.8177C31.1177 39.887 30.8426 39.9357 30.565 39.9634C30.5263 39.9669 30.4893 39.9738 30.4515 39.9808C30.4154 40.0009 30.3758 39.9852 30.3371 39.9895C30.3053 39.9948 30.2726 39.9808 30.2425 40H29.5304C29.502 39.9799 29.4702 39.9939 29.4401 39.9904H29.2896C28.6824 39.9703 28.0933 39.8421 27.5051 39.7034C26.51 39.4679 25.5339 39.1582 24.5432 38.9026C23.7432 38.6909 22.9301 38.5341 22.1093 38.4333C21.5404 38.3722 20.9678 38.3541 20.3962 38.3792C19.9404 38.3949 19.4863 38.4664 19.0373 38.5511C18.1515 38.7203 17.2838 38.9611 16.4151 39.2018C15.4966 39.4583 14.5782 39.7121 13.6373 39.8683C13.2546 39.9311 12.8719 39.9852 12.4823 39.9817C12.4023 39.9799 12.3232 39.9922 12.2423 39.9904C12.1391 39.9843 12.0385 40.0026 11.937 39.9791M29.49 0.0174467C30.7697 0.173594 31.7484 0.833951 32.4958 1.87465C33.0075 2.58821 33.33 3.38902 33.5295 4.24478C33.6969 4.97938 33.7677 5.73322 33.7402 6.48668C33.698 7.8626 33.3698 9.21398 32.777 10.4523C32.3739 11.3179 31.825 12.1055 31.155 12.7797C30.5504 13.3799 29.8667 13.8596 29.0686 14.1589C28.5078 14.3682 27.9316 14.4729 27.3348 14.4363C26.301 14.3761 25.423 13.9591 24.6859 13.2316C24.0564 12.6105 23.6281 11.8585 23.3314 11.0272C23.1272 10.4473 22.9916 9.84501 22.9272 9.23278C22.88 8.81413 22.8627 8.39257 22.8756 7.97139C22.9057 6.97867 23.082 6.01213 23.4002 5.07349C23.7279 4.07819 24.2254 3.149 24.87 2.32826C25.4204 1.63563 26.0628 1.04942 26.8334 0.61674C27.3937 0.296931 28.0111 0.0935004 28.6498 0.0183189C28.6695 0.00697859 28.691 0.0122127 28.7108 0.0104681H28.7719C28.802 0.00697874 28.8329 0.020936 28.8596 0H29.2793C29.3059 0.0218083 29.3369 0.00697874 29.3661 0.0104681H29.4281C29.4478 0.0104681 29.4693 0.00610632 29.49 0.0174467ZM0.0387008 15.3522C0.0584812 14.9562 0.129003 14.5671 0.231345 14.1841C0.430869 13.44 0.755955 12.7622 1.26337 12.1821C1.8088 11.5424 2.55017 11.1068 3.36869 10.9452C4.04982 10.8091 4.72235 10.8667 5.38285 11.0743C6.1431 11.3116 6.81478 11.7163 7.41249 12.2432C8.33959 13.0588 9.00524 14.0629 9.46535 15.2109C9.82806 16.1019 10.0224 17.0542 10.0381 18.0181C10.0523 18.6125 9.9869 19.2062 9.84376 19.7828C9.64853 20.5548 9.32001 21.257 8.79712 21.8589C8.22077 22.539 7.42432 22.9884 6.55075 23.1264C5.89198 23.2346 5.24439 23.1613 4.61141 22.9537C3.76 22.6737 3.02898 22.1922 2.38569 21.5685C1.76565 20.9639 1.25354 20.255 0.872057 19.4731C0.489597 18.7093 0.229482 17.8887 0.101482 17.0419C0.0799816 16.891 0.0619213 16.7401 0.0412809 16.59C0.0258006 16.5211 0.0326806 16.4505 0.0154802 16.3824C0.00774006 16.3536 0.0120403 16.3266 0.0111802 16.2969C0.00602013 16.2612 0.0223604 16.2219 0 16.1862V15.6331C0.0344007 15.5825 0.0172003 15.5267 0.0206404 15.4726C0.0240804 15.4325 0.0137603 15.3888 0.0387008 15.3522ZM9.02846 6.49191C9.03276 5.39451 9.1867 4.40616 9.54877 3.45357C9.8214 2.73389 10.1964 2.07615 10.7184 1.51001C11.28 0.897632 11.9474 0.45972 12.7523 0.252977C13.5573 0.0453613 14.3485 0.10468 15.126 0.389933C15.8114 0.64291 16.4091 1.03982 16.9406 1.54141C17.7877 2.34047 18.394 3.30615 18.8266 4.38871C19.1018 5.07611 19.291 5.78794 19.3985 6.52157C19.4596 6.9368 19.4949 7.35639 19.5035 7.77773C19.5146 8.30838 19.4778 8.83894 19.3934 9.36276C19.2136 10.4584 18.8473 11.479 18.1937 12.381C17.7973 12.941 17.2828 13.4044 16.6878 13.7375C16.0258 14.1061 15.2714 14.2687 14.5188 14.2051C13.8256 14.1519 13.1858 13.9216 12.5898 13.563C11.8123 13.0963 11.1828 12.4665 10.6582 11.725C10.0466 10.8486 9.59937 9.86533 9.33893 8.82453C9.19138 8.25305 9.0958 7.66905 9.0534 7.07986C9.03447 6.88449 9.02614 6.68821 9.02846 6.49191ZM42.9991 15.996V16.1233C42.9518 17.1815 42.6723 18.1768 42.2225 19.1259C41.8722 19.8677 41.411 20.5501 40.8551 21.1489C40.137 21.9209 39.3036 22.5237 38.312 22.8848C37.725 23.1063 37.0997 23.2042 36.4742 23.1727C35.5662 23.1331 34.7026 22.7634 34.0412 22.1311C33.4753 21.5972 33.1029 20.9412 32.8673 20.2033C32.6596 19.5448 32.5665 18.8546 32.5921 18.1637C32.6385 16.6354 33.1141 15.2467 33.9397 13.9757C34.2175 13.5464 34.538 13.1471 34.8961 12.7841C35.6331 12.0391 36.4759 11.4668 37.4744 11.1414C38.0353 10.9539 38.6268 10.8793 39.2159 10.9216C40.1018 10.9806 40.9389 11.3543 41.5801 11.9771C42.1787 12.5503 42.5571 13.2577 42.785 14.0533C42.9114 14.4921 42.9854 14.9413 43 15.3993V15.5275C42.9955 15.6837 42.9946 15.8399 42.9991 15.996Z"/>
</mask>
<path d="M11.4176 39.9407L11.2281 41.9317L11.2367 41.9325L11.4176 39.9407ZM8.76272 38.9462L7.57822 40.5577L7.58015 40.5592L8.76272 38.9462ZM6.1775 34.9317L4.21706 35.3276L4.21907 35.3374L6.1775 34.9317ZM6.05108 33.0231L8.04663 33.1568L8.04723 33.1471L6.05108 33.0231ZM6.47937 30.8239L8.37608 31.4584L8.37812 31.4522L6.47937 30.8239ZM8.14522 27.6931L6.55046 26.4862L6.54851 26.4887L8.14522 27.6931ZM9.9762 25.733L11.2884 27.2423L11.295 27.2366L11.3015 27.2309L9.9762 25.733ZM11.7229 23.9211L10.1846 22.643L10.1777 22.6513L11.7229 23.9211ZM13.6192 21.3704L15.2604 22.5134L15.2613 22.5121L13.6192 21.3704ZM15.2481 19.0832L16.8376 20.2971L16.8442 20.2884L16.8507 20.2797L15.2481 19.0832ZM16.6284 17.4868L15.2269 16.0601L15.22 16.0668L15.2132 16.0736L16.6284 17.4868ZM18.7664 16.0091L19.5336 17.8561L19.5365 17.8549L18.7664 16.0091ZM20.6791 15.6061L20.7185 17.6057L20.7257 17.6055L20.7329 17.6053L20.6791 15.6061ZM22.8971 15.8442L23.379 13.9031L23.3739 13.9019L22.8971 15.8442ZM25.81 17.4728L24.4111 18.9023L24.421 18.9118L25.81 17.4728ZM27.3081 19.296L25.6598 20.4288L25.6607 20.4301L27.3081 19.296ZM28.6695 21.4106L26.9818 22.4836L26.9828 22.4852L28.6695 21.4106ZM30.2864 23.7327L31.857 22.4945L31.8567 22.4942L30.2864 23.7327ZM32.2145 25.7775L30.8866 27.2731L30.8923 27.2781L32.2145 25.7775ZM34.46 28.3151L32.8102 29.4456L32.812 29.4482L34.46 28.3151ZM35.7655 30.9138L33.8729 31.5604L33.873 31.5606L35.7655 30.9138ZM36.199 33.1435L38.1963 33.04L38.196 33.0338L36.199 33.1435ZM35.5411 36.4618L33.7507 35.5704L33.7503 35.5711L35.5411 36.4618ZM33.4891 38.8258L32.3358 37.1919L32.335 37.1924L33.4891 38.8258ZM31.388 39.8177L30.9006 37.878L30.8912 37.8804L31.388 39.8177ZM30.565 39.9634L30.7446 41.9553L30.7539 41.9544L30.7632 41.9535L30.565 39.9634ZM30.4515 39.9808L30.0888 38.014L29.7667 38.0734L29.4803 38.2324L30.4515 39.9808ZM30.3371 39.9895L30.1131 38.0021L30.0626 38.0078L30.0125 38.016L30.3371 39.9895ZM30.2425 40V42H30.8258L31.3177 41.6864L30.2425 40ZM29.5304 40L28.3759 41.6331L28.8949 42H29.5304V40ZM29.4401 39.9904L29.6704 38.0037L29.5556 37.9904H29.4401V39.9904ZM29.2896 39.9904L29.2236 41.9893L29.2566 41.9904H29.2896V39.9904ZM27.5051 39.7034L27.0444 41.6496L27.0461 41.65L27.5051 39.7034ZM24.5432 38.9026L24.0314 40.8361L24.0436 40.8392L24.5432 38.9026ZM22.1093 38.4333L22.3531 36.4482L22.338 36.4463L22.3229 36.4447L22.1093 38.4333ZM20.3962 38.3792L20.465 40.378L20.4745 40.3777L20.4839 40.3773L20.3962 38.3792ZM19.0373 38.5511L18.6669 36.5857L18.662 36.5866L19.0373 38.5511ZM16.4151 39.2018L15.8809 37.2745L15.8773 37.2755L16.4151 39.2018ZM13.6373 39.8683L13.9612 41.8419L13.9647 41.8413L13.6373 39.8683ZM12.4823 39.9817L12.4387 41.9812L12.4515 41.9815L12.4644 41.9816L12.4823 39.9817ZM12.2423 39.9904L12.1242 41.9869L12.1617 41.9891L12.1992 41.9899L12.2423 39.9904ZM29.49 0.0174467L28.5269 1.7703L28.8649 1.95601L29.2477 2.00272L29.49 0.0174467ZM32.4958 1.87465L34.121 0.709128L34.1203 0.708037L32.4958 1.87465ZM33.5295 4.24478L35.4795 3.80042L35.4772 3.79065L33.5295 4.24478ZM33.7402 6.48668L31.7415 6.41362L31.7411 6.42539L33.7402 6.48668ZM32.777 10.4523L30.973 9.58874L30.9684 9.5984L30.9639 9.60812L32.777 10.4523ZM31.155 12.7797L32.564 14.1991L32.5735 14.1896L31.155 12.7797ZM29.0686 14.1589L29.7681 16.0325L29.7707 16.0316L29.0686 14.1589ZM27.3348 14.4363L27.4573 12.44L27.451 12.4396L27.3348 14.4363ZM24.6859 13.2316L26.0909 11.8082L26.0906 11.8078L24.6859 13.2316ZM23.3314 11.0272L21.4449 11.6915L21.4478 11.6994L23.3314 11.0272ZM22.9272 9.23278L24.9162 9.02372L24.9154 9.01614L24.9146 9.00857L22.9272 9.23278ZM22.8756 7.97139L24.8747 8.0325L24.8747 8.032L22.8756 7.97139ZM23.4002 5.07349L25.2943 5.71562L25.2971 5.70729L25.2999 5.69894L23.4002 5.07349ZM24.87 2.32826L23.3041 1.08395L23.2971 1.09293L24.87 2.32826ZM26.8334 0.61674L27.8126 2.36068L27.8249 2.35369L26.8334 0.61674ZM28.6498 0.0183189L28.8836 2.0046L29.2897 1.95679L29.6445 1.7534L28.6498 0.0183189ZM28.7108 0.0104681V-1.98953H28.6228L28.5351 -1.9818L28.7108 0.0104681ZM28.7719 0.0104681V2.01047H28.8874L29.0022 1.99716L28.7719 0.0104681ZM28.8596 0V-2H28.1682L27.6244 -1.57297L28.8596 0ZM29.2793 0L30.5456 -1.54805L29.9931 -2H29.2793V0ZM29.3661 0.0104681L29.1292 1.99638L29.2472 2.01047H29.3661V0.0104681ZM0.0387008 15.3522L1.69199 16.4776L2.00818 16.0132L2.03621 15.452L0.0387008 15.3522ZM0.231345 14.1841L-1.70042 13.6662L-1.70085 13.6678L0.231345 14.1841ZM1.26337 12.1821L2.76875 13.4989L2.77711 13.4893L2.78534 13.4797L1.26337 12.1821ZM3.36869 10.9452L3.75606 12.9073L3.76052 12.9064L3.36869 10.9452ZM5.38285 11.0743L4.78311 12.9822L4.78699 12.9835L5.38285 11.0743ZM7.41249 12.2432L6.08995 13.7435L6.09143 13.7448L7.41249 12.2432ZM9.46535 15.2109L7.60888 15.955L7.61294 15.9649L9.46535 15.2109ZM10.0381 18.0181L8.03839 18.0508L8.03851 18.0582L8.03869 18.0657L10.0381 18.0181ZM9.84376 19.7828L11.7827 20.2731L11.7848 20.2647L9.84376 19.7828ZM8.79712 21.8589L7.28727 20.5473L7.27926 20.5565L7.27137 20.5658L8.79712 21.8589ZM6.55075 23.1264L6.23851 21.1509L6.22669 21.1529L6.55075 23.1264ZM4.61141 22.9537L3.98657 24.8536L3.98809 24.8541L4.61141 22.9537ZM2.38569 21.5685L0.989447 23.0004L0.993489 23.0043L2.38569 21.5685ZM0.872057 19.4731L2.66951 18.5961L2.66499 18.5868L2.66037 18.5776L0.872057 19.4731ZM0.101482 17.0419L-1.87852 17.324L-1.87732 17.3324L-1.87605 17.3409L0.101482 17.0419ZM0.0412809 16.59L2.02262 16.3175L2.01113 16.234L1.99265 16.1517L0.0412809 16.59ZM0.0154802 16.3824L1.95449 15.8923L1.95079 15.8777L1.94688 15.8631L0.0154802 16.3824ZM0.0111802 16.2969L2.01034 16.239L2.00702 16.1246L1.99068 16.0114L0.0111802 16.2969ZM0 16.1862H-2V16.7599L-1.69585 17.2464L0 16.1862ZM0 15.6331L-1.65392 14.5086L-2 15.0176V15.6331H0ZM0.0206404 15.4726L-1.97205 15.3018L-1.97393 15.3237L-1.97533 15.3456L0.0206404 15.4726ZM9.02846 6.49191L11.0283 6.51553L11.0284 6.50764L11.0284 6.49975L9.02846 6.49191ZM9.54877 3.45357L11.4183 4.16415L11.4191 4.16207L9.54877 3.45357ZM10.7184 1.51001L12.1887 2.86578L12.1924 2.86178L10.7184 1.51001ZM12.7523 0.252977L13.2499 2.19011L13.2518 2.1896L12.7523 0.252977ZM15.126 0.389933L15.8185 -1.48636L15.8149 -1.48767L15.126 0.389933ZM16.9406 1.54141L15.5679 2.99595L15.5683 2.99629L16.9406 1.54141ZM18.8266 4.38871L16.9694 5.13085L16.9699 5.13207L18.8266 4.38871ZM19.3985 6.52157L17.4197 6.81154L17.4198 6.81255L19.3985 6.52157ZM19.5035 7.77773L17.5039 7.81854L17.5039 7.81984L19.5035 7.77773ZM19.3934 9.36276L21.367 9.68654L21.3679 9.68094L19.3934 9.36276ZM18.1937 12.381L16.5742 11.2075L16.5677 11.2165L16.5613 11.2255L18.1937 12.381ZM16.6878 13.7375L17.6606 15.485L17.6647 15.4827L16.6878 13.7375ZM14.5188 14.2051L14.6873 12.2122L14.6796 12.2115L14.6719 12.211L14.5188 14.2051ZM12.5898 13.563L13.6208 11.8492L13.6191 11.8483L12.5898 13.563ZM10.6582 11.725L9.018 12.8696L9.02551 12.8802L10.6582 11.725ZM9.33893 8.82453L11.2791 8.33902L11.2773 8.33178L11.2754 8.32455L9.33893 8.82453ZM9.0534 7.07986L11.0482 6.9363L11.0465 6.9116L11.0441 6.88695L9.0534 7.07986ZM42.9991 15.996H44.9991V15.9669L44.9983 15.9379L42.9991 15.996ZM42.9991 16.1233L44.9971 16.2127L44.9991 16.168V16.1233H42.9991ZM42.2225 19.1259L40.4152 18.2694L40.4141 18.2718L42.2225 19.1259ZM40.8551 21.1489L42.3195 22.511L42.3209 22.5095L40.8551 21.1489ZM38.312 22.8848L37.6276 21.0056L37.6168 21.0095L37.6061 21.0135L38.312 22.8848ZM36.4742 23.1727L36.5749 21.1752L36.5613 21.1746L36.4742 23.1727ZM34.0412 22.1311L35.4233 20.6854L35.4137 20.6763L34.0412 22.1311ZM32.8673 20.2033L30.9599 20.8048L30.962 20.8116L32.8673 20.2033ZM32.5921 18.1637L34.5907 18.2378L34.5911 18.2245L32.5921 18.1637ZM33.9397 13.9757L35.6169 15.0652L35.6188 15.0622L33.9397 13.9757ZM34.8961 12.7841L33.4743 11.3774L33.4722 11.3795L34.8961 12.7841ZM37.4744 11.1414L38.0941 13.043L38.1013 13.0407L38.1085 13.0383L37.4744 11.1414ZM39.2159 10.9216L39.0725 12.9165L39.0831 12.9172L39.2159 10.9216ZM41.5801 11.9771L40.1866 13.4117L40.1917 13.4168L40.1969 13.4217L41.5801 11.9771ZM42.785 14.0533L40.8623 14.6041L40.8632 14.607L42.785 14.0533ZM43 15.3993H45V15.3674L44.999 15.3355L43 15.3993ZM43 15.5275L44.9992 15.5856L45 15.5566V15.5275H43ZM12.0782 37.9831C11.8637 37.968 11.745 37.9622 11.5985 37.9489L11.2367 41.9325C11.4359 41.9506 11.6646 41.9639 11.7976 41.9733L12.0782 37.9831ZM11.607 37.9497C10.9709 37.8891 10.4272 37.6866 9.94528 37.3333L7.58015 40.5592C8.68064 41.366 9.92064 41.8073 11.2281 41.9317L11.607 37.9497ZM9.9472 37.3347C8.97261 36.6184 8.38124 35.7104 8.13594 34.5261L4.21907 35.3374C4.66866 37.508 5.82313 39.2677 7.57823 40.5577L9.9472 37.3347ZM8.13793 34.5358C8.0464 34.0826 8.01565 33.6187 8.0466 33.1568L4.05556 32.8893C4.00085 33.7057 4.05515 34.5258 4.21708 35.3276L8.13793 34.5358ZM8.04723 33.1471C8.083 32.5716 8.19364 32.0037 8.37607 31.4584L4.58267 30.1895C4.28965 31.0655 4.11227 31.9765 4.05493 32.899L8.04723 33.1471ZM8.37812 31.4522C8.67938 30.5418 9.13787 29.6983 9.74194 28.8975L6.54851 26.4887C5.71291 27.5966 5.03446 28.8241 4.58062 30.1956L8.37812 31.4522ZM9.73998 28.9001C10.1986 28.2941 10.7176 27.7386 11.2884 27.2423L8.66396 24.2237C7.88372 24.902 7.17549 25.6603 6.55047 26.4862L9.73998 28.9001ZM11.3015 27.2309C12.0094 26.6045 12.667 25.9224 13.268 25.191L10.1777 22.6513C9.71067 23.2196 9.2001 23.7492 8.65092 24.2351L11.3015 27.2309ZM13.2612 25.1993C13.9986 24.3118 14.6534 23.385 15.2604 22.5134L11.978 20.2274C11.3724 21.097 10.8026 21.8992 10.1846 22.643L13.2612 25.1993ZM15.2613 22.5121C15.8138 21.7175 16.3049 20.9945 16.8376 20.2971L13.6586 17.8693C13.0561 18.6583 12.4945 19.4846 11.9771 20.2287L15.2613 22.5121ZM16.8507 20.2797C17.2154 19.7912 17.6141 19.3301 18.0436 18.9L15.2132 16.0736C14.6483 16.6393 14.1244 17.2452 13.6455 17.8867L16.8507 20.2797ZM18.03 18.9135C18.5374 18.4151 19.022 18.0686 19.5336 17.8561L17.9993 14.162C16.8769 14.6282 15.9751 15.325 15.2269 16.0601L18.03 18.9135ZM19.5365 17.8549C19.9127 17.6979 20.3134 17.6136 20.7185 17.6057L20.6397 13.6064C19.7315 13.6243 18.835 13.8134 17.9964 14.1633L19.5365 17.8549ZM20.7329 17.6053C21.3006 17.5901 21.8679 17.651 22.4203 17.7865L23.3739 13.9019C22.4747 13.6812 21.5505 13.5819 20.6254 13.6068L20.7329 17.6053ZM22.4152 17.7853C23.163 17.9709 23.8522 18.3552 24.4111 18.9022L27.2089 16.0435C26.144 15.0013 24.8229 14.2616 23.379 13.9031L22.4152 17.7853ZM24.421 18.9118C24.8558 19.3316 25.2513 19.8342 25.6598 20.4288L28.9564 18.1633C28.4706 17.4563 27.9028 16.7133 27.199 16.0339L24.421 18.9118ZM25.6607 20.4301C26.1087 21.0808 26.5042 21.7324 26.9818 22.4836L30.3573 20.3375C29.9353 19.6738 29.4588 18.893 28.9555 18.162L25.6607 20.4301ZM26.9828 22.4852C27.5034 23.3023 28.0698 24.1519 28.716 24.9713L31.8567 22.4942C31.3333 21.8306 30.8505 21.1117 30.3563 20.3359L26.9828 22.4852ZM28.7158 24.971C29.3706 25.8016 30.097 26.572 30.8866 27.273L33.5424 24.2819C32.9299 23.7381 32.3659 23.14 31.857 22.4945L28.7158 24.971ZM30.8923 27.2781C31.617 27.9166 32.2613 28.6446 32.8102 29.4456L36.1099 27.1846C35.3747 26.1117 34.5105 25.1349 33.5367 24.2769L30.8923 27.2781ZM32.812 29.4482C33.2592 30.0987 33.6164 30.8094 33.8729 31.5604L37.6581 30.2672C37.284 29.1722 36.7626 28.134 36.1081 27.182L32.812 29.4482ZM33.873 31.5606C34.0595 32.1061 34.1703 32.6758 34.202 33.2532L38.196 33.0338C38.1442 32.091 37.9632 31.1598 37.6581 30.2669L33.873 31.5606ZM34.2017 33.2469C34.2461 34.1053 34.1005 34.8679 33.7507 35.5704L37.3314 37.3532C38.0223 35.9656 38.2722 34.5055 38.1963 33.04L34.2017 33.2469ZM33.7503 35.5711C33.428 36.2193 32.961 36.7506 32.3358 37.1919L34.6424 40.4598C35.7647 39.6676 36.6909 38.641 37.3318 37.3525L33.7503 35.5711ZM32.335 37.1924C31.8571 37.53 31.3857 37.7561 30.9006 37.878L31.8755 41.7574C32.9177 41.4955 33.8345 41.0306 34.6431 40.4593L32.335 37.1924ZM30.8912 37.8804C30.7188 37.9246 30.5436 37.9556 30.3668 37.9732L30.7632 41.9535C31.1416 41.9158 31.5165 41.8495 31.8849 41.755L30.8912 37.8804ZM30.3854 37.9714C30.2371 37.9848 30.1049 38.011 30.0888 38.014L30.8142 41.9476C30.8266 41.9454 30.83 41.9447 30.8339 41.944C30.8367 41.9435 30.834 41.944 30.8283 41.9449C30.817 41.9468 30.7866 41.9515 30.7446 41.9553L30.3854 37.9714ZM29.4803 38.2324C29.9544 37.9691 30.3913 37.9888 30.4859 37.9931C30.5115 37.9943 30.5313 37.9958 30.5268 37.9955C30.5266 37.9955 30.5263 37.9954 30.5256 37.9954C30.525 37.9953 30.524 37.9953 30.523 37.9952C30.5209 37.9951 30.5176 37.9948 30.5136 37.9945C30.5059 37.994 30.4934 37.9931 30.4783 37.9923C30.4245 37.9893 30.2862 37.9826 30.1131 38.0021L30.5611 41.977C30.4074 41.9943 30.2885 41.9879 30.2541 41.986C30.2377 41.9851 30.2216 41.9838 30.2348 41.9848C30.24 41.9852 30.2694 41.9874 30.3047 41.989C30.4378 41.995 30.9125 42.0126 31.4226 41.7292L29.4803 38.2324ZM30.0125 38.016C30.1926 37.9864 30.3342 37.9902 30.3811 37.9918C30.404 37.9926 30.4244 37.9939 30.4134 37.9932C30.4112 37.9931 30.3804 37.9913 30.3439 37.9903C30.1925 37.9861 29.6886 37.9813 29.1673 38.3136L31.3177 41.6864C30.8265 41.9996 30.354 41.9921 30.2344 41.9888C30.2059 41.988 30.1831 41.9866 30.1888 41.9869C30.1946 41.9873 30.184 41.9867 30.1903 41.987C30.191 41.9871 30.1921 41.9871 30.1934 41.9872C30.1959 41.9873 30.1997 41.9875 30.2043 41.9878C30.2133 41.9882 30.2277 41.9889 30.2451 41.9895C30.3081 41.9917 30.4657 41.9953 30.6617 41.963L30.0125 38.016ZM30.2425 38H29.5304V42H30.2425V38ZM30.6849 38.3669C30.1472 37.9867 29.6079 37.9834 29.4145 37.9903C29.3686 37.9919 29.3319 37.9947 29.321 37.9956C29.2972 37.9974 29.3209 37.9956 29.3315 37.9949C29.3613 37.9929 29.4966 37.9836 29.6704 38.0037L29.2098 41.9771C29.3987 41.999 29.5492 41.9892 29.5944 41.9862C29.6126 41.985 29.644 41.9825 29.6278 41.9838C29.6247 41.984 29.5956 41.9863 29.5574 41.9877C29.483 41.9904 29.3109 41.9928 29.0965 41.9476C28.8656 41.899 28.6143 41.8017 28.3759 41.6331L30.6849 38.3669ZM29.4401 37.9904H29.2896V41.9904H29.4401V37.9904ZM29.3557 37.9915C28.9679 37.9787 28.5519 37.8954 27.9641 37.7568L27.0461 41.65C27.6347 41.7888 28.397 41.962 29.2236 41.9893L29.3557 37.9915ZM27.9657 37.7572C26.9319 37.5125 26.2394 37.2747 25.0428 36.966L24.0436 40.8392C24.8284 41.0417 26.0881 41.4233 27.0444 41.6496L27.9657 37.7572ZM25.0549 36.9692C24.167 36.7341 23.2643 36.5601 22.3531 36.4482L21.8656 40.4184C22.5959 40.508 23.3194 40.6476 24.0314 40.836L25.0549 36.9692ZM22.3229 36.4447C21.6539 36.3729 20.9806 36.3516 20.3084 36.3811L20.4839 40.3773C20.955 40.3566 21.4269 40.3715 21.8957 40.4219L22.3229 36.4447ZM20.3273 36.3804C19.7179 36.4014 19.1455 36.4955 18.6669 36.5857L19.4078 40.5164C19.827 40.4374 20.1628 40.3884 20.465 40.378L20.3273 36.3804ZM18.662 36.5866C17.6825 36.7737 16.7359 37.0375 15.8809 37.2745L16.9494 41.1291C17.8316 40.8846 18.6206 40.6669 19.4126 40.5155L18.662 36.5866ZM15.8773 37.2755C14.9464 37.5354 14.1283 37.7594 13.3098 37.8953L13.9647 41.8413C15.028 41.6648 16.0469 41.3811 16.953 41.1281L15.8773 37.2755ZM13.3134 37.8947C12.9447 37.9552 12.7062 37.9836 12.5002 37.9818L12.4644 41.9816C13.0375 41.9867 13.5644 41.907 13.9612 41.8419L13.3134 37.8947ZM12.5259 37.9822C12.4489 37.9805 12.3829 37.9824 12.3349 37.9845C12.2896 37.9865 12.2478 37.9893 12.2317 37.9903C12.2083 37.9919 12.2101 37.9917 12.2157 37.9914C12.2237 37.9911 12.2493 37.9901 12.2855 37.9909L12.1992 41.9899C12.2758 41.9916 12.3416 41.9897 12.3897 41.9876C12.4353 41.9857 12.4771 41.9828 12.4936 41.9818C12.5174 41.9802 12.5154 41.9804 12.5099 41.9806C12.5018 41.981 12.4757 41.982 12.4387 41.9812L12.5259 37.9822ZM12.3605 37.9939C12.3088 37.9908 12.2627 37.9896 12.224 37.9892C12.1855 37.9888 12.152 37.9893 12.1269 37.9897C12.1143 37.99 12.1029 37.9903 12.0936 37.9905C12.0847 37.9907 12.0759 37.991 12.0704 37.9911C12.0567 37.9915 12.0546 37.9916 12.0547 37.9916C12.0557 37.9916 12.0653 37.9914 12.0801 37.9916C12.0951 37.9918 12.1178 37.9925 12.1463 37.9944C12.2034 37.9982 12.2878 38.0073 12.3892 38.0308L11.4849 41.9273C11.7806 41.9959 12.0295 41.9926 12.1234 41.991C12.1488 41.9905 12.1721 41.9899 12.1839 41.9895C12.1911 41.9893 12.1951 41.9892 12.1989 41.9891C12.2006 41.9891 12.2018 41.989 12.2026 41.989C12.2034 41.989 12.2038 41.989 12.2038 41.989C12.2038 41.989 12.2033 41.989 12.2025 41.989C12.2016 41.989 12.2003 41.989 12.1987 41.9891C12.1953 41.9891 12.1902 41.9891 12.1836 41.989C12.1705 41.9889 12.1501 41.9884 12.1242 41.9869L12.3605 37.9939ZM29.2477 2.00272C29.892 2.08134 30.3995 2.38431 30.8712 3.04125L34.1203 0.708037C33.0973 -0.71641 31.6473 -1.73415 29.7322 -1.96783L29.2477 2.00272ZM30.8705 3.04016C31.1969 3.49531 31.428 4.03938 31.5817 4.6989L35.4772 3.79065C35.232 2.73865 34.8181 1.68112 34.121 0.709128L30.8705 3.04016ZM31.5795 4.68913C31.7082 5.25399 31.7627 5.83389 31.7415 6.41362L35.7389 6.55973C35.7727 5.63255 35.6856 4.70477 35.4795 3.80043L31.5795 4.68913ZM31.7411 6.42539C31.7075 7.524 31.4454 8.60205 30.973 9.58874L34.5809 11.3159C35.2942 9.82591 35.6886 8.20121 35.7393 6.54796L31.7411 6.42539ZM30.9639 9.60812C30.6582 10.2647 30.2425 10.8607 29.7365 11.3698L32.5735 14.1896C33.4076 13.3504 34.0897 12.3711 34.5901 11.2965L30.9639 9.60812ZM29.746 11.3603C29.3 11.803 28.8489 12.1053 28.3665 12.2861L29.7707 16.0316C30.8845 15.614 31.8008 14.9567 32.564 14.1991L29.746 11.3603ZM28.369 12.2852C28.0286 12.4123 27.7329 12.4569 27.4573 12.44L27.2122 16.4325C28.1303 16.4889 28.9871 16.3241 29.7681 16.0325L28.369 12.2852ZM27.451 12.4396C26.937 12.4097 26.5079 12.2198 26.0909 11.8082L23.2809 14.6549C24.338 15.6984 25.6651 16.3424 27.2185 16.4329L27.451 12.4396ZM26.0906 11.8078C25.7209 11.4431 25.4347 10.9703 25.215 10.3549L21.4478 11.6994C21.8215 12.7467 22.3919 13.7778 23.2813 14.6553L26.0906 11.8078ZM25.2179 10.3629C25.0656 9.9305 24.9643 9.48095 24.9162 9.02372L20.9382 9.44185C21.0188 10.2091 21.1889 10.9642 21.4449 11.6915L25.2179 10.3629ZM24.9146 9.00857C24.878 8.68465 24.8647 8.35843 24.8747 8.0325L20.8765 7.91027C20.8607 8.4267 20.8819 8.94362 20.9398 9.457L24.9146 9.00857ZM24.8747 8.032C24.8987 7.23952 25.039 6.46884 25.2943 5.71562L21.5061 4.43137C21.125 5.55541 20.9127 6.71783 20.8765 7.91077L24.8747 8.032ZM25.2999 5.69894C25.5552 4.92345 25.9424 4.2008 26.4429 3.56359L23.2971 1.09293C22.5084 2.09719 21.9006 3.23293 21.5005 4.44805L25.2999 5.69894ZM26.4358 3.57255C26.8552 3.04477 27.307 2.64453 27.8126 2.36064L25.8542 -1.12716C24.8186 -0.545694 23.9856 0.226481 23.3042 1.08397L26.4358 3.57255ZM27.8249 2.35369C28.1527 2.16657 28.5126 2.04828 28.8836 2.0046L28.4159 -1.96796C27.5097 -1.86128 26.6347 -1.57271 25.8419 -1.12021L27.8249 2.35369ZM29.6445 1.7534C29.2479 1.98077 28.8826 2.00539 28.7436 2.00979C28.6901 2.01149 28.6278 2.01011 28.669 2.01066C28.6812 2.01082 28.7731 2.01274 28.8865 2.00273L28.5351 -1.9818C28.6386 -1.99093 28.7204 -1.98901 28.7224 -1.98899C28.7534 -1.98857 28.6808 -1.99022 28.6169 -1.9882C28.4573 -1.98314 28.0714 -1.95547 27.655 -1.71676L29.6445 1.7534ZM28.7108 2.01047H28.7719V-1.98953H28.7108V2.01047ZM29.0022 1.99716C28.829 2.01724 28.6942 2.008 28.6649 2.0061C28.6572 2.0056 28.6294 2.00355 28.6573 2.00562C28.6696 2.00654 28.7089 2.00946 28.7583 2.01091C28.8542 2.01373 29.0555 2.01411 29.3007 1.95593C29.5651 1.89317 29.8414 1.77195 30.0948 1.57297L27.6244 -1.57297C27.8644 -1.76149 28.1269 -1.8766 28.3771 -1.93597C28.608 -1.99077 28.7947 -1.98974 28.8758 -1.98736C28.9177 -1.98613 28.9496 -1.98369 28.9543 -1.98334C28.9747 -1.98182 28.9395 -1.9845 28.9242 -1.98549C28.8798 -1.98837 28.7298 -1.99804 28.5416 -1.97623L29.0022 1.99716ZM28.8596 2H29.2793V-2H28.8596V2ZM28.013 1.54805C28.2672 1.75598 28.5499 1.88614 28.8268 1.95356C29.0832 2.016 29.2943 2.01449 29.3957 2.01073C29.4477 2.00881 29.4891 2.0053 29.5021 2.0042C29.5321 2.00165 29.5017 2.00421 29.494 2.0048C29.4639 2.00706 29.3172 2.01881 29.1292 1.99638L29.6031 -1.97544C29.4005 -1.99962 29.239 -1.98732 29.194 -1.98394C29.1788 -1.9828 29.141 -1.97953 29.1636 -1.98145C29.1692 -1.98193 29.2032 -1.98488 29.2478 -1.98653C29.3345 -1.98974 29.531 -1.99185 29.7732 -1.93287C30.0359 -1.86891 30.3047 -1.74508 30.5456 -1.54805L28.013 1.54805ZM29.3661 2.01047H29.4281V-1.98953H29.3661V2.01047ZM29.4281 2.01047C29.4907 2.01047 29.5556 2.00693 29.5336 2.00792C29.532 2.00799 29.5158 2.00875 29.4943 2.00921C29.472 2.0097 29.4379 2.01004 29.396 2.00872C29.2221 2.00327 28.8888 1.96911 28.5269 1.7703L30.4531 -1.73541C30.0706 -1.94555 29.7162 -1.9832 29.5214 -1.98931C29.4333 -1.99207 29.3619 -1.9884 29.3528 -1.98799C29.3206 -1.98653 29.3754 -1.98953 29.4281 -1.98953V2.01047ZM2.03621 15.452C2.04746 15.2268 2.08888 14.9799 2.16354 14.7005L-1.70085 13.6678C-1.83088 14.1543 -1.93049 14.6855 -1.95881 15.2524L2.03621 15.452ZM2.1631 14.7021C2.29942 14.1938 2.49969 13.8065 2.76875 13.4989L-0.242019 10.8654C-0.987781 11.718 -1.43768 12.6863 -1.70041 13.6662L2.1631 14.7021ZM2.78534 13.4797C3.04074 13.1801 3.38352 12.9809 3.75606 12.9073L2.98131 8.98305C1.71681 9.23269 0.576866 9.90461 -0.258613 10.8846L2.78534 13.4797ZM3.76052 12.9064C4.07085 12.8444 4.40094 12.8621 4.78311 12.9822L5.98258 9.16632C5.04377 8.87122 4.02879 8.77377 2.97685 8.98393L3.76052 12.9064ZM4.78699 12.9835C5.24135 13.1253 5.67132 13.3745 6.08996 13.7435L8.73502 10.7429C7.95823 10.0582 7.04486 9.49785 5.9787 9.1651L4.78699 12.9835ZM6.09143 13.7448C6.75324 14.3271 7.24963 15.0585 7.6089 15.9549L11.3218 14.4668C10.7608 13.0673 9.92593 11.7906 8.73355 10.7416L6.09143 13.7448ZM7.61294 15.9649C7.88213 16.6262 8.02666 17.3339 8.03839 18.0508L12.0379 17.9854C12.0181 16.7745 11.774 15.5776 11.3178 14.4568L7.61294 15.9649ZM8.03869 18.0657C8.04861 18.482 8.00281 18.8976 7.90267 19.3009L11.7848 20.2647C11.971 19.5148 12.056 18.743 12.0376 17.9704L8.03869 18.0657ZM7.90479 19.2925C7.77097 19.8217 7.56729 20.225 7.28727 20.5473L10.307 23.1706C11.0727 22.2891 11.5261 21.2879 11.7827 20.2731L7.90479 19.2925ZM7.27137 20.5658C7.00206 20.8836 6.63482 21.0883 6.23852 21.151L6.86298 25.1019C8.21383 24.8884 9.43948 24.1944 10.3229 23.152L7.27137 20.5658ZM6.22669 21.1529C5.93124 21.2014 5.61025 21.1765 5.23474 21.0533L3.98809 24.8541C4.87852 25.1462 5.85271 25.2678 6.87481 25.1L6.22669 21.1529ZM5.23626 21.0538C4.72056 20.8842 4.24336 20.5839 3.77789 20.1326L0.993489 23.0043C1.8146 23.8005 2.79944 24.4632 3.98657 24.8536L5.23626 21.0538ZM3.78192 20.1365C3.32731 19.6932 2.95063 19.1722 2.66951 18.5961L-0.925398 20.3501C-0.443546 21.3377 0.203999 22.2346 0.989453 23.0004L3.78192 20.1365ZM2.66037 18.5776C2.37215 18.002 2.17572 17.3827 2.07902 16.743L-1.87605 17.3409C-1.71676 18.3946 -1.39295 19.4167 -0.916258 20.3686L2.66037 18.5776ZM2.08149 16.7598C2.05638 16.5836 2.05402 16.5457 2.02262 16.3175L-1.94006 16.8626C-1.93017 16.9345 -1.89642 17.1984 -1.87852 17.324L2.08149 16.7598ZM1.99265 16.1517C2.01138 16.2351 2.0192 16.3003 2.02249 16.332C2.02514 16.3575 2.02644 16.38 2.02442 16.3502C2.02336 16.3347 2.0194 16.2731 2.01111 16.202C2.00231 16.1266 1.98638 16.0185 1.95449 15.8923L-1.92353 16.8726C-1.94682 16.7804 -1.95716 16.7066 -1.96192 16.6658C-1.96618 16.6293 -1.96768 16.6023 -1.96637 16.6216C-1.96609 16.6257 -1.96486 16.6442 -1.96351 16.6622C-1.96201 16.682 -1.95969 16.7106 -1.95621 16.7442C-1.94933 16.8107 -1.93656 16.9106 -1.91009 17.0284L1.99265 16.1517ZM1.94688 15.8631C2.00845 16.0921 2.01075 16.2769 2.01075 16.34C2.01075 16.3627 2.00997 16.3925 2.01062 16.3638C2.01094 16.3497 2.01211 16.3001 2.01034 16.239L-1.98798 16.3549C-1.98869 16.3303 -1.98875 16.3103 -1.98867 16.2969C-1.9886 16.2839 -1.98839 16.2746 -1.98837 16.2737C-1.98804 16.2593 -1.98925 16.3033 -1.98925 16.34C-1.98925 16.4313 -1.98523 16.644 -1.91592 16.9017L1.94688 15.8631ZM1.99068 16.0114C2.01666 16.1914 2.00976 16.3319 2.00798 16.368C2.0071 16.3858 2.00576 16.4048 2.00682 16.389C2.00725 16.3825 2.0095 16.3499 2.01086 16.3103C2.01635 16.1506 2.02247 15.6484 1.69585 15.1259L-1.69585 17.2464C-2.00011 16.7597 -1.99098 16.295 -1.98678 16.1728C-1.98621 16.1564 -1.98553 16.1432 -1.98507 16.1351C-1.98483 16.131 -1.98463 16.1277 -1.9845 16.1256C-1.98443 16.1245 -1.98437 16.1237 -1.98434 16.1231C-1.9843 16.1226 -1.98428 16.1223 -1.98428 16.1222C-1.98385 16.1158 -1.98584 16.1441 -1.98717 16.1711C-1.98987 16.2258 -1.99688 16.3846 -1.96832 16.5825L1.99068 16.0114ZM2 16.1862V15.6331H-2V16.1862H2ZM1.65392 16.7576C1.9786 16.2801 2.01812 15.8097 2.02168 15.5859C2.02309 15.4969 2.01797 15.4047 2.01892 15.4267C2.01893 15.4268 2.01914 15.4316 2.01936 15.4386C2.0196 15.4458 2.0199 15.4571 2.02006 15.4712C2.02036 15.4989 2.02016 15.5437 2.01661 15.5995L-1.97533 15.3456C-1.98357 15.4752 -1.9781 15.5821 -1.97732 15.6C-1.97518 15.6493 -1.9788 15.5844 -1.97782 15.5224C-1.97512 15.3527 -1.9442 14.9355 -1.65392 14.5086L1.65392 16.7576ZM2.01333 15.6434C2.0231 15.5294 2.02142 15.4346 2.02132 15.4237C2.02097 15.3846 2.02224 15.4449 2.01938 15.5054C2.01247 15.6519 1.97749 16.0583 1.69199 16.4776L-1.61459 14.2268C-1.92502 14.6828 -1.96732 15.1293 -1.97617 15.3168C-1.97999 15.3978 -1.97834 15.4788 -1.97851 15.4603C-1.97851 15.4602 -1.97855 15.4559 -1.97855 15.4496C-1.97855 15.4431 -1.97851 15.4328 -1.97827 15.4199C-1.9778 15.3948 -1.97648 15.3534 -1.97205 15.3018L2.01333 15.6434ZM11.0284 6.49975C11.032 5.59233 11.1577 4.84965 11.4183 4.16415L7.67926 2.74299C7.21567 3.96267 7.03352 5.1967 7.02848 6.48407L11.0284 6.49975ZM11.4191 4.16207C11.6188 3.63484 11.8713 3.21008 12.1887 2.86578L9.24806 0.154242C8.52147 0.942227 8.024 1.83295 7.67847 2.74507L11.4191 4.16207ZM12.1924 2.86178C12.5316 2.49186 12.8731 2.28686 13.2499 2.19011L12.2548 -1.68415C11.0216 -1.36742 10.0283 -0.696602 9.24438 0.158241L12.1924 2.86178ZM13.2518 2.1896C13.6312 2.09175 14.0077 2.10998 14.4371 2.26754L15.8149 -1.48767C14.6894 -1.90062 13.4834 -2.00103 12.2528 -1.68365L13.2518 2.1896ZM14.4335 2.26622C14.8277 2.41173 15.2003 2.64905 15.5679 2.99595L18.3133 0.0868808C17.6179 -0.569405 16.7951 -1.12591 15.8185 -1.48635L14.4335 2.26622ZM15.5683 2.99629C16.1688 3.56274 16.6253 4.26958 16.9694 5.13085L20.6838 3.64658C20.1628 2.34271 19.4067 1.11821 18.313 0.0865335L15.5683 2.99629ZM16.9699 5.13207C17.185 5.66939 17.3343 6.22869 17.4197 6.81154L21.3774 6.2316C21.2478 5.34718 21.0187 4.48283 20.6834 3.64536L16.9699 5.13207ZM17.4198 6.81255C17.4688 7.14557 17.497 7.48162 17.5039 7.81854L21.5031 7.73692C21.4927 7.23117 21.4504 6.72803 21.3773 6.23059L17.4198 6.81255ZM17.5039 7.81984C17.5125 8.22992 17.4841 8.6399 17.4189 9.04458L21.3679 9.68094C21.4715 9.03799 21.5167 8.38683 21.503 7.73562L17.5039 7.81984ZM17.4198 9.03898C17.2787 9.89866 17.0073 10.6098 16.5742 11.2075L19.8132 13.5546C20.6873 12.3483 21.1486 11.0182 21.367 9.68654L17.4198 9.03898ZM16.5613 11.2255C16.3357 11.5442 16.0447 11.8055 15.7109 11.9923L17.6647 15.4827C18.521 15.0034 19.2588 14.3379 19.8261 13.5366L16.5613 11.2255ZM15.7149 11.9901C15.3993 12.1658 15.0421 12.2422 14.6873 12.2122L14.3503 16.198C15.5007 16.2952 16.6522 16.0464 17.6606 15.485L15.7149 11.9901ZM14.6719 12.211C14.3372 12.1853 13.9945 12.0741 13.6208 11.8492L11.5588 15.2768C12.3771 15.7691 13.3141 16.1185 14.3657 16.1992L14.6719 12.211ZM13.6191 11.8483C13.1218 11.5497 12.6866 11.1292 12.2909 10.5699L9.02551 12.8802C9.679 13.8038 10.5029 14.643 11.5604 15.2778L13.6191 11.8483ZM12.2983 10.5805C11.8266 9.90444 11.4807 9.14467 11.2791 8.33902L7.39875 9.31004C7.71804 10.586 8.26661 11.7927 9.01804 12.8695L12.2983 10.5805ZM11.2754 8.32455C11.1581 7.86997 11.082 7.40526 11.0482 6.9363L7.05856 7.22342C7.10961 7.93283 7.2247 8.63613 7.40243 9.32451L11.2754 8.32455ZM11.0441 6.88695C11.0321 6.76354 11.0269 6.63955 11.0283 6.51553L7.0286 6.46828C7.02543 6.73687 7.03682 7.00544 7.06273 7.27278L11.0441 6.88695ZM40.9991 15.996V16.1233H44.9991V15.996H40.9991ZM41.0011 16.034C40.9674 16.7879 40.7687 17.5235 40.4152 18.2694L44.0299 19.9824C44.5759 18.8301 44.9362 17.575 44.9971 16.2127L41.0011 16.034ZM40.4141 18.2718C40.151 18.8289 39.8051 19.3403 39.3893 19.7882L42.3209 22.5095C43.0169 21.7598 43.5935 20.9064 44.031 19.98L40.4141 18.2718ZM39.3907 19.7867C38.8484 20.3697 38.2717 20.771 37.6276 21.0056L38.9965 24.7641C40.3356 24.2763 41.4256 23.472 42.3195 22.511L39.3907 19.7867ZM37.6061 21.0135C37.276 21.1381 36.9252 21.1929 36.5749 21.1752L36.3735 25.1701C37.2742 25.2156 38.1741 25.0744 39.018 24.7561L37.6061 21.0135ZM36.5613 21.1746C36.1412 21.1563 35.7368 20.9852 35.4233 20.6855L32.6591 23.5768C33.6683 24.5416 34.9912 25.1099 36.3871 25.1708L36.5613 21.1746ZM35.4137 20.6763C35.1373 20.4156 34.9248 20.0718 34.7725 19.5949L30.962 20.8116C31.2811 21.8107 31.8133 22.7789 32.6687 23.5859L35.4137 20.6763ZM34.7747 19.6017C34.6359 19.1618 34.5736 18.7002 34.5907 18.2378L30.5934 18.0897C30.5594 19.009 30.6833 19.9277 30.9599 20.8048L34.7747 19.6017ZM34.5911 18.2245C34.6254 17.0965 34.9711 16.0594 35.6169 15.0651L32.2625 12.8862C31.2571 14.4339 30.6516 16.1743 30.593 18.103L34.5911 18.2245ZM35.6188 15.0622C35.8228 14.747 36.0578 14.4543 36.3199 14.1886L33.4722 11.3795C33.0182 11.8398 32.6122 12.3457 32.2606 12.8891L35.6188 15.0622ZM36.3178 14.1907C36.8744 13.6281 37.4525 13.2521 38.0941 13.043L36.8547 9.23987C35.4993 9.68157 34.3918 10.4501 33.4743 11.3774L36.3178 14.1907ZM38.1085 13.0383C38.4196 12.9343 38.7469 12.8931 39.0725 12.9165L39.3594 8.92677C38.5068 8.86547 37.651 8.97361 36.8403 9.24464L38.1085 13.0383ZM39.0831 12.9172C39.492 12.9444 39.8832 13.1171 40.1866 13.4117L42.9736 10.5426C41.9946 9.59153 40.7116 9.01672 39.3487 8.92603L39.0831 12.9172ZM40.1969 13.4217C40.4905 13.7028 40.7113 14.0769 40.8623 14.6041L44.7077 13.5025C44.4029 12.4386 43.8668 11.3977 42.9633 10.5326L40.1969 13.4217ZM40.8632 14.607C40.9462 14.8952 40.992 15.18 41.001 15.4631L44.999 15.3355C44.9788 14.7027 44.8766 14.089 44.7068 13.4996L40.8632 14.607ZM41 15.3993V15.5275H45V15.3993H41ZM41.0008 15.4695C40.9954 15.6566 40.9941 15.8522 41 16.0541L44.9983 15.9379C44.9951 15.8275 44.9955 15.7107 44.9992 15.5856L41.0008 15.4695Z" fill="#FF7A00" mask="url(#path-1-inside-1_854_152)"/>
</g>
</svg>
