<svg width="30" height="32" viewBox="0 0 30 32" fill="none" xmlns="http://www.w3.org/2000/svg">
<g id="bi:facebook" clip-path="url(#clip0_1105_1621)">
<path id="Vector" d="M29.7583 16.0934C29.7583 7.60095 23.0962 0.716797 14.8793 0.716797C6.65866 0.718707 -0.00341797 7.60095 -0.00341797 16.0954C-0.00341797 23.7684 5.43858 30.1292 12.5507 31.2829V20.5383H8.77519V16.0954H12.5545V12.7048C12.5545 8.85209 14.777 6.72419 18.175 6.72419C19.8043 6.72419 21.506 7.02409 21.506 7.02409V10.8062H19.6294C17.7826 10.8062 17.206 11.9924 17.206 13.2091V16.0934H21.3312L20.6728 20.5364H17.2041V31.281C24.3163 30.1273 29.7583 23.7665 29.7583 16.0934Z" fill="#EE7200"/>
</g>
<defs>
<clipPath id="clip0_1105_1621">
<rect width="29.758" height="30.5623" fill="white" transform="translate(0 0.71875)"/>
</clipPath>
</defs>
</svg>
