<svg width="33" height="26" viewBox="0 0 33 26" fill="none" xmlns="http://www.w3.org/2000/svg">
<path id="Vector" d="M27.7381 1.73391L25.6799 3.33296L16.9165 9.80914L8.15311 3.269L6.09491 1.66994C5.61004 1.27105 5.01814 1.02239 4.39255 0.954765C3.76695 0.887141 3.13515 1.00353 2.57542 1.2895C2.01569 1.57548 1.55262 2.01848 1.24359 2.56361C0.934565 3.10875 0.793152 3.73208 0.836875 4.35636V22.8894C0.836875 23.4662 1.06727 24.0194 1.47738 24.4272C1.88749 24.835 2.44372 25.0641 3.02371 25.0641H8.15311V12.7194L16.9165 19.2596L25.6799 12.7194V25.0641H30.8093C31.3893 25.0641 31.9455 24.835 32.3556 24.4272C32.7657 24.0194 32.9961 23.4662 32.9961 22.8894V4.35636C33.0263 3.73746 32.8751 3.12317 32.5608 2.58816C32.2465 2.05314 31.7827 1.62045 31.2257 1.34266C30.6688 1.06488 30.0427 0.95398 29.4235 1.02344C28.8044 1.09289 28.2188 1.33972 27.7381 1.73391Z" fill="#EE7200"/>
</svg>
