<svg width="27" height="26" viewBox="0 0 27 26" fill="none" xmlns="http://www.w3.org/2000/svg">
<g id="Icon Container">
<g id="Vector">
<mask id="path-1-inside-1_1891_2221" fill="white">
<path fill-rule="evenodd" clip-rule="evenodd" d="M7.57945 24.3283C7.47643 24.3212 7.37341 24.3157 7.27089 24.3066C6.69458 24.253 6.1657 24.0664 5.69649 23.7302C4.88711 23.1488 4.36945 22.3758 4.1634 21.4036C4.08825 21.04 4.06303 20.6679 4.08843 20.2975C4.11604 19.8634 4.20144 19.4349 4.34242 19.023C4.56631 18.3617 4.90343 17.7616 5.33031 17.2085C5.65161 16.7936 6.0155 16.4129 6.41612 16.0725C6.78887 15.7502 7.13523 15.3991 7.45195 15.0225C7.85384 14.5498 8.21696 14.0488 8.57652 13.5443C8.89375 13.0984 9.20587 12.6494 9.54248 12.2187C9.79263 11.8913 10.0662 11.5821 10.361 11.2935C10.7334 10.9361 11.1444 10.6338 11.6289 10.4371C11.9891 10.2902 12.3738 10.211 12.7632 10.2035C13.2059 10.1919 13.6481 10.2383 14.0785 10.3416C14.7284 10.4992 15.3244 10.8249 15.8059 11.2854C16.1435 11.6039 16.4291 11.9649 16.6944 12.342C16.9764 12.7424 17.235 13.1575 17.5017 13.5675C17.8026 14.0291 18.1137 14.4836 18.4605 14.9133C18.8056 15.341 19.1882 15.7376 19.604 16.0983C20.1076 16.532 20.5549 17.026 20.9356 17.569C21.2623 18.0334 21.5228 18.5401 21.7098 19.0751C21.8556 19.4919 21.9421 19.9268 21.9668 20.3673C22.0025 21.0407 21.8852 21.6847 21.5767 22.2904C21.2911 22.8516 20.878 23.303 20.3598 23.6605C19.9783 23.9239 19.5667 24.1241 19.1138 24.2353C18.9535 24.2755 18.7904 24.3037 18.6258 24.3197C18.6028 24.3217 18.5809 24.3258 18.5584 24.3298C18.537 24.3414 18.5136 24.3323 18.4906 24.3349C18.4717 24.3379 18.4524 24.3298 18.4345 24.3409H18.0122C17.9954 24.3293 17.9765 24.3374 17.9587 24.3354H17.8694C17.5093 24.3237 17.16 24.2494 16.8111 24.169C16.2211 24.0325 15.6422 23.8531 15.0547 23.7049C14.5803 23.5822 14.0981 23.4914 13.6113 23.433C13.2739 23.3975 12.9344 23.3871 12.5954 23.4016C12.3251 23.4107 12.0558 23.4522 11.7896 23.5012C11.2643 23.5993 10.7497 23.7388 10.2346 23.8784C9.68987 24.027 9.14518 24.1741 8.58723 24.2646C8.36028 24.301 8.13332 24.3323 7.90229 24.3303C7.85486 24.3293 7.80794 24.3364 7.75999 24.3354C7.69879 24.3318 7.63912 24.3425 7.57894 24.3288M17.9883 1.16923C18.7471 1.25972 19.3275 1.64243 19.7707 2.24556C20.0742 2.65911 20.2654 3.12321 20.3838 3.61916C20.483 4.0449 20.5251 4.48178 20.5087 4.91844C20.4837 5.71585 20.2891 6.49904 19.9375 7.2167C19.6985 7.71837 19.373 8.17483 18.9756 8.56553C18.6171 8.91335 18.2116 9.19141 17.7383 9.36482C17.4058 9.48615 17.0641 9.54682 16.7102 9.52558C16.0971 9.4907 15.5764 9.24905 15.1393 8.82741C14.766 8.46745 14.512 8.03166 14.3361 7.54987C14.215 7.21383 14.1345 6.86475 14.0964 6.50994C14.0684 6.26731 14.0581 6.02299 14.0658 5.7789C14.0836 5.20358 14.1882 4.64342 14.3769 4.09944C14.5712 3.52262 14.8662 2.98411 15.2485 2.50845C15.5749 2.10704 15.9559 1.7673 16.4128 1.51655C16.7451 1.3312 17.1113 1.21331 17.49 1.16974C17.5017 1.16316 17.5145 1.1662 17.5262 1.16519H17.5624C17.5802 1.16316 17.5986 1.17125 17.6144 1.15912H17.8633C17.8791 1.17176 17.8975 1.16316 17.9148 1.16519H17.9515C17.9633 1.16519 17.976 1.16266 17.9883 1.16923ZM0.52295 10.0564C0.534681 9.8269 0.576502 9.60142 0.637193 9.37948C0.755515 8.94824 0.948299 8.55542 1.2492 8.21922C1.57266 7.84844 2.01231 7.596 2.49771 7.50235C2.90164 7.42348 3.30047 7.45684 3.69215 7.57717C4.143 7.71468 4.54132 7.94926 4.89578 8.25461C5.44557 8.72731 5.84032 9.30921 6.11317 9.97452C6.32827 10.4909 6.44349 11.0428 6.45284 11.6014C6.46124 11.9459 6.42246 12.29 6.33758 12.6241C6.2218 13.0716 6.02698 13.4785 5.71689 13.8274C5.37511 14.2215 4.9028 14.4819 4.38475 14.5619C3.99408 14.6246 3.61004 14.5822 3.23467 14.4618C2.72976 14.2996 2.29626 14.0205 1.91477 13.659C1.54707 13.3086 1.24338 12.8978 1.01715 12.4447C0.790342 12.002 0.636088 11.5264 0.560181 11.0357C0.547431 10.9482 0.536721 10.8608 0.524481 10.7738C0.5153 10.7339 0.51938 10.6929 0.50918 10.6535C0.50459 10.6368 0.50714 10.6211 0.50663 10.6039C0.50357 10.5832 0.51326 10.5605 0.5 10.5397V10.2192C0.5204 10.1899 0.5102 10.1575 0.51224 10.1262C0.51428 10.1029 0.50816 10.0777 0.52295 10.0564ZM5.85409 4.92147C5.85664 4.28548 5.94793 3.71269 6.16264 3.16062C6.32432 2.74353 6.54668 2.36234 6.85626 2.03424C7.18929 1.67934 7.58506 1.42555 8.06243 1.30573C8.5398 1.18541 9.00901 1.21979 9.47006 1.3851C9.87654 1.53171 10.231 1.76174 10.5462 2.05244C11.0485 2.51553 11.4081 3.07518 11.6646 3.70258C11.8278 4.10096 11.94 4.51349 12.0038 4.93866C12.04 5.17931 12.0609 5.42248 12.066 5.66667C12.0726 5.9742 12.0508 6.28169 12.0007 6.58526C11.8941 7.22024 11.6769 7.81175 11.2893 8.33449C11.0542 8.65904 10.7491 8.92759 10.3962 9.12063C10.0036 9.33423 9.55628 9.42848 9.10999 9.39161C8.69892 9.36077 8.31948 9.22731 7.96604 9.01952C7.50499 8.74905 7.13166 8.38404 6.82056 7.95431C6.45786 7.44636 6.19265 6.87652 6.0382 6.27333C5.9507 5.94214 5.89402 5.60368 5.86888 5.26222C5.85765 5.14899 5.85271 5.03524 5.85409 4.92147ZM25.9995 10.4295V10.5033C25.9714 11.1166 25.8057 11.6934 25.5389 12.2435C25.3312 12.6733 25.0577 13.0688 24.728 13.4158C24.3022 13.8633 23.808 14.2126 23.2199 14.4219C22.8718 14.5503 22.501 14.607 22.13 14.5887C21.5916 14.5658 21.0794 14.3515 20.6872 13.9851C20.3516 13.6757 20.1308 13.2955 19.9911 12.8678C19.8679 12.4862 19.8127 12.0862 19.8279 11.6858C19.8554 10.8001 20.1374 9.99525 20.627 9.25865C20.7918 9.00985 20.9818 8.77844 21.1942 8.56806C21.6313 8.13631 22.1311 7.80467 22.7232 7.6161C23.0558 7.50742 23.4066 7.46415 23.756 7.48869C24.2813 7.52286 24.7777 7.73945 25.158 8.10042C25.5129 8.43257 25.7373 8.84258 25.8725 9.30365C25.9475 9.55794 25.9913 9.8183 26 10.0837V10.158C25.9973 10.2485 25.9968 10.339 25.9995 10.4295Z"/>
</mask>
<path fill-rule="evenodd" clip-rule="evenodd" d="M7.57945 24.3283C7.47643 24.3212 7.37341 24.3157 7.27089 24.3066C6.69458 24.253 6.1657 24.0664 5.69649 23.7302C4.88711 23.1488 4.36945 22.3758 4.1634 21.4036C4.08825 21.04 4.06303 20.6679 4.08843 20.2975C4.11604 19.8634 4.20144 19.4349 4.34242 19.023C4.56631 18.3617 4.90343 17.7616 5.33031 17.2085C5.65161 16.7936 6.0155 16.4129 6.41612 16.0725C6.78887 15.7502 7.13523 15.3991 7.45195 15.0225C7.85384 14.5498 8.21696 14.0488 8.57652 13.5443C8.89375 13.0984 9.20587 12.6494 9.54248 12.2187C9.79263 11.8913 10.0662 11.5821 10.361 11.2935C10.7334 10.9361 11.1444 10.6338 11.6289 10.4371C11.9891 10.2902 12.3738 10.211 12.7632 10.2035C13.2059 10.1919 13.6481 10.2383 14.0785 10.3416C14.7284 10.4992 15.3244 10.8249 15.8059 11.2854C16.1435 11.6039 16.4291 11.9649 16.6944 12.342C16.9764 12.7424 17.235 13.1575 17.5017 13.5675C17.8026 14.0291 18.1137 14.4836 18.4605 14.9133C18.8056 15.341 19.1882 15.7376 19.604 16.0983C20.1076 16.532 20.5549 17.026 20.9356 17.569C21.2623 18.0334 21.5228 18.5401 21.7098 19.0751C21.8556 19.4919 21.9421 19.9268 21.9668 20.3673C22.0025 21.0407 21.8852 21.6847 21.5767 22.2904C21.2911 22.8516 20.878 23.303 20.3598 23.6605C19.9783 23.9239 19.5667 24.1241 19.1138 24.2353C18.9535 24.2755 18.7904 24.3037 18.6258 24.3197C18.6028 24.3217 18.5809 24.3258 18.5584 24.3298C18.537 24.3414 18.5136 24.3323 18.4906 24.3349C18.4717 24.3379 18.4524 24.3298 18.4345 24.3409H18.0122C17.9954 24.3293 17.9765 24.3374 17.9587 24.3354H17.8694C17.5093 24.3237 17.16 24.2494 16.8111 24.169C16.2211 24.0325 15.6422 23.8531 15.0547 23.7049C14.5803 23.5822 14.0981 23.4914 13.6113 23.433C13.2739 23.3975 12.9344 23.3871 12.5954 23.4016C12.3251 23.4107 12.0558 23.4522 11.7896 23.5012C11.2643 23.5993 10.7497 23.7388 10.2346 23.8784C9.68987 24.027 9.14518 24.1741 8.58723 24.2646C8.36028 24.301 8.13332 24.3323 7.90229 24.3303C7.85486 24.3293 7.80794 24.3364 7.75999 24.3354C7.69879 24.3318 7.63912 24.3425 7.57894 24.3288M17.9883 1.16923C18.7471 1.25972 19.3275 1.64243 19.7707 2.24556C20.0742 2.65911 20.2654 3.12321 20.3838 3.61916C20.483 4.0449 20.5251 4.48178 20.5087 4.91844C20.4837 5.71585 20.2891 6.49904 19.9375 7.2167C19.6985 7.71837 19.373 8.17483 18.9756 8.56553C18.6171 8.91335 18.2116 9.19141 17.7383 9.36482C17.4058 9.48615 17.0641 9.54682 16.7102 9.52558C16.0971 9.4907 15.5764 9.24905 15.1393 8.82741C14.766 8.46745 14.512 8.03166 14.3361 7.54987C14.215 7.21383 14.1345 6.86475 14.0964 6.50994C14.0684 6.26731 14.0581 6.02299 14.0658 5.7789C14.0836 5.20358 14.1882 4.64342 14.3769 4.09944C14.5712 3.52262 14.8662 2.98411 15.2485 2.50845C15.5749 2.10704 15.9559 1.7673 16.4128 1.51655C16.7451 1.3312 17.1113 1.21331 17.49 1.16974C17.5017 1.16316 17.5145 1.1662 17.5262 1.16519H17.5624C17.5802 1.16316 17.5986 1.17125 17.6144 1.15912H17.8633C17.8791 1.17176 17.8975 1.16316 17.9148 1.16519H17.9515C17.9633 1.16519 17.976 1.16266 17.9883 1.16923ZM0.52295 10.0564C0.534681 9.8269 0.576502 9.60142 0.637193 9.37948C0.755515 8.94824 0.948299 8.55542 1.2492 8.21922C1.57266 7.84844 2.01231 7.596 2.49771 7.50235C2.90164 7.42348 3.30047 7.45684 3.69215 7.57717C4.143 7.71468 4.54132 7.94926 4.89578 8.25461C5.44557 8.72731 5.84032 9.30921 6.11317 9.97452C6.32827 10.4909 6.44349 11.0428 6.45284 11.6014C6.46124 11.9459 6.42246 12.29 6.33758 12.6241C6.2218 13.0716 6.02698 13.4785 5.71689 13.8274C5.37511 14.2215 4.9028 14.4819 4.38475 14.5619C3.99408 14.6246 3.61004 14.5822 3.23467 14.4618C2.72976 14.2996 2.29626 14.0205 1.91477 13.659C1.54707 13.3086 1.24338 12.8978 1.01715 12.4447C0.790342 12.002 0.636088 11.5264 0.560181 11.0357C0.547431 10.9482 0.536721 10.8608 0.524481 10.7738C0.5153 10.7339 0.51938 10.6929 0.50918 10.6535C0.50459 10.6368 0.50714 10.6211 0.50663 10.6039C0.50357 10.5832 0.51326 10.5605 0.5 10.5397V10.2192C0.5204 10.1899 0.5102 10.1575 0.51224 10.1262C0.51428 10.1029 0.50816 10.0777 0.52295 10.0564ZM5.85409 4.92147C5.85664 4.28548 5.94793 3.71269 6.16264 3.16062C6.32432 2.74353 6.54668 2.36234 6.85626 2.03424C7.18929 1.67934 7.58506 1.42555 8.06243 1.30573C8.5398 1.18541 9.00901 1.21979 9.47006 1.3851C9.87654 1.53171 10.231 1.76174 10.5462 2.05244C11.0485 2.51553 11.4081 3.07518 11.6646 3.70258C11.8278 4.10096 11.94 4.51349 12.0038 4.93866C12.04 5.17931 12.0609 5.42248 12.066 5.66667C12.0726 5.9742 12.0508 6.28169 12.0007 6.58526C11.8941 7.22024 11.6769 7.81175 11.2893 8.33449C11.0542 8.65904 10.7491 8.92759 10.3962 9.12063C10.0036 9.33423 9.55628 9.42848 9.10999 9.39161C8.69892 9.36077 8.31948 9.22731 7.96604 9.01952C7.50499 8.74905 7.13166 8.38404 6.82056 7.95431C6.45786 7.44636 6.19265 6.87652 6.0382 6.27333C5.9507 5.94214 5.89402 5.60368 5.86888 5.26222C5.85765 5.14899 5.85271 5.03524 5.85409 4.92147ZM25.9995 10.4295V10.5033C25.9714 11.1166 25.8057 11.6934 25.5389 12.2435C25.3312 12.6733 25.0577 13.0688 24.728 13.4158C24.3022 13.8633 23.808 14.2126 23.2199 14.4219C22.8718 14.5503 22.501 14.607 22.13 14.5887C21.5916 14.5658 21.0794 14.3515 20.6872 13.9851C20.3516 13.6757 20.1308 13.2955 19.9911 12.8678C19.8679 12.4862 19.8127 12.0862 19.8279 11.6858C19.8554 10.8001 20.1374 9.99525 20.627 9.25865C20.7918 9.00985 20.9818 8.77844 21.1942 8.56806C21.6313 8.13631 22.1311 7.80467 22.7232 7.6161C23.0558 7.50742 23.4066 7.46415 23.756 7.48869C24.2813 7.52286 24.7777 7.73945 25.158 8.10042C25.5129 8.43257 25.7373 8.84258 25.8725 9.30365C25.9475 9.55794 25.9913 9.8183 26 10.0837V10.158C25.9973 10.2485 25.9968 10.339 25.9995 10.4295Z" fill="white"/>
<path d="M7.27089 24.3066L7.15979 25.5014L7.16479 25.5019L7.27089 24.3066ZM5.69649 23.7302L4.99641 24.7048L4.99757 24.7057L5.69649 23.7302ZM4.1634 21.4036L2.98822 21.6465L2.98948 21.6524L4.1634 21.4036ZM4.08843 20.2975L5.28563 20.3796L5.28601 20.3737L4.08843 20.2975ZM4.34242 19.023L5.47776 19.4116L5.47903 19.4078L4.34242 19.023ZM5.33031 17.2085L4.38155 16.4738L4.38035 16.4753L5.33031 17.2085ZM6.41612 16.0725L7.19315 16.9871L7.201 16.9803L6.41612 16.0725ZM7.45195 15.0225L6.5377 14.2452L6.53353 14.2502L7.45195 15.0225ZM8.57652 13.5443L9.55376 14.2407L9.55432 14.2399L8.57652 13.5443ZM9.54248 12.2187L10.4881 12.9576L10.496 12.9472L9.54248 12.2187ZM10.361 11.2935L9.52995 10.4278L9.52173 10.4359L10.361 11.2935ZM11.6289 10.4371L12.0802 11.549L12.082 11.5483L11.6289 10.4371ZM12.7632 10.2035L12.7863 11.4033L12.7947 11.4031L12.7632 10.2035ZM14.0785 10.3416L14.3615 9.17539L14.3584 9.17466L14.0785 10.3416ZM15.8059 11.2854L14.9765 12.1527L14.9825 12.1583L15.8059 11.2854ZM16.6944 12.342L15.7127 13.0323L15.7133 13.0331L16.6944 12.342ZM17.5017 13.5675L16.4958 14.2219L16.4964 14.2229L17.5017 13.5675ZM18.4605 14.9133L19.3945 14.1599L19.3943 14.1597L18.4605 14.9133ZM19.604 16.0983L18.8175 17.0047L18.8209 17.0077L19.604 16.0983ZM20.9356 17.569L19.953 18.2579L19.9541 18.2595L20.9356 17.569ZM21.7098 19.0751L20.577 19.4711L20.5771 19.4712L21.7098 19.0751ZM21.9668 20.3673L23.1652 20.3037L23.1649 20.2999L21.9668 20.3673ZM21.5767 22.2904L20.5074 21.7457L20.5072 21.7461L21.5767 22.2904ZM20.3598 23.6605L19.6784 22.6727L19.678 22.673L20.3598 23.6605ZM19.1138 24.2353L18.8276 23.0699L18.8221 23.0713L19.1138 24.2353ZM18.6258 24.3197L18.7311 25.5151L18.742 25.5141L18.6258 24.3197ZM18.5584 24.3298L18.3456 23.1488L18.1556 23.1831L17.9859 23.2752L18.5584 24.3298ZM18.4906 24.3349L18.3592 23.1421L18.3296 23.1453L18.3002 23.1501L18.4906 24.3349ZM18.4345 24.3409V25.5409H18.7778L19.0691 25.3594L18.4345 24.3409ZM18.0122 24.3409L17.3301 25.3282L17.638 25.5409H18.0122V24.3409ZM17.9587 24.3354L18.0938 23.143L18.0264 23.1354H17.9587V24.3354ZM17.8694 24.3354L17.8307 25.5348L17.85 25.5354H17.8694V24.3354ZM16.8111 24.169L16.5407 25.3382L16.5417 25.3384L16.8111 24.169ZM15.0547 23.7049L14.7541 24.8667L14.7613 24.8685L15.0547 23.7049ZM13.6113 23.433L13.7543 22.2415L13.7455 22.2404L13.7366 22.2395L13.6113 23.433ZM12.5954 23.4016L12.6358 24.601L12.6469 24.6005L12.5954 23.4016ZM11.7896 23.5012L11.5722 22.3211L11.5693 22.3216L11.7896 23.5012ZM10.2346 23.8784L9.92081 22.7201L9.91866 22.7207L10.2346 23.8784ZM8.58723 24.2646L8.77727 25.4495L8.77935 25.4491L8.58723 24.2646ZM7.90229 24.3303L7.87671 25.53L7.88425 25.5302L7.89178 25.5303L7.90229 24.3303ZM7.75999 24.3354L7.69072 25.5334L7.71269 25.5346L7.73469 25.5351L7.75999 24.3354ZM17.9883 1.16923L17.4206 2.22647L17.6207 2.3339L17.8462 2.36079L17.9883 1.16923ZM19.7707 2.24556L20.7382 1.53564L20.7377 1.53498L19.7707 2.24556ZM20.3838 3.61916L21.5524 3.34666L21.551 3.34068L20.3838 3.61916ZM20.5087 4.91844L19.3095 4.87359L19.3093 4.88081L20.5087 4.91844ZM19.9375 7.2167L18.8598 6.68879L18.8542 6.70057L19.9375 7.2167ZM18.9756 8.56553L19.8112 9.42685L19.817 9.42119L18.9756 8.56553ZM17.7383 9.36482L18.1497 10.4921L18.1512 10.4916L17.7383 9.36482ZM16.7102 9.52558L16.782 8.32773L16.7783 8.32752L16.7102 9.52558ZM15.1393 8.82741L15.9725 7.96376L15.9722 7.96355L15.1393 8.82741ZM14.3361 7.54987L13.2071 7.95665L13.2089 7.96152L14.3361 7.54987ZM14.0964 6.50994L15.2895 6.38161L15.2884 6.37232L14.0964 6.50994ZM14.0658 5.7789L15.2652 5.81642L15.2652 5.81611L14.0658 5.7789ZM14.3769 4.09944L15.5106 4.49274L15.5141 4.48255L14.3769 4.09944ZM15.2485 2.50845L14.3174 1.75137L14.3131 1.75673L15.2485 2.50845ZM16.4128 1.51655L16.9901 2.56859L16.9974 2.56452L16.4128 1.51655ZM17.49 1.16974L17.6271 2.36187L17.8664 2.33434L18.0765 2.21662L17.49 1.16974ZM17.5262 1.16519V-0.0348147H17.4746L17.4231 -0.0303813L17.5262 1.16519ZM17.5624 1.16519V2.36519H17.6301L17.6975 2.35756L17.5624 1.16519ZM17.6144 1.15912V-0.0408814H17.207L16.8838 0.207144L17.6144 1.15912ZM17.8633 1.15912L18.6126 0.221807L18.284 -0.0408814H17.8633V1.15912ZM17.9148 1.16519L17.7758 2.35711L17.8451 2.36519H17.9148V1.16519ZM0.52295 10.0564L1.50762 10.7423L1.70386 10.4606L1.72139 10.1177L0.52295 10.0564ZM0.637193 9.37948L-0.520038 9.06196L-0.520309 9.06295L0.637193 9.37948ZM1.2492 8.21922L2.14336 9.01953L2.14846 9.01383L2.15348 9.00807L1.2492 8.21922ZM2.49771 7.50235L2.72504 8.68062L2.72767 8.68011L2.49771 7.50235ZM3.69215 7.57717L3.33978 8.72427L3.34207 8.72497L3.69215 7.57717ZM4.89578 8.25461L4.11256 9.16377L4.11345 9.16454L4.89578 8.25461ZM6.11317 9.97452L5.0029 10.4299L5.00543 10.4359L6.11317 9.97452ZM6.45284 11.6014L5.25297 11.6215L5.2532 11.6307L6.45284 11.6014ZM6.33758 12.6241L7.49933 12.9248L7.50064 12.9196L6.33758 12.6241ZM5.71689 13.8274L4.82002 13.0301L4.81513 13.0356L4.81032 13.0412L5.71689 13.8274ZM4.38475 14.5619L4.20156 13.376L4.19462 13.3771L4.38475 14.5619ZM3.23467 14.4618L2.86748 15.6043L2.86838 15.6046L3.23467 14.4618ZM1.91477 13.659L1.08695 14.5278L1.0894 14.5301L1.91477 13.659ZM1.01715 12.4447L2.09084 11.9086L2.08511 11.8974L1.01715 12.4447ZM0.560181 11.0357L-0.627312 11.2088L-0.625716 11.2191L0.560181 11.0357ZM0.524481 10.7738L1.71277 10.6065L1.70556 10.5554L1.69398 10.505L0.524481 10.7738ZM0.50918 10.6535L1.67094 10.353L1.66863 10.344L1.66619 10.3352L0.50918 10.6535ZM0.50663 10.6039L1.7061 10.5683L1.70402 10.4982L1.69376 10.4287L0.50663 10.6039ZM0.5 10.5397H-0.7V10.8907L-0.510849 11.1864L0.5 10.5397ZM0.5 10.2192L-0.48505 9.53388L-0.7 9.84284V10.2192H0.5ZM0.51224 10.1262L-0.683169 10.0213L-0.684349 10.0348L-0.685226 10.0483L0.51224 10.1262ZM5.85409 4.92147L7.05404 4.93598L7.05408 4.92629L5.85409 4.92147ZM6.16264 3.16062L7.28103 3.59559L7.28152 3.59433L6.16264 3.16062ZM6.85626 2.03424L7.72908 2.85776L7.73131 2.85538L6.85626 2.03424ZM8.06243 1.30573L8.35456 2.46963L8.35572 2.46934L8.06243 1.30573ZM9.47006 1.3851L9.87721 0.256283L9.87509 0.255523L9.47006 1.3851ZM10.5462 2.05244L9.73262 2.93455L9.73284 2.93475L10.5462 2.05244ZM11.6646 3.70258L10.5539 4.15674L10.5542 4.15749L11.6646 3.70258ZM12.0038 4.93866L10.8171 5.11661L10.8171 5.11722L12.0038 4.93866ZM12.066 5.66667L10.8663 5.69172L10.8663 5.69252L12.066 5.66667ZM12.0007 6.58526L13.1842 6.78393L13.1847 6.7805L12.0007 6.58526ZM11.2893 8.33449L10.3253 7.61971L10.3174 7.63056L11.2893 8.33449ZM10.3962 9.12063L10.9697 10.1747L10.9721 10.1734L10.3962 9.12063ZM9.10999 9.39161L9.20879 8.19565L9.19977 8.19497L9.10999 9.39161ZM7.96604 9.01952L8.5742 7.98505L8.57324 7.98448L7.96604 9.01952ZM6.82056 7.95431L5.84394 8.65165L5.84855 8.65802L6.82056 7.95431ZM6.0382 6.27333L7.20073 5.97566L7.19839 5.96682L6.0382 6.27333ZM5.86888 5.26222L7.06564 5.17409L7.06452 5.15893L7.06302 5.14381L5.86888 5.26222ZM25.9995 10.4295H27.1995V10.4117L27.199 10.3939L25.9995 10.4295ZM25.9995 10.5033L27.1982 10.5582L27.1995 10.5308V10.5033H25.9995ZM25.5389 12.2435L24.4592 11.7199L24.4585 11.7213L25.5389 12.2435ZM24.728 13.4158L25.5972 14.2432L25.5981 14.2423L24.728 13.4158ZM23.2199 14.4219L22.8175 13.2913L22.8048 13.296L23.2199 14.4219ZM22.13 14.5887L22.1891 13.3902L22.1811 13.3898L22.13 14.5887ZM20.6872 13.9851L21.5065 13.1082L21.5006 13.1029L20.6872 13.9851ZM19.9911 12.8678L18.849 13.2364L18.8504 13.2405L19.9911 12.8678ZM19.8279 11.6858L21.027 11.7313L21.0273 11.7231L19.8279 11.6858ZM20.627 9.25865L21.6264 9.92292L21.6276 9.92114L20.627 9.25865ZM21.1942 8.56806L20.3509 7.71434L20.3496 7.71558L21.1942 8.56806ZM22.7232 7.6161L23.0873 8.75954L23.0959 8.75676L22.7232 7.6161ZM23.756 7.48869L23.6718 8.68576L23.6781 8.68617L23.756 7.48869ZM25.158 8.10042L24.3318 8.97074L24.3381 8.97664L25.158 8.10042ZM25.8725 9.30365L24.7209 9.6412L24.7215 9.64299L25.8725 9.30365ZM26 10.0837H27.2V10.0641L27.1994 10.0445L26 10.0837ZM26 10.158L27.1995 10.1937L27.2 10.1759V10.158H26ZM7.6617 23.1311C7.5348 23.1224 7.46406 23.119 7.377 23.1113L7.16479 25.5019C7.28275 25.5123 7.41806 25.52 7.4972 25.5255L7.6617 23.1311ZM7.382 23.1117C7.00206 23.0764 6.67934 22.9582 6.39542 22.7548L4.99757 24.7057C5.65207 25.1746 6.38711 25.4296 7.15979 25.5014L7.382 23.1117ZM6.39657 22.7556C5.82143 22.3425 5.47921 21.8243 5.33733 21.1548L2.98948 21.6524C3.25969 22.9274 3.95278 23.9552 4.99641 24.7048L6.39657 22.7556ZM5.33857 21.1608C5.28549 20.9039 5.26768 20.6411 5.28562 20.3796L2.89124 20.2154C2.85838 20.6946 2.89101 21.176 2.98823 21.6465L5.33857 21.1608ZM5.28601 20.3737C5.30684 20.0461 5.37129 19.7226 5.47775 19.4116L3.20708 18.6344C3.03159 19.1471 2.92523 19.6807 2.89085 20.2213L5.28601 20.3737ZM5.47903 19.4078C5.65534 18.8871 5.92423 18.403 6.28026 17.9417L4.38035 16.4753C3.88263 17.1202 3.47728 17.8363 3.2058 18.6381L5.47903 19.4078ZM6.27907 17.9433C6.5494 17.5942 6.8557 17.2737 7.19312 16.987L5.63912 15.1581C5.17529 15.5522 4.75382 15.9931 4.38155 16.4738L6.27907 17.9433ZM7.201 16.9803C7.62171 16.6165 8.01273 16.2201 8.37037 15.7948L6.53353 14.2502C6.25773 14.5781 5.95603 14.884 5.63124 15.1648L7.201 16.9803ZM8.36618 15.7998C8.80455 15.2842 9.19374 14.7459 9.55376 14.2407L7.59928 12.8478C7.24019 13.3517 6.90312 13.8154 6.53771 14.2452L8.36618 15.7998ZM9.55432 14.2399C9.8823 13.7789 10.1728 13.3609 10.488 12.9576L8.59695 11.4798C8.23893 11.9379 7.9052 12.4178 7.59872 12.8486L9.55432 14.2399ZM10.496 12.9472C10.7112 12.6656 10.9466 12.3995 11.2004 12.1512L9.52173 10.4359C9.18579 10.7646 8.87405 11.117 8.58892 11.4902L10.496 12.9472ZM11.1921 12.1592C11.491 11.8722 11.777 11.6721 12.0802 11.549L11.1776 9.32521C10.5119 9.59544 9.97574 9.99993 9.52999 10.4279L11.1921 12.1592ZM12.082 11.5483C12.3054 11.4572 12.5442 11.408 12.7863 11.4033L12.7401 9.00376C12.2033 9.01409 11.6729 9.12326 11.1759 9.32592L12.082 11.5483ZM12.7947 11.4031C13.1326 11.3942 13.4702 11.4297 13.7986 11.5085L14.3584 9.17466C13.826 9.04695 13.2791 8.98957 12.7317 9.00395L12.7947 11.4031ZM13.7956 11.5077C14.2409 11.6158 14.6483 11.8387 14.9765 12.1526L16.6353 10.4182C16.0006 9.81113 15.2158 9.38269 14.3615 9.17539L13.7956 11.5077ZM14.9825 12.1583C15.2384 12.3998 15.4714 12.6891 15.7127 13.0323L17.676 11.6518C17.3869 11.2407 17.0487 10.8081 16.6294 10.4125L14.9825 12.1583ZM15.7133 13.0331C15.9783 13.4094 16.212 13.7856 16.4958 14.2219L18.5076 12.9131C18.2579 12.5294 17.9744 12.0755 17.6754 11.651L15.7133 13.0331ZM16.4964 14.2229C16.8055 14.6969 17.1423 15.1906 17.5267 15.6669L19.3943 14.1597C19.0852 13.7766 18.7997 13.3612 18.507 12.9122L16.4964 14.2229ZM17.5265 15.6668C17.9162 16.1498 18.3483 16.5975 18.8175 17.0047L20.3904 15.192C20.0282 14.8777 19.6949 14.5323 19.3945 14.1599L17.5265 15.6668ZM18.8209 17.0077C19.2493 17.3765 19.6296 17.7965 19.953 18.2579L21.9182 16.8801C21.4802 16.2555 20.9658 15.6874 20.387 15.189L18.8209 17.0077ZM19.9541 18.2595C20.2171 18.6333 20.4267 19.041 20.577 19.4711L22.8426 18.679C22.6189 18.0393 22.3074 17.4334 21.9171 16.8785L19.9541 18.2595ZM20.5771 19.4712C20.6858 19.7821 20.7503 20.1064 20.7687 20.4346L23.1649 20.2999C23.1339 19.7472 23.0253 19.2016 22.8425 18.6789L20.5771 19.4712ZM20.7685 20.4308C20.7943 20.9173 20.7101 21.348 20.5074 21.7457L22.6459 22.8351C23.0604 22.0215 23.2108 21.164 23.1652 20.3037L20.7685 20.4308ZM20.5072 21.7461C20.3202 22.1135 20.0478 22.4179 19.6784 22.6727L21.0412 24.6483C21.7081 24.1882 22.2619 23.5896 22.6461 22.8347L20.5072 21.7461ZM19.678 22.673C19.3958 22.8678 19.1165 22.999 18.8276 23.0699L19.4 25.4006C20.017 25.2491 20.5608 24.9799 21.0416 24.6479L19.678 22.673ZM18.8221 23.0713C18.7194 23.097 18.615 23.1151 18.5095 23.1253L18.742 25.5141C18.9657 25.4923 19.1876 25.4539 19.4056 25.3993L18.8221 23.0713ZM18.5204 23.1243C18.4332 23.132 18.3553 23.1471 18.3456 23.1488L18.7713 25.5108C18.7786 25.5095 18.7807 25.5091 18.783 25.5087C18.7847 25.5084 18.7832 25.5087 18.7799 25.5092C18.7734 25.5102 18.7556 25.5129 18.7311 25.5151L18.5204 23.1243ZM17.9859 23.2752C18.2667 23.1228 18.5238 23.1345 18.5782 23.1369C18.5933 23.1376 18.6048 23.1385 18.6021 23.1383C18.602 23.1383 18.6018 23.1383 18.6014 23.1382C18.6011 23.1382 18.6005 23.1382 18.5999 23.1381C18.5987 23.138 18.5967 23.1379 18.5944 23.1377C18.5898 23.1374 18.5825 23.1369 18.5736 23.1364C18.542 23.1347 18.4608 23.1309 18.3592 23.1421L18.622 25.5277C18.5319 25.5376 18.4622 25.5339 18.4421 25.5328C18.4325 25.5323 18.4231 25.5316 18.4309 25.5322C18.434 25.5324 18.4512 25.5337 18.472 25.5346C18.5492 25.538 18.8287 25.5485 19.1309 25.3844L17.9859 23.2752ZM18.3002 23.1501C18.4058 23.1331 18.4888 23.1353 18.5163 23.1362C18.5296 23.1366 18.5416 23.1374 18.5351 23.137C18.5338 23.1369 18.5157 23.1359 18.4943 23.1353C18.4066 23.133 18.1095 23.1296 17.7999 23.3225L19.0691 25.3594C18.7774 25.5412 18.4989 25.5363 18.4301 25.5344C18.4134 25.534 18.4 25.5332 18.4034 25.5334C18.4068 25.5336 18.4006 25.5332 18.4043 25.5334C18.4047 25.5335 18.4054 25.5335 18.4061 25.5335C18.4076 25.5336 18.4098 25.5337 18.4125 25.5339C18.4178 25.5341 18.4263 25.5345 18.4365 25.5349C18.4734 25.5361 18.5659 25.5382 18.6811 25.5197L18.3002 23.1501ZM18.4345 23.1409H18.0122V25.5409H18.4345V23.1409ZM18.6943 23.3536C18.3742 23.1325 18.0559 23.1314 17.9439 23.1353C17.917 23.1362 17.8954 23.1379 17.8891 23.1383C17.875 23.1394 17.8889 23.1383 17.8951 23.1379C17.9126 23.1368 17.9918 23.1315 18.0938 23.143L17.8236 25.5278C17.9344 25.5403 18.0227 25.5347 18.0493 25.533C18.06 25.5323 18.0785 25.5309 18.069 25.5316C18.0671 25.5317 18.0501 25.533 18.0277 25.5338C17.9338 25.5371 17.6334 25.5378 17.3301 25.3282L18.6943 23.3536ZM17.9587 23.1354H17.8694V25.5354H17.9587V23.1354ZM17.9081 23.136C17.6768 23.1285 17.4291 23.08 17.0806 22.9997L16.5417 25.3384C16.8909 25.4189 17.3419 25.519 17.8307 25.5348L17.9081 23.136ZM17.0816 22.9999C16.4687 22.8581 16.0568 22.7201 15.348 22.5414L14.7613 24.8685C15.2276 24.9861 15.9735 25.207 16.5407 25.3382L17.0816 22.9999ZM15.3552 22.5432C14.829 22.4071 14.2941 22.3063 13.7543 22.2415L13.4684 24.6244C13.902 24.6764 14.3316 24.7574 14.7541 24.8667L15.3552 22.5432ZM13.7366 22.2395C13.3405 22.1979 12.9419 22.1856 12.5439 22.2027L12.6469 24.6005C12.9269 24.5885 13.2074 24.5971 13.4861 24.6264L13.7366 22.2395ZM12.555 22.2023C12.1947 22.2144 11.8559 22.2688 11.5722 22.3211L12.007 24.6814C12.2557 24.6355 12.4555 24.607 12.6358 24.6009L12.555 22.2023ZM11.5693 22.3216C10.9889 22.43 10.4279 22.5827 9.92081 22.7201L10.5483 25.0366C11.0714 24.8949 11.5396 24.7686 12.0098 24.6808L11.5693 22.3216ZM9.91866 22.7207C9.36675 22.8713 8.8811 23.0013 8.39511 23.0801L8.77935 25.4491C9.40927 25.347 10.013 25.1827 10.5505 25.036L9.91866 22.7207ZM8.3972 23.0797C8.17855 23.1148 8.03618 23.1314 7.91279 23.1304L7.89178 25.5303C8.23047 25.5332 8.542 25.4872 8.77727 25.4495L8.3972 23.0797ZM7.92786 23.1306C7.8826 23.1296 7.84374 23.1307 7.8155 23.1319C7.78875 23.1331 7.76413 23.1347 7.75454 23.1353C7.74069 23.1362 7.74165 23.1361 7.74477 23.136C7.74936 23.1358 7.76423 23.1352 7.7853 23.1356L7.73469 25.5351C7.77973 25.5361 7.81844 25.535 7.8468 25.5338C7.87368 25.5326 7.89832 25.531 7.90813 25.5304C7.92219 25.5295 7.92118 25.5296 7.91808 25.5297C7.91347 25.5299 7.89826 25.5305 7.87671 25.53L7.92786 23.1306ZM7.82927 23.1374C7.7989 23.1356 7.77174 23.1349 7.74895 23.1347C7.72631 23.1345 7.7066 23.1347 7.69181 23.135C7.68434 23.1351 7.6776 23.1353 7.67211 23.1354C7.66685 23.1356 7.66166 23.1357 7.65838 23.1358C7.65459 23.1359 7.65243 23.136 7.65064 23.136C7.64899 23.1361 7.64857 23.1361 7.64892 23.1361C7.64946 23.136 7.65499 23.1359 7.66357 23.1361C7.67229 23.1362 7.68555 23.1366 7.70213 23.1376C7.73543 23.1398 7.78489 23.145 7.84438 23.1585L7.3135 25.4991C7.48753 25.5386 7.63393 25.5366 7.68925 25.5357C7.70424 25.5355 7.71797 25.5351 7.72498 25.5349C7.73399 25.5346 7.73577 25.5346 7.73689 25.5346C7.73876 25.5345 7.71944 25.535 7.69072 25.5334L7.82927 23.1374ZM17.8462 2.36079C18.2329 2.4069 18.5303 2.58396 18.8037 2.95614L20.7377 1.53498C20.1248 0.700901 19.2614 0.112548 18.1303 -0.0223285L17.8462 2.36079ZM18.8033 2.95549C18.9927 3.21369 19.1269 3.52217 19.2165 3.89764L21.551 3.34068C21.4039 2.72424 21.1557 2.10453 20.7382 1.53564L18.8033 2.95549ZM19.2151 3.89165C19.2902 4.21348 19.3219 4.54364 19.3096 4.87359L21.7079 4.96329C21.7282 4.41992 21.6759 3.87631 21.5524 3.34667L19.2151 3.89165ZM19.3093 4.88081C19.2896 5.50773 19.1366 6.12382 18.8599 6.68882L21.0152 7.74458C21.4415 6.87425 21.6778 5.92398 21.7081 4.95607L19.3093 4.88081ZM18.8542 6.70057C18.6756 7.07544 18.4321 7.41707 18.1343 7.70987L19.817 9.42119C20.3139 8.93259 20.7214 8.3613 21.0208 7.73284L18.8542 6.70057ZM18.1401 7.70423C17.878 7.95844 17.6119 8.13312 17.3255 8.23806L18.1512 10.4916C18.8113 10.2497 19.3562 9.86827 19.8112 9.42683L18.1401 7.70423ZM17.327 8.23752C17.1247 8.31134 16.9478 8.33768 16.782 8.32774L16.6383 10.7234C17.1805 10.756 17.6869 10.661 18.1497 10.4921L17.327 8.23752ZM16.7783 8.32752C16.4692 8.30993 16.2155 8.19819 15.9725 7.96376L14.3062 9.69106C14.9373 10.2999 15.7251 10.6715 16.642 10.7236L16.7783 8.32752ZM15.9722 7.96355C15.757 7.75598 15.5909 7.48786 15.4632 7.13822L13.2089 7.96152C13.4331 8.57547 13.775 9.17892 14.3064 9.69127L15.9722 7.96355ZM15.465 7.14309C15.3763 6.8969 15.3174 6.6413 15.2895 6.38161L12.9032 6.63826C12.9516 7.0882 13.0537 7.53076 13.2071 7.95665L15.465 7.14309ZM15.2884 6.37232C15.2671 6.18781 15.2594 6.00202 15.2652 5.81642L12.8663 5.74138C12.8569 6.04396 12.8696 6.34681 12.9043 6.64755L15.2884 6.37232ZM15.2652 5.81611C15.2792 5.3638 15.3611 4.92362 15.5106 4.49272L13.2431 3.70616C13.0152 4.36322 12.888 5.04335 12.8663 5.74169L15.2652 5.81611ZM15.5141 4.48255C15.6632 4.03986 15.8898 3.62607 16.1838 3.26017L14.3131 1.75673C13.8426 2.34214 13.4792 3.00537 13.2397 3.71633L15.5141 4.48255ZM16.1795 3.26552C16.4256 2.96291 16.6913 2.73254 16.9901 2.56857L15.8355 0.464529C15.2204 0.802067 14.7242 1.25117 14.3174 1.75138L16.1795 3.26552ZM16.9974 2.56452C17.1912 2.45642 17.4053 2.38739 17.6271 2.36187L17.3528 -0.0224009C16.8172 0.0392183 16.299 0.205989 15.8282 0.468573L16.9974 2.56452ZM18.0765 2.21662C17.8412 2.34848 17.6259 2.3623 17.5452 2.3648C17.5139 2.36577 17.4774 2.36498 17.5016 2.3653C17.5088 2.36539 17.5627 2.36649 17.6292 2.36075L17.4231 -0.0303813C17.4838 -0.0356122 17.5317 -0.0345142 17.5329 -0.0344993C17.551 -0.0342625 17.5084 -0.0352107 17.4709 -0.0340499C17.378 -0.031173 17.1505 -0.0155786 16.9034 0.122854L18.0765 2.21662ZM17.5262 2.36519H17.5624V-0.0348147H17.5262V2.36519ZM17.6975 2.35756C17.596 2.36906 17.5169 2.36377 17.4998 2.36268C17.4953 2.36239 17.4791 2.36122 17.4954 2.36241C17.5027 2.36294 17.5258 2.36462 17.5547 2.36545C17.6109 2.36706 17.7291 2.3673 17.8732 2.33387C18.0285 2.29785 18.1928 2.22787 18.345 2.11109L16.8838 0.207144C17.0281 0.0964316 17.1841 0.0299904 17.331 -0.00407028C17.4667 -0.0355377 17.5762 -0.0349243 17.6236 -0.0335613C17.6482 -0.0328561 17.6668 -0.0314614 17.6696 -0.0312587C17.6815 -0.0303913 17.6608 -0.0319279 17.6519 -0.0324974C17.6258 -0.0341556 17.5378 -0.0396999 17.4273 -0.0271875L17.6975 2.35756ZM17.6144 2.35912H17.8633V-0.0408814H17.6144V2.35912ZM17.114 2.09643C17.2669 2.21863 17.4351 2.29381 17.5978 2.33251C17.7485 2.36839 17.8724 2.3675 17.9319 2.36535C17.9624 2.36425 17.9867 2.36223 17.9943 2.3616C18.012 2.36013 17.9941 2.3616 17.9896 2.36193C17.972 2.36323 17.886 2.36996 17.7758 2.35711L18.0538 -0.0267369C17.9349 -0.0406045 17.8401 -0.0335526 17.8137 -0.031611C17.8048 -0.0309548 17.7825 -0.0290782 17.7958 -0.0301769C17.7991 -0.0304492 17.819 -0.0321368 17.8451 -0.0330824C17.8958 -0.034917 18.0111 -0.0361543 18.1534 -0.00228536C18.3076 0.0344154 18.4676 0.105922 18.6126 0.221807L17.114 2.09643ZM17.9148 2.36519H17.9515V-0.0348147H17.9148V2.36519ZM17.9515 2.36519C17.9883 2.36519 18.0264 2.36315 18.0135 2.36372C18.0126 2.36376 18.0031 2.3642 17.9905 2.36446C17.9775 2.36474 17.9575 2.36493 17.9329 2.36418C17.8317 2.36108 17.6352 2.34173 17.4206 2.22647L18.5559 0.111992C18.329 -0.00984323 18.1201 -0.0312105 18.0065 -0.0346937C17.9548 -0.0362778 17.9129 -0.034173 17.9075 -0.033935C17.8886 -0.0330986 17.9207 -0.0348147 17.9515 -0.0348147V2.36519ZM1.72139 10.1177C1.72776 9.99304 1.75131 9.85466 1.79469 9.69601L-0.520309 9.06295C-0.598306 9.34817 -0.658395 9.66076 -0.675485 9.99517L1.72139 10.1177ZM1.79442 9.697C1.87306 9.4104 1.98815 9.19294 2.14336 9.01953L0.355047 7.41892C-0.0915508 7.9179 -0.362028 8.48607 -0.520038 9.06196L1.79442 9.697ZM2.15348 9.00807C2.30013 8.83997 2.50106 8.72383 2.72504 8.68061L2.27038 6.32408C1.52356 6.46816 0.845197 6.85691 0.344928 7.43037L2.15348 9.00807ZM2.72767 8.68011C2.91407 8.64371 3.11205 8.65431 3.33978 8.72426L4.04453 6.43007C3.48888 6.25938 2.88921 6.20325 2.26775 6.32458L2.72767 8.68011ZM3.34207 8.72497C3.6124 8.80742 3.86646 8.95176 4.11256 9.16377L5.679 7.34546C5.21619 6.94675 4.6736 6.62194 4.04224 6.42937L3.34207 8.72497ZM4.11345 9.16454C4.50268 9.49919 4.79299 9.91799 5.00291 10.4299L7.22343 9.51919C6.88764 8.70042 6.38845 7.95543 5.67811 7.34469L4.11345 9.16454ZM5.00543 10.4359C5.1623 10.8125 5.2462 11.2147 5.25301 11.6215L7.65267 11.5813C7.64078 10.8709 7.49424 10.1693 7.22092 9.51311L5.00543 10.4359ZM5.2532 11.6307C5.25893 11.8657 5.23248 12.1005 5.17451 12.3287L7.50064 12.9196C7.61245 12.4794 7.66355 12.0261 7.65248 11.5722L5.2532 11.6307ZM5.17584 12.3235C5.09864 12.6219 4.9816 12.8483 4.82002 13.0301L6.61377 14.6246C7.07236 14.1087 7.34497 13.5212 7.49931 12.9248L5.17584 12.3235ZM4.81032 13.0412C4.65571 13.2194 4.44025 13.3391 4.20157 13.376L4.56793 15.7479C5.36534 15.6247 6.09451 15.2235 6.62347 14.6136L4.81032 13.0412ZM4.19462 13.3771C4.01697 13.4056 3.82453 13.3908 3.60097 13.3191L2.86838 15.6046C3.39555 15.7736 3.97119 15.8437 4.57487 15.7468L4.19462 13.3771ZM3.60187 13.3194C3.29525 13.2209 3.01359 13.0471 2.74014 12.788L1.0894 14.5301C1.57893 14.9939 2.16428 15.3783 2.86748 15.6043L3.60187 13.3194ZM2.74259 12.7903C2.47518 12.5355 2.25477 12.2371 2.09078 11.9086L-0.056477 12.9807C0.23199 13.5585 0.618969 14.0818 1.08695 14.5278L2.74259 12.7903ZM2.08511 11.8974C1.91672 11.5688 1.80234 11.216 1.74608 10.8522L-0.625716 11.2191C-0.530165 11.8368 -0.33603 12.4353 -0.0508138 12.9919L2.08511 11.8974ZM1.74763 10.8626C1.73262 10.7596 1.73175 10.7414 1.71277 10.6065L-0.663805 10.9411C-0.658312 10.9801 -0.637754 11.1369 -0.627267 11.2088L1.74763 10.8626ZM1.69398 10.505C1.70584 10.5566 1.71084 10.5971 1.71296 10.6172C1.71469 10.6335 1.71555 10.6478 1.71432 10.6302C1.7137 10.6212 1.71125 10.584 1.70611 10.541C1.70066 10.4953 1.69077 10.4296 1.67094 10.353L-0.652583 10.954C-0.667307 10.8971 -0.673884 10.8513 -0.676949 10.8256C-0.678504 10.8126 -0.679367 10.8028 -0.679743 10.7984C-0.680077 10.7944 -0.680211 10.7922 -0.679893 10.7967C-0.679739 10.799 -0.678987 10.81 -0.67816 10.8208C-0.677246 10.8326 -0.675814 10.8499 -0.67366 10.8702C-0.669398 10.9104 -0.66147 10.9711 -0.645023 11.0426L1.69398 10.505ZM1.66619 10.3352C1.70487 10.4757 1.70638 10.5895 1.70638 10.6289C1.70638 10.6431 1.70588 10.6616 1.70628 10.6442C1.70647 10.6358 1.70721 10.6056 1.7061 10.5683L-0.692842 10.6395C-0.693694 10.6108 -0.693086 10.589 -0.693083 10.5889C-0.692873 10.5798 -0.693625 10.6066 -0.693625 10.6289C-0.693625 10.6846 -0.691099 10.8145 -0.647828 10.9718L1.66619 10.3352ZM1.69376 10.4287C1.71012 10.5395 1.70578 10.626 1.70464 10.6485C1.70409 10.6596 1.70324 10.6714 1.70389 10.6618C1.70415 10.658 1.70555 10.6382 1.7064 10.614C1.70987 10.5154 1.7131 10.2092 1.51085 9.89306L-0.510849 11.1864C-0.699839 10.891 -0.694825 10.6066 -0.692118 10.5296C-0.69176 10.5195 -0.691326 10.5113 -0.691031 10.5063C-0.690881 10.5037 -0.69075 10.5016 -0.690665 10.5003C-0.690581 10.499 -0.690522 10.4981 -0.69052 10.4981C-0.690239 10.494 -0.691481 10.5112 -0.692309 10.5276C-0.693987 10.5609 -0.698387 10.6581 -0.680503 10.7792L1.69376 10.4287ZM1.7 10.5397V10.2192H-0.7V10.5397H1.7ZM1.48505 10.9045C1.68535 10.6166 1.71061 10.3307 1.71285 10.193C1.71373 10.1388 1.71054 10.0827 1.71116 10.0966C1.71116 10.0968 1.7113 10.0998 1.71145 10.1043C1.7116 10.1088 1.71179 10.1158 1.71189 10.1246C1.71208 10.1419 1.71195 10.1696 1.70971 10.2041L-0.685226 10.0483C-0.690372 10.1273 -0.686953 10.1925 -0.686484 10.203C-0.685163 10.2328 -0.687463 10.1925 -0.686836 10.1539C-0.685105 10.0476 -0.66495 9.79246 -0.48505 9.53388L1.48505 10.9045ZM1.70765 10.2311C1.71376 10.1614 1.7127 10.1036 1.71264 10.0973C1.71242 10.0736 1.71323 10.1109 1.71142 10.1484C1.70698 10.2403 1.68442 10.4885 1.50762 10.7423L-0.461717 9.37054C-0.653305 9.64559 -0.680203 9.917 -0.685789 10.0327C-0.688174 10.082 -0.687143 10.1314 -0.687253 10.1197C-0.687254 10.1196 -0.687282 10.1168 -0.687281 10.1128C-0.687281 10.1088 -0.687253 10.1024 -0.6871 10.0944C-0.686801 10.0788 -0.685964 10.0532 -0.683169 10.0213L1.70765 10.2311ZM7.05408 4.92629C7.05616 4.40716 7.12965 3.98483 7.28103 3.59559L5.04425 2.72565C4.76621 3.44055 4.65711 4.1638 4.6541 4.91666L7.05408 4.92629ZM7.28152 3.59433C7.39765 3.29475 7.54423 3.05367 7.72907 2.85776L5.98344 1.21071C5.54913 1.67102 5.25098 2.19232 5.04376 2.72691L7.28152 3.59433ZM7.73131 2.85538C7.92871 2.64502 8.12935 2.52616 8.35456 2.46963L7.7703 0.141832C7.04077 0.324939 6.44987 0.713654 5.9812 1.21309L7.73131 2.85538ZM8.35572 2.46934C8.58326 2.41198 8.8092 2.42295 9.06503 2.51468L9.87509 0.255523C9.20881 0.0166187 8.49634 -0.041169 7.76914 0.142124L8.35572 2.46934ZM9.06291 2.51392C9.29714 2.5984 9.51687 2.73557 9.73262 2.93455L11.3597 1.17033C10.9451 0.787918 10.4559 0.465026 9.87721 0.256285L9.06291 2.51392ZM9.73284 2.93475C10.0855 3.25988 10.3526 3.66439 10.5539 4.15674L12.7754 3.24841C12.4636 2.48597 12.0115 1.77118 11.3595 1.17013L9.73284 2.93475ZM10.5542 4.15749C10.68 4.46457 10.7672 4.78392 10.8171 5.11661L13.1905 4.76072C13.1129 4.24306 12.9757 3.73734 12.7751 3.24767L10.5542 4.15749ZM10.8171 5.11722C10.8458 5.30747 10.8623 5.49937 10.8663 5.69172L13.2657 5.64161C13.2596 5.3456 13.2342 5.05115 13.1904 4.76011L10.8171 5.11722ZM10.8663 5.69252C10.8713 5.92602 10.8547 6.15949 10.8167 6.39003L13.1847 6.7805C13.2468 6.40388 13.274 6.02238 13.2657 5.64081L10.8663 5.69252ZM10.8173 6.3866C10.7351 6.87634 10.5773 7.27996 10.3253 7.61976L12.2532 9.04923C12.7765 8.34353 13.0532 7.56415 13.1842 6.78392L10.8173 6.3866ZM10.3174 7.63056C10.1872 7.81033 10.0176 7.95995 9.82033 8.06786L10.9721 10.1734C11.4807 9.89523 11.9212 9.50774 12.2611 9.03842L10.3174 7.63056ZM9.82274 8.06655C9.63606 8.16812 9.42243 8.21333 9.20879 8.19569L9.0112 10.5875C9.69014 10.6436 10.3712 10.5004 10.9697 10.1747L9.82274 8.06655ZM9.19977 8.19497C8.99882 8.1799 8.79484 8.11476 8.5742 7.98505L7.35788 10.054C7.84411 10.3399 8.39903 10.5416 9.02022 10.5882L9.19977 8.19497ZM8.57324 7.98448C8.27972 7.81229 8.02431 7.57071 7.79256 7.25061L5.84855 8.65802C6.23901 9.19736 6.73026 9.68581 7.35884 10.0546L8.57324 7.98448ZM7.79715 7.25699C7.52036 6.86934 7.3183 6.43495 7.2007 5.97567L4.87571 6.571C5.06701 7.3181 5.39536 8.02338 5.84396 8.65163L7.79715 7.25699ZM7.19839 5.96682C7.12978 5.7071 7.08535 5.44175 7.06564 5.17409L4.67212 5.35035C4.7027 5.76561 4.77162 6.17717 4.87801 6.57985L7.19839 5.96682ZM7.06302 5.14381C7.05617 5.07474 7.05316 5.00536 7.054 4.93598L4.65417 4.90697C4.65226 5.06512 4.65913 5.22325 4.67473 5.38064L7.06302 5.14381ZM24.7995 10.4295V10.5033H27.1995V10.4295H24.7995ZM24.8007 10.4485C24.7812 10.8749 24.6662 11.2929 24.4592 11.7199L26.6187 12.7671C26.9451 12.0939 27.1616 11.3583 27.1982 10.5582L24.8007 10.4485ZM24.4585 11.7213C24.3049 12.0392 24.1024 12.3321 23.858 12.5894L25.5981 14.2423C26.013 13.8055 26.3575 13.3075 26.6194 12.7656L24.4585 11.7213ZM23.8588 12.5885C23.5402 12.9233 23.2 13.1552 22.8175 13.2914L23.6223 15.5524C24.4159 15.27 25.0642 14.8032 25.5972 14.2432L23.8588 12.5885ZM22.8048 13.296C22.6084 13.3684 22.3989 13.4005 22.1891 13.3902L22.071 15.7873C22.6031 15.8135 23.1352 15.7321 23.635 15.5478L22.8048 13.296ZM22.1811 13.3898C21.9276 13.379 21.6883 13.2782 21.5065 13.1083L19.868 14.862C20.4705 15.4249 21.2555 15.7526 22.079 15.7877L22.1811 13.3898ZM21.5006 13.1029C21.3409 12.9556 21.2192 12.7628 21.1317 12.4951L18.8504 13.2405C19.0424 13.8282 19.3624 14.3959 19.8738 14.8674L21.5006 13.1029ZM21.1331 12.4993C21.053 12.2511 21.0171 11.9913 21.027 11.7313L18.6287 11.6404C18.6082 12.1812 18.6828 12.7212 18.849 13.2363L21.1331 12.4993ZM21.0273 11.7231C21.0472 11.0836 21.2474 10.4931 21.6264 9.92292L19.6277 8.59438C19.0274 9.49741 18.6636 10.5166 18.6284 11.6485L21.0273 11.7231ZM21.6276 9.92114C21.7469 9.74096 21.8846 9.5732 22.0387 9.42054L20.3496 7.71558C20.079 7.98368 19.8367 8.27873 19.6265 8.59616L21.6276 9.92114ZM22.0375 9.42178C22.3647 9.09854 22.706 8.88094 23.0873 8.75951L22.359 6.47268C21.5561 6.7284 20.8978 7.17408 20.3509 7.71434L22.0375 9.42178ZM23.0959 8.75676C23.2812 8.69622 23.4768 8.67204 23.6718 8.68574L23.8401 6.29165C23.3364 6.25625 22.8304 6.31863 22.3505 6.47543L23.0959 8.75676ZM23.6781 8.68617C23.9247 8.7022 24.156 8.80382 24.3318 8.97072L25.9842 7.23012C25.3995 6.67508 24.6379 6.34351 23.8338 6.29122L23.6781 8.68617ZM24.3381 8.97664C24.5077 9.13533 24.6341 9.3449 24.721 9.6412L27.024 8.96609C26.8406 8.34026 26.5182 7.72981 25.9779 7.2242L24.3381 8.97664ZM24.7215 9.64299C24.7693 9.80527 24.7955 9.96484 24.8006 10.1229L27.1994 10.0445C27.1872 9.67176 27.1256 9.31061 27.0235 8.9643L24.7215 9.64299ZM24.8 10.0837V10.158H27.2V10.0837H24.8ZM24.8005 10.1224C24.7973 10.2319 24.7965 10.3466 24.8 10.4652L27.199 10.3939C27.1971 10.3315 27.1973 10.2651 27.1995 10.1937L24.8005 10.1224Z" fill="#FF7A00" mask="url(#path-1-inside-1_1891_2221)"/>
</g>
</g>
</svg>
