<svg width="16" height="17" viewBox="0 0 16 17" fill="none" xmlns="http://www.w3.org/2000/svg">
<path id="Vector" d="M15.7661 2.20007L13.833 0.23745C13.6832 0.0854108 13.4801 0 13.2682 0C13.0564 0 12.8533 0.0854108 12.7035 0.23745L9.04493 3.95183C8.89511 4.10388 8.81092 4.31013 8.81088 4.5252V6.48782C8.81088 6.70291 8.89504 6.90919 9.04484 7.06129C9.19465 7.21338 9.39783 7.29882 9.60969 7.29882H11.5428C11.7547 7.29878 11.9578 7.2133 12.1076 7.0612L15.7661 3.34682C15.9159 3.19474 16 2.98849 16 2.77345C16 2.5584 15.9159 2.35215 15.7661 2.20007ZM11.2129 5.67682H10.4085V4.86096L13.2682 1.95758L14.0718 2.77345L11.2129 5.67682ZM13.5798 8.079C13.3679 8.079 13.1647 8.16445 13.0149 8.31654C12.8651 8.46863 12.781 8.67491 12.781 8.89V10.8299L11.5987 9.62964C11.1823 9.20744 10.6179 8.9703 10.0295 8.9703C9.44099 8.9703 8.87658 9.20744 8.4602 9.62964L7.90263 10.1949L5.91679 8.17876C5.50088 7.75721 4.93721 7.52044 4.34952 7.52044C3.76183 7.52044 3.19816 7.75721 2.78226 8.17876L1.59762 9.38147V4.83501C1.59783 4.61998 1.68206 4.41383 1.83182 4.26178C1.98158 4.10974 2.18464 4.02422 2.39643 4.02401H7.18929C7.40115 4.02401 7.60433 3.93856 7.75414 3.78647C7.90394 3.63438 7.9881 3.4281 7.9881 3.21301C7.9881 2.99792 7.90394 2.79164 7.75414 2.63954C7.60433 2.48745 7.40115 2.40201 7.18929 2.40201H2.39643C1.76105 2.40265 1.15188 2.65919 0.702599 3.11533C0.253319 3.57146 0.000634427 4.18993 0 4.83501V14.567C0.000634427 15.2121 0.253319 15.8305 0.702599 16.2867C1.15188 16.7428 1.76105 16.9994 2.39643 17H11.9822C12.6175 16.9994 13.2267 16.7428 13.676 16.2867C14.1253 15.8305 14.378 15.2121 14.3786 14.567V8.89C14.3786 8.67491 14.2944 8.46863 14.1446 8.31654C13.9948 8.16445 13.7916 8.079 13.5798 8.079ZM12.781 14.567C12.777 14.7234 12.7272 14.875 12.638 15.0025L9.03215 11.3417L9.58972 10.7756C9.70646 10.6577 9.86442 10.5915 10.0291 10.5915C10.1937 10.5915 10.3517 10.6577 10.4684 10.7756L12.781 13.1234V14.567Z" fill="#FAFAFB"/>
</svg>
