<svg width="55" height="78" viewBox="0 0 55 78" fill="none" xmlns="http://www.w3.org/2000/svg">
<path d="M27.5 0.499954V19.75C27.5 21.938 28.3692 24.0364 29.9164 25.5836C31.4635 27.1308 33.562 28 35.75 28H55V69.25C55 71.438 54.1308 73.5364 52.5836 75.0836C51.0365 76.6308 48.938 77.5 46.75 77.5H8.25C6.06196 77.5 3.96354 76.6308 2.41637 75.0836C0.869194 73.5364 0 71.438 0 69.25V8.74995C0 6.56192 0.869194 4.4635 2.41637 2.91632C3.96354 1.36915 6.06196 0.499954 8.25 0.499954H27.5ZM33 1.87495V19.75C33 20.4793 33.2897 21.1788 33.8055 21.6945C34.3212 22.2102 35.0207 22.5 35.75 22.5H53.625L33 1.87495ZM22 41.75C22 42.4793 22.2897 43.1788 22.8055 43.6945C23.3212 44.2102 24.0207 44.5 24.75 44.5H41.25C41.9793 44.5 42.6788 44.2102 43.1945 43.6945C43.7103 43.1788 44 42.4793 44 41.75C44 41.0206 43.7103 40.3211 43.1945 39.8054C42.6788 39.2897 41.9793 39 41.25 39H24.75C24.0207 39 23.3212 39.2897 22.8055 39.8054C22.2897 40.3211 22 41.0206 22 41.75ZM24.75 50C24.0207 50 23.3212 50.2897 22.8055 50.8054C22.2897 51.3211 22 52.0206 22 52.75C22 53.4793 22.2897 54.1788 22.8055 54.6945C23.3212 55.2102 24.0207 55.5 24.75 55.5H41.25C41.9793 55.5 42.6788 55.2102 43.1945 54.6945C43.7103 54.1788 44 53.4793 44 52.75C44 52.0206 43.7103 51.3211 43.1945 50.8054C42.6788 50.2897 41.9793 50 41.25 50H24.75ZM22 63.75C22 64.4793 22.2897 65.1788 22.8055 65.6945C23.3212 66.2102 24.0207 66.5 24.75 66.5H41.25C41.9793 66.5 42.6788 66.2102 43.1945 65.6945C43.7103 65.1788 44 64.4793 44 63.75C44 63.0206 43.7103 62.3211 43.1945 61.8054C42.6788 61.2897 41.9793 61 41.25 61H24.75C24.0207 61 23.3212 61.2897 22.8055 61.8054C22.2897 62.3211 22 63.0206 22 63.75ZM13.75 44.5C14.4793 44.5 15.1788 44.2102 15.6945 43.6945C16.2103 43.1788 16.5 42.4793 16.5 41.75C16.5 41.0206 16.2103 40.3211 15.6945 39.8054C15.1788 39.2897 14.4793 39 13.75 39C13.0207 39 12.3212 39.2897 11.8055 39.8054C11.2897 40.3211 11 41.0206 11 41.75C11 42.4793 11.2897 43.1788 11.8055 43.6945C12.3212 44.2102 13.0207 44.5 13.75 44.5ZM16.5 52.75C16.5 52.0206 16.2103 51.3211 15.6945 50.8054C15.1788 50.2897 14.4793 50 13.75 50C13.0207 50 12.3212 50.2897 11.8055 50.8054C11.2897 51.3211 11 52.0206 11 52.75C11 53.4793 11.2897 54.1788 11.8055 54.6945C12.3212 55.2102 13.0207 55.5 13.75 55.5C14.4793 55.5 15.1788 55.2102 15.6945 54.6945C16.2103 54.1788 16.5 53.4793 16.5 52.75ZM13.75 66.5C14.4793 66.5 15.1788 66.2102 15.6945 65.6945C16.2103 65.1788 16.5 64.4793 16.5 63.75C16.5 63.0206 16.2103 62.3211 15.6945 61.8054C15.1788 61.2897 14.4793 61 13.75 61C13.0207 61 12.3212 61.2897 11.8055 61.8054C11.2897 62.3211 11 63.0206 11 63.75C11 64.4793 11.2897 65.1788 11.8055 65.6945C12.3212 66.2102 13.0207 66.5 13.75 66.5Z" fill="#EE7200"/>
</svg>
