<svg width="47" height="39" viewBox="0 0 47 39" fill="none" xmlns="http://www.w3.org/2000/svg">
<g id="&#240;&#159;&#166;&#134; icon &#34;gcash&#34;">
<path id="Vector" d="M37.3713 11.0588C37.1735 10.6475 36.8205 10.3317 36.3899 10.1807C35.9592 10.0297 35.4863 10.056 35.075 10.2537C34.6637 10.4515 34.3479 10.8045 34.1969 11.2351C34.0459 11.6657 34.0722 12.1387 34.2699 12.55L37.3713 11.0588ZM34.2699 26.4497C34.0721 26.861 34.0458 27.334 34.1968 27.7647C34.3477 28.1953 34.6636 28.5484 35.0749 28.7461C35.4861 28.9439 35.9591 28.9702 36.3898 28.8193C36.8204 28.6683 37.1735 28.3525 37.3713 27.9412L34.2699 26.4497ZM29.6071 6.79146C29.7857 6.93141 29.9901 7.03467 30.2087 7.0953C30.4273 7.15593 30.6557 7.17274 30.8809 7.14475C31.106 7.11676 31.3233 7.04454 31.5204 6.93222C31.7175 6.81991 31.8905 6.66973 32.0293 6.49033C32.1681 6.31092 32.2701 6.10584 32.3294 5.88687C32.3887 5.6679 32.4041 5.43937 32.3747 5.21443C32.3453 4.98949 32.2717 4.77258 32.1582 4.57618C32.0446 4.37979 31.8934 4.20778 31.7131 4.07007L29.6071 6.79146ZM31.7131 34.9299C32.0708 34.6496 32.303 34.2391 32.3591 33.7881C32.4152 33.3371 32.2905 32.8822 32.0124 32.5228C31.7342 32.1633 31.3252 31.9286 30.8745 31.8697C30.4239 31.8108 29.9683 31.9326 29.6071 32.2085L31.7131 34.9299ZM19.7883 35.5588C10.9193 35.5588 3.7295 28.369 3.7295 19.5H0.28833C0.28833 30.2694 9.01887 39 19.7883 39V35.5588ZM3.7295 19.5C3.7295 10.6309 10.9193 3.44119 19.7883 3.44119V1.96171e-05C9.01887 1.96171e-05 0.28833 8.73056 0.28833 19.5H3.7295ZM34.2699 12.55C35.2802 14.6505 35.8471 17.0069 35.8471 19.5H39.2883C39.2883 16.4798 38.6003 13.615 37.3713 11.0588L34.2699 12.55ZM35.8471 19.5C35.8471 21.9931 35.2802 24.3489 34.2699 26.4497L37.3713 27.9412C38.6003 25.385 39.2883 22.5202 39.2883 19.5H35.8471ZM19.7883 3.44119C23.4884 3.44119 26.892 4.69062 29.6071 6.79146L31.7131 4.07007C28.3009 1.42596 24.1051 -0.00611338 19.7883 1.96171e-05V3.44119ZM29.6071 32.2085C26.892 34.3094 23.4884 35.5588 19.7883 35.5588V39C24.1051 39.0061 28.3009 37.574 31.7131 34.9299L29.6071 32.2085Z" fill="white"/>
<path id="Vector_2" d="M42.2883 8.82562C43.8414 12.0557 44.7118 15.6764 44.7118 19.5001C44.7118 23.3239 43.8414 26.9445 42.2883 30.1744" stroke="white" stroke-width="3.44117" stroke-linecap="round" stroke-linejoin="round"/>
<path id="Vector_3" d="M19.9037 19.5H30.2884C30.2884 25.2015 25.639 29.8236 19.9037 29.8236C14.1685 29.8236 9.51904 25.2015 9.51904 19.5C9.51904 13.7986 14.1685 9.17651 19.9037 9.17651C22.7713 9.17651 25.3675 10.3322 27.2469 12.2002" stroke="white" stroke-width="3.44117" stroke-linecap="round" stroke-linejoin="round"/>
</g>
</svg>
