<svg width="55" height="54" viewBox="0 0 55 54" fill="none" xmlns="http://www.w3.org/2000/svg">
<g filter="url(#filter0_d_2524_1031)">
<path d="M21.145 21.3074H33.8435H21.145ZM21.145 27.8132H30.6689H21.145ZM37.0181 13.175C38.2811 13.175 39.4923 13.6891 40.3853 14.6042C41.2784 15.5193 41.7801 16.7603 41.7801 18.0544V31.0662C41.7801 32.3603 41.2784 33.6014 40.3853 34.5164C39.4923 35.4315 38.2811 35.9456 37.0181 35.9456H29.0816L21.145 40.825V35.9456H17.9704C16.7075 35.9456 15.4963 35.4315 14.6032 34.5164C13.7102 33.6014 13.2085 32.3603 13.2085 31.0662V18.0544C13.2085 16.7603 13.7102 15.5193 14.6032 14.6042C15.4963 13.6891 16.7075 13.175 17.9704 13.175H37.0181Z" fill="#EE7200"/>
<path d="M21.145 21.3074H33.8435M21.145 27.8132H30.6689M37.0181 13.175C38.2811 13.175 39.4923 13.6891 40.3853 14.6042C41.2784 15.5193 41.7801 16.7603 41.7801 18.0544V31.0662C41.7801 32.3603 41.2784 33.6014 40.3853 34.5164C39.4923 35.4315 38.2811 35.9456 37.0181 35.9456H29.0816L21.145 40.825V35.9456H17.9704C16.7075 35.9456 15.4963 35.4315 14.6032 34.5164C13.7102 33.6014 13.2085 32.3603 13.2085 31.0662V18.0544C13.2085 16.7603 13.7102 15.5193 14.6032 14.6042C15.4963 13.6891 16.7075 13.175 17.9704 13.175H37.0181Z" stroke="#FAFAFB" stroke-width="1.84333" stroke-linecap="round" stroke-linejoin="round"/>
</g>
<defs>
<filter id="filter0_d_2524_1031" x="0.286865" y="0.253418" width="54.4149" height="53.4932" filterUnits="userSpaceOnUse" color-interpolation-filters="sRGB">
<feFlood flood-opacity="0" result="BackgroundImageFix"/>
<feColorMatrix in="SourceAlpha" type="matrix" values="0 0 0 0 0 0 0 0 0 0 0 0 0 0 0 0 0 0 127 0" result="hardAlpha"/>
<feMorphology radius="4" operator="dilate" in="SourceAlpha" result="effect1_dropShadow_2524_1031"/>
<feOffset/>
<feGaussianBlur stdDeviation="4"/>
<feComposite in2="hardAlpha" operator="out"/>
<feColorMatrix type="matrix" values="0 0 0 0 1 0 0 0 0 0.63315 0 0 0 0 0.2025 0 0 0 0.7 0"/>
<feBlend mode="normal" in2="BackgroundImageFix" result="effect1_dropShadow_2524_1031"/>
<feBlend mode="normal" in="SourceGraphic" in2="effect1_dropShadow_2524_1031" result="shape"/>
</filter>
</defs>
</svg>
