<svg width="41" height="41" viewBox="0 0 41 41" fill="none" xmlns="http://www.w3.org/2000/svg">
<g id="ic:round-paypal">
<path id="Vector" d="M17.0067 22.1706C17.1754 22.1706 21.0904 22.3394 23.4192 21.7656H23.4361C26.1192 21.1075 29.8486 19.2175 30.8104 13.0412C30.8104 13.0412 32.9536 5.3125 22.3223 5.3125H13.1929C12.3661 5.3125 11.6573 5.92 11.5223 6.73L7.64106 31.3C7.55668 31.8062 7.96168 32.2787 8.46793 32.2787H14.2561L15.6736 23.3013C15.7748 22.66 16.3317 22.1706 17.0067 22.1706Z" fill="white"/>
<path id="Vector_2" d="M32.2957 14.2393C30.9289 20.5337 26.6257 23.8581 19.7745 23.8581H17.2939L15.5557 34.8606C15.4882 35.2993 15.8257 35.6874 16.2645 35.6874H19.4707C20.0445 35.6874 20.5507 35.2656 20.6351 34.6918C20.7701 34.0168 21.5126 29.0893 21.6645 28.2456C21.7489 27.6718 22.2551 27.2499 22.8289 27.2499H23.5714C28.3301 27.2499 32.0595 25.3093 33.1564 19.7237C33.5951 17.4624 33.3589 15.6062 32.2957 14.2393Z" fill="white"/>
</g>
</svg>
