<svg width="212" height="317" viewBox="0 0 212 317" fill="none" xmlns="http://www.w3.org/2000/svg">
<path d="M64.6039 1.52932C65.1653 0.727509 66.0826 0.25 67.0614 0.25H248.188C249.167 0.25 250.084 0.727509 250.645 1.52932L313.87 91.8271C314.593 92.8601 314.593 94.235 313.87 95.2681L160.082 314.989C158.888 316.695 156.361 316.695 155.167 314.988L1.37892 95.2681C0.655851 94.235 0.655964 92.8601 1.37921 91.8271L64.6039 1.52932ZM137.164 17C135.961 17 134.874 17.7191 134.403 18.8266L108.478 79.8266C107.637 81.8051 109.089 84 111.239 84H204.01C206.16 84 207.612 81.8052 206.771 79.8266L180.846 18.8266C180.375 17.7191 179.288 17 178.085 17H137.164ZM108.656 100.75C106.618 100.75 105.173 102.738 105.803 104.677L154.771 255.445C155.669 258.21 159.58 258.21 160.478 255.445L209.447 104.677C210.076 102.738 208.631 100.75 206.593 100.75H108.656ZM30.5846 79.2879C29.202 81.2771 30.6256 84 33.048 84H86.6299C87.8333 84 88.9202 83.2809 89.3909 82.1734L115.316 21.1734C116.157 19.1949 114.705 17 112.555 17H75.443C74.4605 17 73.5403 17.4811 72.9796 18.2879L30.5846 79.2879ZM31.3942 100.75C28.9676 100.75 27.545 103.481 28.9359 105.47L128.374 247.628C130.349 250.452 134.749 248.262 133.686 244.984L87.6122 102.825C87.2112 101.588 86.0588 100.75 84.7583 100.75H31.3942ZM282.201 84C284.624 84 286.047 81.2771 284.665 79.2879L242.27 18.2879C241.709 17.4811 240.789 17 239.806 17H202.694C200.544 17 199.092 19.1948 199.933 21.1734L225.858 82.1734C226.329 83.2809 227.416 84 228.619 84H282.201ZM286.313 105.47C287.704 103.481 286.282 100.75 283.855 100.75H230.491C229.19 100.75 228.038 101.588 227.637 102.825L181.563 244.984C180.501 248.262 184.9 250.452 186.875 247.628L286.313 105.47Z" fill="#EE7200" fill-opacity="0.3"/>
</svg>
