<svg width="241" height="330" viewBox="0 0 241 330" fill="none" xmlns="http://www.w3.org/2000/svg">
<path d="M-26.3073 126.328C-26.3073 166.678 -6.30427 202.298 24.0799 222.722V255.234C24.0799 265.418 32.0378 274.386 42.7508 274.386H123.862C134.575 274.386 142.533 265.418 142.533 255.234V222.722C172.917 202.298 192.92 166.678 192.92 126.328C192.92 63.4865 144.222 11.7857 83.3063 11.7857C22.3905 11.7857 -26.3073 63.4865 -26.3073 126.328ZM120.175 277.333H46.4376C39.811 277.333 35.1404 282.853 35.1404 288.75V299.062C35.1404 309.246 43.0984 318.214 53.8114 318.214H112.801C123.514 318.214 131.472 309.246 131.472 299.062V288.75C131.472 282.853 126.802 277.333 120.175 277.333Z" stroke="#EE7200" stroke-opacity="0.3" stroke-width="17.6786"/>
</svg>
