<svg width="56" height="62" viewBox="0 0 56 62" fill="none" xmlns="http://www.w3.org/2000/svg">
<path id="Vector" d="M52.4444 18.851L34.1112 2.82721C32.4305 1.32854 30.2549 0.5 28.0001 0.5C25.7453 0.5 23.5696 1.32854 21.889 2.82721L3.55582 18.851C2.58529 19.7164 1.81081 20.778 1.28395 21.9652C0.757088 23.1523 0.489939 24.4377 0.50029 25.7358V52.3609C0.50029 54.7848 1.46605 57.1093 3.18513 58.8232C4.9042 60.5371 7.23576 61.5 9.66689 61.5H46.3333C48.7644 61.5 51.096 60.5371 52.8151 58.8232C54.5341 57.1093 55.4999 54.7848 55.4999 52.3609V25.7053C55.5059 24.4123 55.2367 23.1328 54.7099 21.9513C54.1832 20.7697 53.411 19.713 52.4444 18.851ZM34.1112 55.4073H21.889V40.1755C21.889 39.3676 22.2109 38.5927 22.784 38.0214C23.357 37.4501 24.1342 37.1292 24.9446 37.1292H31.0556C31.866 37.1292 32.6432 37.4501 33.2162 38.0214C33.7892 38.5927 34.1112 39.3676 34.1112 40.1755V55.4073ZM49.3888 52.3609C49.3888 53.1689 49.0669 53.9437 48.4939 54.515C47.9209 55.0863 47.1437 55.4073 46.3333 55.4073H40.2222V40.1755C40.2222 37.7517 39.2565 35.4271 37.5374 33.7132C35.8183 31.9993 33.4868 31.0365 31.0556 31.0365H24.9446C22.5134 31.0365 20.1819 31.9993 18.4628 33.7132C16.7437 35.4271 15.778 37.7517 15.778 40.1755V55.4073H9.66689C8.85651 55.4073 8.07933 55.0863 7.5063 54.515C6.93328 53.9437 6.61136 53.1689 6.61136 52.3609V25.7053C6.61191 25.2728 6.70484 24.8453 6.88396 24.4514C7.06309 24.0574 7.32431 23.706 7.65024 23.4206L25.9834 7.4272C26.541 6.93881 27.2579 6.66947 28.0001 6.66947C28.7423 6.66947 29.4591 6.93881 30.0167 7.4272L48.3499 23.4206C48.6759 23.706 48.9371 24.0574 49.1162 24.4514C49.2953 24.8453 49.3883 25.2728 49.3888 25.7053V52.3609Z" fill="#EE7200"/>
</svg>
