<svg width="43" height="37" viewBox="0 0 43 37" fill="none" xmlns="http://www.w3.org/2000/svg">
<path id="Vector" d="M22.7761 35.8912L38.8123 19.7756C40.893 17.6617 42.0548 14.8179 42.0466 11.8585C42.0384 8.89906 40.861 6.06164 38.7687 3.95913C37.7422 2.91695 36.5179 2.08834 35.1668 1.5215C33.8157 0.954662 32.3648 0.660915 30.8986 0.657346C29.4324 0.653778 27.9801 0.94046 26.6262 1.50071C25.2724 2.06097 24.0439 2.88361 23.0124 3.92078L21.4817 5.4623L19.9279 3.90289C18.9029 2.86209 17.6802 2.03452 16.331 1.46832C14.9818 0.902119 13.5329 0.60858 12.0687 0.604774C10.6044 0.600968 9.15406 0.886971 7.80188 1.44615C6.44969 2.00533 5.22269 2.82653 4.19222 3.86199C-0.142991 8.22066 -0.122445 15.3045 4.23332 19.6836L20.3543 35.8912C21.022 36.5635 22.1084 36.5635 22.7761 35.8912ZM24.8384 5.71794C25.6313 4.92131 26.5755 4.28969 27.616 3.8599C28.6565 3.4301 29.7726 3.21072 30.8991 3.21452C32.0257 3.21833 33.1402 3.44525 34.1778 3.88207C35.2154 4.31889 36.1552 4.95687 36.9426 5.75884C38.5586 7.38303 39.4686 9.57436 39.4763 11.8603C39.484 14.1462 38.5888 16.3435 36.9837 17.9785V17.9836L21.5639 33.4754L6.05678 17.8839C2.68466 14.4941 2.68209 9.01314 6.01826 5.65914C6.8101 4.86398 7.75294 4.23356 8.7919 3.80459C9.83086 3.37561 10.9452 3.15666 12.07 3.16046C13.1948 3.16427 14.3075 3.39077 15.3436 3.82676C16.3796 4.26276 17.3181 4.89954 18.1045 5.70004L20.57 8.17975C20.6894 8.29994 20.8316 8.39536 20.9883 8.46048C21.145 8.5256 21.3132 8.55913 21.483 8.55913C21.6528 8.55913 21.821 8.5256 21.9777 8.46048C22.1344 8.39536 22.2766 8.29994 22.396 8.17975L24.8384 5.71794Z" fill="#FF7A00"/>
</svg>
