<svg width="43" height="41" viewBox="0 0 43 41" fill="none" xmlns="http://www.w3.org/2000/svg">
<g id="Vector">
<mask id="path-1-inside-1_854_932" fill="white">
<path fill-rule="evenodd" clip-rule="evenodd" d="M11.9379 40.4782C11.7642 40.466 11.5905 40.4564 11.4176 40.4407C10.4458 40.3482 9.55393 40.0263 8.76272 39.4462C7.39787 38.443 6.52495 37.1092 6.1775 35.4317C6.05077 34.8042 6.00825 34.1622 6.05108 33.5231C6.09763 32.7741 6.24165 32.0346 6.47937 31.3239C6.85692 30.1829 7.42539 29.1474 8.14522 28.1931C8.68703 27.4772 9.30064 26.8203 9.9762 26.233C10.6048 25.6768 11.1888 25.071 11.7229 24.4211C12.4006 23.6055 13.0129 22.741 13.6192 21.8704C14.1542 21.101 14.6805 20.3264 15.2481 19.5832C15.6699 19.0182 16.1312 18.4847 16.6284 17.9868C17.2562 17.3701 17.9494 16.8484 18.7664 16.5091C19.3739 16.2557 20.0224 16.119 20.6791 16.1061C21.4256 16.086 22.1713 16.1661 22.8971 16.3442C23.993 16.6163 24.9981 17.1783 25.81 17.9728C26.3793 18.5224 26.8609 19.1453 27.3081 19.796C27.7837 20.4869 28.2197 21.2031 28.6695 21.9106C29.1769 22.707 29.7016 23.4912 30.2864 24.2327C30.8682 24.9708 31.5135 25.655 32.2145 26.2775C33.0638 27.0257 33.818 27.8781 34.46 28.8151C35.0109 29.6163 35.4502 30.4908 35.7655 31.4138C36.0113 32.133 36.1572 32.8834 36.199 33.6435C36.2592 34.8054 36.0614 35.9168 35.5411 36.9618C35.0595 37.9301 34.3628 38.7091 33.4891 39.3258C32.8458 39.7803 32.1517 40.1258 31.388 40.3177C31.1177 40.387 30.8426 40.4357 30.565 40.4634C30.5263 40.4669 30.4893 40.4738 30.4515 40.4808C30.4154 40.5009 30.3758 40.4852 30.3371 40.4895C30.3053 40.4948 30.2726 40.4808 30.2425 40.5H29.5304C29.502 40.4799 29.4702 40.4939 29.4401 40.4904H29.2896C28.6824 40.4703 28.0933 40.3421 27.5051 40.2034C26.51 39.9679 25.5339 39.6582 24.5432 39.4026C23.7432 39.1909 22.9301 39.0341 22.1093 38.9333C21.5404 38.8722 20.9678 38.8541 20.3962 38.8792C19.9404 38.8949 19.4863 38.9664 19.0373 39.0511C18.1515 39.2203 17.2838 39.4611 16.4151 39.7018C15.4966 39.9583 14.5782 40.2121 13.6373 40.3683C13.2546 40.4311 12.8719 40.4852 12.4823 40.4817C12.4023 40.4799 12.3232 40.4922 12.2423 40.4904C12.1391 40.4843 12.0385 40.5026 11.937 40.4791M29.49 0.517447C30.7697 0.673594 31.7484 1.33395 32.4958 2.37465C33.0075 3.08821 33.33 3.88902 33.5295 4.74478C33.6969 5.47938 33.7677 6.23322 33.7402 6.98668C33.698 8.3626 33.3698 9.71398 32.777 10.9523C32.3739 11.8179 31.825 12.6055 31.155 13.2797C30.5504 13.8799 29.8667 14.3596 29.0686 14.6589C28.5078 14.8682 27.9316 14.9729 27.3348 14.9363C26.301 14.8761 25.423 14.4591 24.6859 13.7316C24.0564 13.1105 23.6281 12.3585 23.3314 11.5272C23.1272 10.9473 22.9916 10.345 22.9272 9.73278C22.88 9.31413 22.8627 8.89257 22.8756 8.47139C22.9057 7.47867 23.082 6.51213 23.4002 5.57349C23.7279 4.57819 24.2254 3.649 24.87 2.82826C25.4204 2.13563 26.0628 1.54942 26.8334 1.11674C27.3937 0.796931 28.0111 0.5935 28.6498 0.518319C28.6695 0.506979 28.691 0.512213 28.7108 0.510468H28.7719C28.802 0.506979 28.8329 0.520936 28.8596 0.5H29.2793C29.3059 0.521808 29.3369 0.506979 29.3661 0.510468H29.4281C29.4478 0.510468 29.4693 0.506106 29.49 0.517447ZM0.0387008 15.8522C0.0584812 15.4562 0.129003 15.0671 0.231345 14.6841C0.430869 13.94 0.755955 13.2622 1.26337 12.6821C1.8088 12.0424 2.55017 11.6068 3.36869 11.4452C4.04982 11.3091 4.72235 11.3667 5.38285 11.5743C6.1431 11.8116 6.81478 12.2163 7.41249 12.7432C8.33959 13.5588 9.00524 14.5629 9.46535 15.7109C9.82806 16.6019 10.0224 17.5542 10.0381 18.5181C10.0523 19.1125 9.9869 19.7062 9.84376 20.2828C9.64853 21.0548 9.32001 21.757 8.79712 22.3589C8.22077 23.039 7.42432 23.4884 6.55075 23.6264C5.89198 23.7346 5.24439 23.6613 4.61141 23.4537C3.76 23.1737 3.02898 22.6922 2.38569 22.0685C1.76565 21.4639 1.25354 20.755 0.872057 19.9731C0.489597 19.2093 0.229482 18.3887 0.101482 17.5419C0.0799816 17.391 0.0619213 17.2401 0.0412809 17.09C0.0258006 17.0211 0.0326806 16.9505 0.0154802 16.8824C0.00774006 16.8536 0.0120403 16.8266 0.0111802 16.7969C0.00602013 16.7612 0.0223604 16.7219 0 16.6862V16.1331C0.0344007 16.0825 0.0172003 16.0267 0.0206404 15.9726C0.0240804 15.9325 0.0137603 15.8888 0.0387008 15.8522ZM9.02846 6.99191C9.03276 5.89451 9.1867 4.90616 9.54877 3.95357C9.8214 3.23389 10.1964 2.57615 10.7184 2.01001C11.28 1.39763 11.9474 0.95972 12.7523 0.752977C13.5573 0.545361 14.3485 0.60468 15.126 0.889933C15.8114 1.14291 16.4091 1.53982 16.9406 2.04141C17.7877 2.84047 18.394 3.80615 18.8266 4.88871C19.1018 5.57611 19.291 6.28794 19.3985 7.02157C19.4596 7.4368 19.4949 7.85639 19.5035 8.27773C19.5146 8.80838 19.4778 9.33894 19.3934 9.86276C19.2136 10.9584 18.8473 11.979 18.1937 12.881C17.7973 13.441 17.2828 13.9044 16.6878 14.2375C16.0258 14.6061 15.2714 14.7687 14.5188 14.7051C13.8256 14.6519 13.1858 14.4216 12.5898 14.063C11.8123 13.5963 11.1828 12.9665 10.6582 12.225C10.0466 11.3486 9.59937 10.3653 9.33893 9.32453C9.19138 8.75305 9.0958 8.16905 9.0534 7.57986C9.03447 7.38449 9.02614 7.18821 9.02846 6.99191ZM42.9991 16.496V16.6233C42.9518 17.6815 42.6723 18.6768 42.2225 19.6259C41.8722 20.3677 41.411 21.0501 40.8551 21.6489C40.137 22.4209 39.3036 23.0237 38.312 23.3848C37.725 23.6063 37.0997 23.7042 36.4742 23.6727C35.5662 23.6331 34.7026 23.2634 34.0412 22.6311C33.4753 22.0972 33.1029 21.4412 32.8673 20.7033C32.6596 20.0448 32.5665 19.3546 32.5921 18.6637C32.6385 17.1354 33.1141 15.7467 33.9397 14.4757C34.2175 14.0464 34.538 13.6471 34.8961 13.2841C35.6331 12.5391 36.4759 11.9668 37.4744 11.6414C38.0353 11.4539 38.6268 11.3793 39.2159 11.4216C40.1018 11.4806 40.9389 11.8543 41.5801 12.4771C42.1787 13.0503 42.5571 13.7577 42.785 14.5533C42.9114 14.9921 42.9854 15.4413 43 15.8993V16.0275C42.9955 16.1837 42.9946 16.3399 42.9991 16.496Z"/>
</mask>
<path fill-rule="evenodd" clip-rule="evenodd" d="M11.9379 40.4782C11.7642 40.466 11.5905 40.4564 11.4176 40.4407C10.4458 40.3482 9.55393 40.0263 8.76272 39.4462C7.39787 38.443 6.52495 37.1092 6.1775 35.4317C6.05077 34.8042 6.00825 34.1622 6.05108 33.5231C6.09763 32.7741 6.24165 32.0346 6.47937 31.3239C6.85692 30.1829 7.42539 29.1474 8.14522 28.1931C8.68703 27.4772 9.30064 26.8203 9.9762 26.233C10.6048 25.6768 11.1888 25.071 11.7229 24.4211C12.4006 23.6055 13.0129 22.741 13.6192 21.8704C14.1542 21.101 14.6805 20.3264 15.2481 19.5832C15.6699 19.0182 16.1312 18.4847 16.6284 17.9868C17.2562 17.3701 17.9494 16.8484 18.7664 16.5091C19.3739 16.2557 20.0224 16.119 20.6791 16.1061C21.4256 16.086 22.1713 16.1661 22.8971 16.3442C23.993 16.6163 24.9981 17.1783 25.81 17.9728C26.3793 18.5224 26.8609 19.1453 27.3081 19.796C27.7837 20.4869 28.2197 21.2031 28.6695 21.9106C29.1769 22.707 29.7016 23.4912 30.2864 24.2327C30.8682 24.9708 31.5135 25.655 32.2145 26.2775C33.0638 27.0257 33.818 27.8781 34.46 28.8151C35.0109 29.6163 35.4502 30.4908 35.7655 31.4138C36.0113 32.133 36.1572 32.8834 36.199 33.6435C36.2592 34.8054 36.0614 35.9168 35.5411 36.9618C35.0595 37.9301 34.3628 38.7091 33.4891 39.3258C32.8458 39.7803 32.1517 40.1258 31.388 40.3177C31.1177 40.387 30.8426 40.4357 30.565 40.4634C30.5263 40.4669 30.4893 40.4738 30.4515 40.4808C30.4154 40.5009 30.3758 40.4852 30.3371 40.4895C30.3053 40.4948 30.2726 40.4808 30.2425 40.5H29.5304C29.502 40.4799 29.4702 40.4939 29.4401 40.4904H29.2896C28.6824 40.4703 28.0933 40.3421 27.5051 40.2034C26.51 39.9679 25.5339 39.6582 24.5432 39.4026C23.7432 39.1909 22.9301 39.0341 22.1093 38.9333C21.5404 38.8722 20.9678 38.8541 20.3962 38.8792C19.9404 38.8949 19.4863 38.9664 19.0373 39.0511C18.1515 39.2203 17.2838 39.4611 16.4151 39.7018C15.4966 39.9583 14.5782 40.2121 13.6373 40.3683C13.2546 40.4311 12.8719 40.4852 12.4823 40.4817C12.4023 40.4799 12.3232 40.4922 12.2423 40.4904C12.1391 40.4843 12.0385 40.5026 11.937 40.4791M29.49 0.517447C30.7697 0.673594 31.7484 1.33395 32.4958 2.37465C33.0075 3.08821 33.33 3.88902 33.5295 4.74478C33.6969 5.47938 33.7677 6.23322 33.7402 6.98668C33.698 8.3626 33.3698 9.71398 32.777 10.9523C32.3739 11.8179 31.825 12.6055 31.155 13.2797C30.5504 13.8799 29.8667 14.3596 29.0686 14.6589C28.5078 14.8682 27.9316 14.9729 27.3348 14.9363C26.301 14.8761 25.423 14.4591 24.6859 13.7316C24.0564 13.1105 23.6281 12.3585 23.3314 11.5272C23.1272 10.9473 22.9916 10.345 22.9272 9.73278C22.88 9.31413 22.8627 8.89257 22.8756 8.47139C22.9057 7.47867 23.082 6.51213 23.4002 5.57349C23.7279 4.57819 24.2254 3.649 24.87 2.82826C25.4204 2.13563 26.0628 1.54942 26.8334 1.11674C27.3937 0.796931 28.0111 0.5935 28.6498 0.518319C28.6695 0.506979 28.691 0.512213 28.7108 0.510468H28.7719C28.802 0.506979 28.8329 0.520936 28.8596 0.5H29.2793C29.3059 0.521808 29.3369 0.506979 29.3661 0.510468H29.4281C29.4478 0.510468 29.4693 0.506106 29.49 0.517447ZM0.0387008 15.8522C0.0584812 15.4562 0.129003 15.0671 0.231345 14.6841C0.430869 13.94 0.755955 13.2622 1.26337 12.6821C1.8088 12.0424 2.55017 11.6068 3.36869 11.4452C4.04982 11.3091 4.72235 11.3667 5.38285 11.5743C6.1431 11.8116 6.81478 12.2163 7.41249 12.7432C8.33959 13.5588 9.00524 14.5629 9.46535 15.7109C9.82806 16.6019 10.0224 17.5542 10.0381 18.5181C10.0523 19.1125 9.9869 19.7062 9.84376 20.2828C9.64853 21.0548 9.32001 21.757 8.79712 22.3589C8.22077 23.039 7.42432 23.4884 6.55075 23.6264C5.89198 23.7346 5.24439 23.6613 4.61141 23.4537C3.76 23.1737 3.02898 22.6922 2.38569 22.0685C1.76565 21.4639 1.25354 20.755 0.872057 19.9731C0.489597 19.2093 0.229482 18.3887 0.101482 17.5419C0.0799816 17.391 0.0619213 17.2401 0.0412809 17.09C0.0258006 17.0211 0.0326806 16.9505 0.0154802 16.8824C0.00774006 16.8536 0.0120403 16.8266 0.0111802 16.7969C0.00602013 16.7612 0.0223604 16.7219 0 16.6862V16.1331C0.0344007 16.0825 0.0172003 16.0267 0.0206404 15.9726C0.0240804 15.9325 0.0137603 15.8888 0.0387008 15.8522ZM9.02846 6.99191C9.03276 5.89451 9.1867 4.90616 9.54877 3.95357C9.8214 3.23389 10.1964 2.57615 10.7184 2.01001C11.28 1.39763 11.9474 0.95972 12.7523 0.752977C13.5573 0.545361 14.3485 0.60468 15.126 0.889933C15.8114 1.14291 16.4091 1.53982 16.9406 2.04141C17.7877 2.84047 18.394 3.80615 18.8266 4.88871C19.1018 5.57611 19.291 6.28794 19.3985 7.02157C19.4596 7.4368 19.4949 7.85639 19.5035 8.27773C19.5146 8.80838 19.4778 9.33894 19.3934 9.86276C19.2136 10.9584 18.8473 11.979 18.1937 12.881C17.7973 13.441 17.2828 13.9044 16.6878 14.2375C16.0258 14.6061 15.2714 14.7687 14.5188 14.7051C13.8256 14.6519 13.1858 14.4216 12.5898 14.063C11.8123 13.5963 11.1828 12.9665 10.6582 12.225C10.0466 11.3486 9.59937 10.3653 9.33893 9.32453C9.19138 8.75305 9.0958 8.16905 9.0534 7.57986C9.03447 7.38449 9.02614 7.18821 9.02846 6.99191ZM42.9991 16.496V16.6233C42.9518 17.6815 42.6723 18.6768 42.2225 19.6259C41.8722 20.3677 41.411 21.0501 40.8551 21.6489C40.137 22.4209 39.3036 23.0237 38.312 23.3848C37.725 23.6063 37.0997 23.7042 36.4742 23.6727C35.5662 23.6331 34.7026 23.2634 34.0412 22.6311C33.4753 22.0972 33.1029 21.4412 32.8673 20.7033C32.6596 20.0448 32.5665 19.3546 32.5921 18.6637C32.6385 17.1354 33.1141 15.7467 33.9397 14.4757C34.2175 14.0464 34.538 13.6471 34.8961 13.2841C35.6331 12.5391 36.4759 11.9668 37.4744 11.6414C38.0353 11.4539 38.6268 11.3793 39.2159 11.4216C40.1018 11.4806 40.9389 11.8543 41.5801 12.4771C42.1787 13.0503 42.5571 13.7577 42.785 14.5533C42.9114 14.9921 42.9854 15.4413 43 15.8993V16.0275C42.9955 16.1837 42.9946 16.3399 42.9991 16.496Z" fill="#FF7A00"/>
<path d="M11.4176 40.4407L11.2281 42.4317L11.2367 42.4325L11.4176 40.4407ZM8.76272 39.4462L7.57822 41.0577L7.58015 41.0592L8.76272 39.4462ZM6.1775 35.4317L4.21706 35.8276L4.21907 35.8374L6.1775 35.4317ZM6.05108 33.5231L8.04663 33.6568L8.04723 33.6471L6.05108 33.5231ZM6.47937 31.3239L8.37608 31.9584L8.37812 31.9522L6.47937 31.3239ZM8.14522 28.1931L6.55046 26.9862L6.54851 26.9887L8.14522 28.1931ZM9.9762 26.233L11.2884 27.7423L11.295 27.7366L11.3015 27.7309L9.9762 26.233ZM11.7229 24.4211L10.1846 23.143L10.1777 23.1513L11.7229 24.4211ZM13.6192 21.8704L15.2604 23.0134L15.2613 23.0121L13.6192 21.8704ZM15.2481 19.5832L16.8376 20.7971L16.8442 20.7884L16.8507 20.7797L15.2481 19.5832ZM16.6284 17.9868L15.2269 16.5601L15.22 16.5668L15.2132 16.5736L16.6284 17.9868ZM18.7664 16.5091L19.5336 18.3561L19.5365 18.3549L18.7664 16.5091ZM20.6791 16.1061L20.7185 18.1057L20.7257 18.1055L20.7329 18.1053L20.6791 16.1061ZM22.8971 16.3442L23.379 14.4031L23.3739 14.4019L22.8971 16.3442ZM25.81 17.9728L24.4111 19.4023L24.421 19.4118L25.81 17.9728ZM27.3081 19.796L25.6598 20.9288L25.6607 20.9301L27.3081 19.796ZM28.6695 21.9106L26.9818 22.9836L26.9828 22.9852L28.6695 21.9106ZM30.2864 24.2327L31.857 22.9945L31.8567 22.9942L30.2864 24.2327ZM32.2145 26.2775L30.8866 27.7731L30.8923 27.7781L32.2145 26.2775ZM34.46 28.8151L32.8102 29.9456L32.812 29.9482L34.46 28.8151ZM35.7655 31.4138L33.8729 32.0604L33.873 32.0606L35.7655 31.4138ZM36.199 33.6435L38.1963 33.54L38.196 33.5338L36.199 33.6435ZM35.5411 36.9618L33.7507 36.0704L33.7503 36.0711L35.5411 36.9618ZM33.4891 39.3258L32.3358 37.6919L32.335 37.6924L33.4891 39.3258ZM31.388 40.3177L30.9006 38.378L30.8912 38.3804L31.388 40.3177ZM30.565 40.4634L30.7446 42.4553L30.7539 42.4544L30.7632 42.4535L30.565 40.4634ZM30.4515 40.4808L30.0888 38.514L29.7667 38.5734L29.4803 38.7324L30.4515 40.4808ZM30.3371 40.4895L30.1131 38.5021L30.0626 38.5078L30.0125 38.516L30.3371 40.4895ZM30.2425 40.5V42.5H30.8258L31.3177 42.1864L30.2425 40.5ZM29.5304 40.5L28.3759 42.1331L28.8949 42.5H29.5304V40.5ZM29.4401 40.4904L29.6704 38.5037L29.5556 38.4904H29.4401V40.4904ZM29.2896 40.4904L29.2236 42.4893L29.2566 42.4904H29.2896V40.4904ZM27.5051 40.2034L27.0444 42.1496L27.0461 42.15L27.5051 40.2034ZM24.5432 39.4026L24.0314 41.3361L24.0436 41.3392L24.5432 39.4026ZM22.1093 38.9333L22.3531 36.9482L22.338 36.9463L22.3229 36.9447L22.1093 38.9333ZM20.3962 38.8792L20.465 40.878L20.4745 40.8777L20.4839 40.8773L20.3962 38.8792ZM19.0373 39.0511L18.6669 37.0857L18.662 37.0866L19.0373 39.0511ZM16.4151 39.7018L15.8809 37.7745L15.8773 37.7755L16.4151 39.7018ZM13.6373 40.3683L13.9612 42.3419L13.9647 42.3413L13.6373 40.3683ZM12.4823 40.4817L12.4387 42.4812L12.4515 42.4815L12.4644 42.4816L12.4823 40.4817ZM12.2423 40.4904L12.1242 42.4869L12.1617 42.4891L12.1992 42.4899L12.2423 40.4904ZM29.49 0.517447L28.5269 2.2703L28.8649 2.45601L29.2477 2.50272L29.49 0.517447ZM32.4958 2.37465L34.121 1.20913L34.1203 1.20804L32.4958 2.37465ZM33.5295 4.74478L35.4795 4.30042L35.4772 4.29065L33.5295 4.74478ZM33.7402 6.98668L31.7415 6.91362L31.7411 6.92539L33.7402 6.98668ZM32.777 10.9523L30.973 10.0887L30.9684 10.0984L30.9639 10.1081L32.777 10.9523ZM31.155 13.2797L32.564 14.6991L32.5735 14.6896L31.155 13.2797ZM29.0686 14.6589L29.7681 16.5325L29.7707 16.5316L29.0686 14.6589ZM27.3348 14.9363L27.4573 12.94L27.451 12.9396L27.3348 14.9363ZM24.6859 13.7316L26.0909 12.3082L26.0906 12.3078L24.6859 13.7316ZM23.3314 11.5272L21.4449 12.1915L21.4478 12.1994L23.3314 11.5272ZM22.9272 9.73278L24.9162 9.52372L24.9154 9.51614L24.9146 9.50857L22.9272 9.73278ZM22.8756 8.47139L24.8747 8.5325L24.8747 8.532L22.8756 8.47139ZM23.4002 5.57349L25.2943 6.21562L25.2971 6.20729L25.2999 6.19894L23.4002 5.57349ZM24.87 2.82826L23.3041 1.58395L23.2971 1.59293L24.87 2.82826ZM26.8334 1.11674L27.8126 2.86068L27.8249 2.85369L26.8334 1.11674ZM28.6498 0.518319L28.8836 2.5046L29.2897 2.45679L29.6445 2.2534L28.6498 0.518319ZM28.7108 0.510468V-1.48953H28.6228L28.5351 -1.4818L28.7108 0.510468ZM28.7719 0.510468V2.51047H28.8874L29.0022 2.49716L28.7719 0.510468ZM28.8596 0.5V-1.5H28.1682L27.6244 -1.07297L28.8596 0.5ZM29.2793 0.5L30.5456 -1.04805L29.9931 -1.5H29.2793V0.5ZM29.3661 0.510468L29.1292 2.49638L29.2472 2.51047H29.3661V0.510468ZM0.0387008 15.8522L1.69199 16.9776L2.00818 16.5132L2.03621 15.952L0.0387008 15.8522ZM0.231345 14.6841L-1.70042 14.1662L-1.70085 14.1678L0.231345 14.6841ZM1.26337 12.6821L2.76875 13.9989L2.77711 13.9893L2.78534 13.9797L1.26337 12.6821ZM3.36869 11.4452L3.75606 13.4073L3.76052 13.4064L3.36869 11.4452ZM5.38285 11.5743L4.78311 13.4822L4.78699 13.4835L5.38285 11.5743ZM7.41249 12.7432L6.08995 14.2435L6.09143 14.2448L7.41249 12.7432ZM9.46535 15.7109L7.60888 16.455L7.61294 16.4649L9.46535 15.7109ZM10.0381 18.5181L8.03839 18.5508L8.03851 18.5582L8.03869 18.5657L10.0381 18.5181ZM9.84376 20.2828L11.7827 20.7731L11.7848 20.7647L9.84376 20.2828ZM8.79712 22.3589L7.28727 21.0473L7.27926 21.0565L7.27137 21.0658L8.79712 22.3589ZM6.55075 23.6264L6.23851 21.6509L6.22669 21.6529L6.55075 23.6264ZM4.61141 23.4537L3.98657 25.3536L3.98809 25.3541L4.61141 23.4537ZM2.38569 22.0685L0.989447 23.5004L0.993489 23.5043L2.38569 22.0685ZM0.872057 19.9731L2.66951 19.0961L2.66499 19.0868L2.66037 19.0776L0.872057 19.9731ZM0.101482 17.5419L-1.87852 17.824L-1.87732 17.8324L-1.87605 17.8409L0.101482 17.5419ZM0.0412809 17.09L2.02262 16.8175L2.01113 16.734L1.99265 16.6517L0.0412809 17.09ZM0.0154802 16.8824L1.95449 16.3923L1.95079 16.3777L1.94688 16.3631L0.0154802 16.8824ZM0.0111802 16.7969L2.01034 16.739L2.00702 16.6246L1.99068 16.5114L0.0111802 16.7969ZM0 16.6862H-2V17.2599L-1.69585 17.7464L0 16.6862ZM0 16.1331L-1.65392 15.0086L-2 15.5176V16.1331H0ZM0.0206404 15.9726L-1.97205 15.8018L-1.97393 15.8237L-1.97533 15.8456L0.0206404 15.9726ZM9.02846 6.99191L11.0283 7.01553L11.0284 7.00764L11.0284 6.99975L9.02846 6.99191ZM9.54877 3.95357L11.4183 4.66415L11.4191 4.66207L9.54877 3.95357ZM10.7184 2.01001L12.1887 3.36578L12.1924 3.36178L10.7184 2.01001ZM12.7523 0.752977L13.2499 2.69011L13.2518 2.6896L12.7523 0.752977ZM15.126 0.889933L15.8185 -0.986358L15.8149 -0.987674L15.126 0.889933ZM16.9406 2.04141L15.5679 3.49595L15.5683 3.49629L16.9406 2.04141ZM18.8266 4.88871L16.9694 5.63085L16.9699 5.63207L18.8266 4.88871ZM19.3985 7.02157L17.4197 7.31154L17.4198 7.31255L19.3985 7.02157ZM19.5035 8.27773L17.5039 8.31854L17.5039 8.31984L19.5035 8.27773ZM19.3934 9.86276L21.367 10.1865L21.3679 10.1809L19.3934 9.86276ZM18.1937 12.881L16.5742 11.7075L16.5677 11.7165L16.5613 11.7255L18.1937 12.881ZM16.6878 14.2375L17.6606 15.985L17.6647 15.9827L16.6878 14.2375ZM14.5188 14.7051L14.6873 12.7122L14.6796 12.7115L14.6719 12.711L14.5188 14.7051ZM12.5898 14.063L13.6208 12.3492L13.6191 12.3483L12.5898 14.063ZM10.6582 12.225L9.018 13.3696L9.02551 13.3802L10.6582 12.225ZM9.33893 9.32453L11.2791 8.83902L11.2773 8.83178L11.2754 8.82455L9.33893 9.32453ZM9.0534 7.57986L11.0482 7.4363L11.0465 7.4116L11.0441 7.38695L9.0534 7.57986ZM42.9991 16.496H44.9991V16.4669L44.9983 16.4379L42.9991 16.496ZM42.9991 16.6233L44.9971 16.7127L44.9991 16.668V16.6233H42.9991ZM42.2225 19.6259L40.4152 18.7694L40.4141 18.7718L42.2225 19.6259ZM40.8551 21.6489L42.3195 23.011L42.3209 23.0095L40.8551 21.6489ZM38.312 23.3848L37.6276 21.5056L37.6168 21.5095L37.6061 21.5135L38.312 23.3848ZM36.4742 23.6727L36.5749 21.6752L36.5613 21.6746L36.4742 23.6727ZM34.0412 22.6311L35.4233 21.1854L35.4137 21.1763L34.0412 22.6311ZM32.8673 20.7033L30.9599 21.3048L30.962 21.3116L32.8673 20.7033ZM32.5921 18.6637L34.5907 18.7378L34.5911 18.7245L32.5921 18.6637ZM33.9397 14.4757L35.6169 15.5652L35.6188 15.5622L33.9397 14.4757ZM34.8961 13.2841L33.4743 11.8774L33.4722 11.8795L34.8961 13.2841ZM37.4744 11.6414L38.0941 13.543L38.1013 13.5407L38.1085 13.5383L37.4744 11.6414ZM39.2159 11.4216L39.0725 13.4165L39.0831 13.4172L39.2159 11.4216ZM41.5801 12.4771L40.1866 13.9117L40.1917 13.9168L40.1969 13.9217L41.5801 12.4771ZM42.785 14.5533L40.8623 15.1041L40.8632 15.107L42.785 14.5533ZM43 15.8993H45V15.8674L44.999 15.8355L43 15.8993ZM43 16.0275L44.9992 16.0856L45 16.0566V16.0275H43ZM12.0782 38.4831C11.8637 38.468 11.745 38.4622 11.5985 38.4489L11.2367 42.4325C11.4359 42.4506 11.6646 42.4639 11.7976 42.4733L12.0782 38.4831ZM11.607 38.4497C10.9709 38.3891 10.4272 38.1866 9.94528 37.8333L7.58015 41.0592C8.68064 41.866 9.92064 42.3073 11.2281 42.4317L11.607 38.4497ZM9.9472 37.8347C8.97261 37.1184 8.38124 36.2104 8.13594 35.0261L4.21907 35.8374C4.66866 38.008 5.82313 39.7677 7.57823 41.0577L9.9472 37.8347ZM8.13793 35.0358C8.0464 34.5826 8.01565 34.1187 8.0466 33.6568L4.05556 33.3893C4.00085 34.2057 4.05515 35.0258 4.21708 35.8276L8.13793 35.0358ZM8.04723 33.6471C8.083 33.0716 8.19364 32.5037 8.37607 31.9584L4.58267 30.6895C4.28965 31.5655 4.11227 32.4765 4.05493 33.399L8.04723 33.6471ZM8.37812 31.9522C8.67938 31.0418 9.13787 30.1983 9.74194 29.3975L6.54851 26.9887C5.71291 28.0966 5.03446 29.3241 4.58062 30.6956L8.37812 31.9522ZM9.73998 29.4001C10.1986 28.7941 10.7176 28.2386 11.2884 27.7423L8.66396 24.7237C7.88372 25.402 7.17549 26.1603 6.55047 26.9862L9.73998 29.4001ZM11.3015 27.7309C12.0094 27.1045 12.667 26.4224 13.268 25.691L10.1777 23.1513C9.71067 23.7196 9.2001 24.2492 8.65092 24.7351L11.3015 27.7309ZM13.2612 25.6993C13.9986 24.8118 14.6534 23.885 15.2604 23.0134L11.978 20.7274C11.3724 21.597 10.8026 22.3992 10.1846 23.143L13.2612 25.6993ZM15.2613 23.0121C15.8138 22.2175 16.3049 21.4945 16.8376 20.7971L13.6586 18.3693C13.0561 19.1583 12.4945 19.9846 11.9771 20.7287L15.2613 23.0121ZM16.8507 20.7797C17.2154 20.2912 17.6141 19.8301 18.0436 19.4L15.2132 16.5736C14.6483 17.1393 14.1244 17.7452 13.6455 18.3867L16.8507 20.7797ZM18.03 19.4135C18.5374 18.9151 19.022 18.5686 19.5336 18.3561L17.9993 14.662C16.8769 15.1282 15.9751 15.825 15.2269 16.5601L18.03 19.4135ZM19.5365 18.3549C19.9127 18.1979 20.3134 18.1136 20.7185 18.1057L20.6397 14.1064C19.7315 14.1243 18.835 14.3134 17.9964 14.6633L19.5365 18.3549ZM20.7329 18.1053C21.3006 18.0901 21.8679 18.151 22.4203 18.2865L23.3739 14.4019C22.4747 14.1812 21.5505 14.0819 20.6254 14.1068L20.7329 18.1053ZM22.4152 18.2853C23.163 18.4709 23.8522 18.8552 24.4111 19.4022L27.2089 16.5435C26.144 15.5013 24.8229 14.7616 23.379 14.4031L22.4152 18.2853ZM24.421 19.4118C24.8558 19.8316 25.2513 20.3342 25.6598 20.9288L28.9564 18.6633C28.4706 17.9563 27.9028 17.2133 27.199 16.5339L24.421 19.4118ZM25.6607 20.9301C26.1087 21.5808 26.5042 22.2324 26.9818 22.9836L30.3573 20.8375C29.9353 20.1738 29.4588 19.393 28.9555 18.662L25.6607 20.9301ZM26.9828 22.9852C27.5034 23.8023 28.0698 24.6519 28.716 25.4713L31.8567 22.9942C31.3333 22.3306 30.8505 21.6117 30.3563 20.8359L26.9828 22.9852ZM28.7158 25.471C29.3706 26.3016 30.097 27.072 30.8866 27.773L33.5424 24.7819C32.9299 24.2381 32.3659 23.64 31.857 22.9945L28.7158 25.471ZM30.8923 27.7781C31.617 28.4166 32.2613 29.1446 32.8102 29.9456L36.1099 27.6846C35.3747 26.6117 34.5105 25.6349 33.5367 24.7769L30.8923 27.7781ZM32.812 29.9482C33.2592 30.5987 33.6164 31.3094 33.8729 32.0604L37.6581 30.7672C37.284 29.6722 36.7626 28.634 36.1081 27.682L32.812 29.9482ZM33.873 32.0606C34.0595 32.6061 34.1703 33.1758 34.202 33.7532L38.196 33.5338C38.1442 32.591 37.9632 31.6598 37.6581 30.7669L33.873 32.0606ZM34.2017 33.7469C34.2461 34.6053 34.1005 35.3679 33.7507 36.0704L37.3314 37.8532C38.0223 36.4656 38.2722 35.0055 38.1963 33.54L34.2017 33.7469ZM33.7503 36.0711C33.428 36.7193 32.961 37.2506 32.3358 37.6919L34.6424 40.9598C35.7647 40.1676 36.6909 39.141 37.3318 37.8525L33.7503 36.0711ZM32.335 37.6924C31.8571 38.03 31.3857 38.2561 30.9006 38.378L31.8755 42.2574C32.9177 41.9955 33.8345 41.5306 34.6431 40.9593L32.335 37.6924ZM30.8912 38.3804C30.7188 38.4246 30.5436 38.4556 30.3668 38.4732L30.7632 42.4535C31.1416 42.4158 31.5165 42.3495 31.8849 42.255L30.8912 38.3804ZM30.3854 38.4714C30.2371 38.4848 30.1049 38.511 30.0888 38.514L30.8142 42.4476C30.8266 42.4454 30.83 42.4447 30.8339 42.444C30.8367 42.4435 30.834 42.444 30.8283 42.4449C30.817 42.4468 30.7866 42.4515 30.7446 42.4553L30.3854 38.4714ZM29.4803 38.7324C29.9544 38.4691 30.3913 38.4888 30.4859 38.4931C30.5115 38.4943 30.5313 38.4958 30.5268 38.4955C30.5266 38.4955 30.5263 38.4954 30.5256 38.4954C30.525 38.4953 30.524 38.4953 30.523 38.4952C30.5209 38.4951 30.5176 38.4948 30.5136 38.4945C30.5059 38.494 30.4934 38.4931 30.4783 38.4923C30.4245 38.4893 30.2862 38.4826 30.1131 38.5021L30.5611 42.477C30.4074 42.4943 30.2885 42.4879 30.2541 42.486C30.2377 42.4851 30.2216 42.4838 30.2348 42.4848C30.24 42.4852 30.2694 42.4874 30.3047 42.489C30.4378 42.495 30.9125 42.5126 31.4226 42.2292L29.4803 38.7324ZM30.0125 38.516C30.1926 38.4864 30.3342 38.4902 30.3811 38.4918C30.404 38.4926 30.4244 38.4939 30.4134 38.4932C30.4112 38.4931 30.3804 38.4913 30.3439 38.4903C30.1925 38.4861 29.6886 38.4813 29.1673 38.8136L31.3177 42.1864C30.8265 42.4996 30.354 42.4921 30.2344 42.4888C30.2059 42.488 30.1831 42.4866 30.1888 42.4869C30.1946 42.4873 30.184 42.4867 30.1903 42.487C30.191 42.4871 30.1921 42.4871 30.1934 42.4872C30.1959 42.4873 30.1997 42.4875 30.2043 42.4878C30.2133 42.4882 30.2277 42.4889 30.2451 42.4895C30.3081 42.4917 30.4657 42.4953 30.6617 42.463L30.0125 38.516ZM30.2425 38.5H29.5304V42.5H30.2425V38.5ZM30.6849 38.8669C30.1472 38.4867 29.6079 38.4834 29.4145 38.4903C29.3686 38.4919 29.3319 38.4947 29.321 38.4956C29.2972 38.4974 29.3209 38.4956 29.3315 38.4949C29.3613 38.4929 29.4966 38.4836 29.6704 38.5037L29.2098 42.4771C29.3987 42.499 29.5492 42.4892 29.5944 42.4862C29.6126 42.485 29.644 42.4825 29.6278 42.4838C29.6247 42.484 29.5956 42.4863 29.5574 42.4877C29.483 42.4904 29.3109 42.4928 29.0965 42.4476C28.8656 42.399 28.6143 42.3017 28.3759 42.1331L30.6849 38.8669ZM29.4401 38.4904H29.2896V42.4904H29.4401V38.4904ZM29.3557 38.4915C28.9679 38.4787 28.5519 38.3954 27.9641 38.2568L27.0461 42.15C27.6347 42.2888 28.397 42.462 29.2236 42.4893L29.3557 38.4915ZM27.9657 38.2572C26.9319 38.0125 26.2394 37.7747 25.0428 37.466L24.0436 41.3392C24.8284 41.5417 26.0881 41.9233 27.0444 42.1496L27.9657 38.2572ZM25.0549 37.4692C24.167 37.2341 23.2643 37.0601 22.3531 36.9482L21.8656 40.9184C22.5959 41.008 23.3194 41.1476 24.0314 41.336L25.0549 37.4692ZM22.3229 36.9447C21.6539 36.8729 20.9806 36.8516 20.3084 36.8811L20.4839 40.8773C20.955 40.8566 21.4269 40.8715 21.8957 40.9219L22.3229 36.9447ZM20.3273 36.8804C19.7179 36.9014 19.1455 36.9955 18.6669 37.0857L19.4078 41.0164C19.827 40.9374 20.1628 40.8884 20.465 40.878L20.3273 36.8804ZM18.662 37.0866C17.6825 37.2737 16.7359 37.5375 15.8809 37.7745L16.9494 41.6291C17.8316 41.3846 18.6206 41.1669 19.4126 41.0155L18.662 37.0866ZM15.8773 37.7755C14.9464 38.0354 14.1283 38.2594 13.3098 38.3953L13.9647 42.3413C15.028 42.1648 16.0469 41.8811 16.953 41.6281L15.8773 37.7755ZM13.3134 38.3947C12.9447 38.4552 12.7062 38.4836 12.5002 38.4818L12.4644 42.4816C13.0375 42.4867 13.5644 42.407 13.9612 42.3419L13.3134 38.3947ZM12.5259 38.4822C12.4489 38.4805 12.3829 38.4824 12.3349 38.4845C12.2896 38.4865 12.2478 38.4893 12.2317 38.4903C12.2083 38.4919 12.2101 38.4917 12.2157 38.4914C12.2237 38.4911 12.2493 38.4901 12.2855 38.4909L12.1992 42.4899C12.2758 42.4916 12.3416 42.4897 12.3897 42.4876C12.4353 42.4857 12.4771 42.4828 12.4936 42.4818C12.5174 42.4802 12.5154 42.4804 12.5099 42.4806C12.5018 42.481 12.4757 42.482 12.4387 42.4812L12.5259 38.4822ZM12.3605 38.4939C12.3088 38.4908 12.2627 38.4896 12.224 38.4892C12.1855 38.4888 12.152 38.4893 12.1269 38.4897C12.1143 38.49 12.1029 38.4903 12.0936 38.4905C12.0847 38.4907 12.0759 38.491 12.0704 38.4911C12.0567 38.4915 12.0546 38.4916 12.0547 38.4916C12.0557 38.4916 12.0653 38.4914 12.0801 38.4916C12.0951 38.4918 12.1178 38.4925 12.1463 38.4944C12.2034 38.4982 12.2878 38.5073 12.3892 38.5308L11.4849 42.4273C11.7806 42.4959 12.0295 42.4926 12.1234 42.491C12.1488 42.4905 12.1721 42.4899 12.1839 42.4895C12.1911 42.4893 12.1951 42.4892 12.1989 42.4891C12.2006 42.4891 12.2018 42.489 12.2026 42.489C12.2034 42.489 12.2038 42.489 12.2038 42.489C12.2038 42.489 12.2033 42.489 12.2025 42.489C12.2016 42.489 12.2003 42.489 12.1987 42.4891C12.1953 42.4891 12.1902 42.4891 12.1836 42.489C12.1705 42.4889 12.1501 42.4884 12.1242 42.4869L12.3605 38.4939ZM29.2477 2.50272C29.892 2.58134 30.3995 2.88431 30.8712 3.54125L34.1203 1.20804C33.0973 -0.21641 31.6473 -1.23415 29.7322 -1.46783L29.2477 2.50272ZM30.8705 3.54016C31.1969 3.99531 31.428 4.53938 31.5817 5.1989L35.4772 4.29065C35.232 3.23865 34.8181 2.18112 34.121 1.20913L30.8705 3.54016ZM31.5795 5.18913C31.7082 5.75399 31.7627 6.33389 31.7415 6.91362L35.7389 7.05973C35.7727 6.13255 35.6856 5.20477 35.4795 4.30043L31.5795 5.18913ZM31.7411 6.92539C31.7075 8.024 31.4454 9.10205 30.973 10.0887L34.5809 11.8159C35.2942 10.3259 35.6886 8.70121 35.7393 7.04796L31.7411 6.92539ZM30.9639 10.1081C30.6582 10.7647 30.2425 11.3607 29.7365 11.8698L32.5735 14.6896C33.4076 13.8504 34.0897 12.8711 34.5901 11.7965L30.9639 10.1081ZM29.746 11.8603C29.3 12.303 28.8489 12.6053 28.3665 12.7861L29.7707 16.5316C30.8845 16.114 31.8008 15.4567 32.564 14.6991L29.746 11.8603ZM28.369 12.7852C28.0286 12.9123 27.7329 12.9569 27.4573 12.94L27.2122 16.9325C28.1303 16.9889 28.9871 16.8241 29.7681 16.5325L28.369 12.7852ZM27.451 12.9396C26.937 12.9097 26.5079 12.7198 26.0909 12.3082L23.2809 15.1549C24.338 16.1984 25.6651 16.8424 27.2185 16.9329L27.451 12.9396ZM26.0906 12.3078C25.7209 11.9431 25.4347 11.4703 25.215 10.8549L21.4478 12.1994C21.8215 13.2467 22.3919 14.2778 23.2813 15.1553L26.0906 12.3078ZM25.2179 10.8629C25.0656 10.4305 24.9643 9.98095 24.9162 9.52372L20.9382 9.94185C21.0188 10.7091 21.1889 11.4642 21.4449 12.1915L25.2179 10.8629ZM24.9146 9.50857C24.878 9.18465 24.8647 8.85843 24.8747 8.5325L20.8765 8.41027C20.8607 8.9267 20.8819 9.44362 20.9398 9.957L24.9146 9.50857ZM24.8747 8.532C24.8987 7.73952 25.039 6.96884 25.2943 6.21562L21.5061 4.93137C21.125 6.05541 20.9127 7.21783 20.8765 8.41077L24.8747 8.532ZM25.2999 6.19894C25.5552 5.42345 25.9424 4.7008 26.4429 4.06359L23.2971 1.59293C22.5084 2.59719 21.9006 3.73293 21.5005 4.94805L25.2999 6.19894ZM26.4358 4.07255C26.8552 3.54477 27.307 3.14453 27.8126 2.86064L25.8542 -0.627156C24.8186 -0.0456941 23.9856 0.726481 23.3042 1.58397L26.4358 4.07255ZM27.8249 2.85369C28.1527 2.66657 28.5126 2.54828 28.8836 2.5046L28.4159 -1.46796C27.5097 -1.36128 26.6347 -1.07271 25.8419 -0.620214L27.8249 2.85369ZM29.6445 2.2534C29.2479 2.48077 28.8826 2.50539 28.7436 2.50979C28.6901 2.51149 28.6278 2.51011 28.669 2.51066C28.6812 2.51082 28.7731 2.51274 28.8865 2.50273L28.5351 -1.4818C28.6386 -1.49093 28.7204 -1.48901 28.7224 -1.48899C28.7534 -1.48857 28.6808 -1.49022 28.6169 -1.4882C28.4573 -1.48314 28.0714 -1.45547 27.655 -1.21676L29.6445 2.2534ZM28.7108 2.51047H28.7719V-1.48953H28.7108V2.51047ZM29.0022 2.49716C28.829 2.51724 28.6942 2.508 28.6649 2.5061C28.6572 2.5056 28.6294 2.50355 28.6573 2.50562C28.6696 2.50654 28.7089 2.50946 28.7583 2.51091C28.8542 2.51373 29.0555 2.51411 29.3007 2.45593C29.5651 2.39317 29.8414 2.27195 30.0948 2.07297L27.6244 -1.07297C27.8644 -1.26149 28.1269 -1.3766 28.3771 -1.43597C28.608 -1.49077 28.7947 -1.48974 28.8758 -1.48736C28.9177 -1.48613 28.9496 -1.48369 28.9543 -1.48334C28.9747 -1.48182 28.9395 -1.4845 28.9242 -1.48549C28.8798 -1.48837 28.7298 -1.49804 28.5416 -1.47623L29.0022 2.49716ZM28.8596 2.5H29.2793V-1.5H28.8596V2.5ZM28.013 2.04805C28.2672 2.25598 28.5499 2.38614 28.8268 2.45356C29.0832 2.516 29.2943 2.51449 29.3957 2.51073C29.4477 2.50881 29.4891 2.5053 29.5021 2.5042C29.5321 2.50165 29.5017 2.50421 29.494 2.5048C29.4639 2.50706 29.3172 2.51881 29.1292 2.49638L29.6031 -1.47544C29.4005 -1.49962 29.239 -1.48732 29.194 -1.48394C29.1788 -1.4828 29.141 -1.47953 29.1636 -1.48145C29.1692 -1.48193 29.2032 -1.48488 29.2478 -1.48653C29.3345 -1.48974 29.531 -1.49185 29.7732 -1.43287C30.0359 -1.36891 30.3047 -1.24508 30.5456 -1.04805L28.013 2.04805ZM29.3661 2.51047H29.4281V-1.48953H29.3661V2.51047ZM29.4281 2.51047C29.4907 2.51047 29.5556 2.50693 29.5336 2.50792C29.532 2.50799 29.5158 2.50875 29.4943 2.50921C29.472 2.5097 29.4379 2.51004 29.396 2.50872C29.2221 2.50327 28.8888 2.46911 28.5269 2.2703L30.4531 -1.23541C30.0706 -1.44555 29.7162 -1.4832 29.5214 -1.48931C29.4333 -1.49207 29.3619 -1.4884 29.3528 -1.48799C29.3206 -1.48653 29.3754 -1.48953 29.4281 -1.48953V2.51047ZM2.03621 15.952C2.04746 15.7268 2.08888 15.4799 2.16354 15.2005L-1.70085 14.1678C-1.83088 14.6543 -1.93049 15.1855 -1.95881 15.7524L2.03621 15.952ZM2.1631 15.2021C2.29942 14.6938 2.49969 14.3065 2.76875 13.9989L-0.242019 11.3654C-0.987781 12.218 -1.43768 13.1863 -1.70041 14.1662L2.1631 15.2021ZM2.78534 13.9797C3.04074 13.6801 3.38352 13.4809 3.75606 13.4073L2.98131 9.48305C1.71681 9.73269 0.576866 10.4046 -0.258613 11.3846L2.78534 13.9797ZM3.76052 13.4064C4.07085 13.3444 4.40094 13.3621 4.78311 13.4822L5.98258 9.66632C5.04377 9.37122 4.02879 9.27377 2.97685 9.48393L3.76052 13.4064ZM4.78699 13.4835C5.24135 13.6253 5.67132 13.8745 6.08996 14.2435L8.73502 11.2429C7.95823 10.5582 7.04486 9.99785 5.9787 9.6651L4.78699 13.4835ZM6.09143 14.2448C6.75324 14.8271 7.24963 15.5585 7.6089 16.4549L11.3218 14.9668C10.7608 13.5673 9.92593 12.2906 8.73355 11.2416L6.09143 14.2448ZM7.61294 16.4649C7.88213 17.1262 8.02666 17.8339 8.03839 18.5508L12.0379 18.4854C12.0181 17.2745 11.774 16.0776 11.3178 14.9568L7.61294 16.4649ZM8.03869 18.5657C8.04861 18.982 8.00281 19.3976 7.90267 19.8009L11.7848 20.7647C11.971 20.0148 12.056 19.243 12.0376 18.4704L8.03869 18.5657ZM7.90479 19.7925C7.77097 20.3217 7.56729 20.725 7.28727 21.0473L10.307 23.6706C11.0727 22.7891 11.5261 21.7879 11.7827 20.7731L7.90479 19.7925ZM7.27137 21.0658C7.00206 21.3836 6.63482 21.5883 6.23852 21.651L6.86298 25.6019C8.21383 25.3884 9.43948 24.6944 10.3229 23.652L7.27137 21.0658ZM6.22669 21.6529C5.93124 21.7014 5.61025 21.6765 5.23474 21.5533L3.98809 25.3541C4.87852 25.6462 5.85271 25.7678 6.87481 25.6L6.22669 21.6529ZM5.23626 21.5538C4.72056 21.3842 4.24336 21.0839 3.77789 20.6326L0.993489 23.5043C1.8146 24.3005 2.79944 24.9632 3.98657 25.3536L5.23626 21.5538ZM3.78192 20.6365C3.32731 20.1932 2.95063 19.6722 2.66951 19.0961L-0.925398 20.8501C-0.443546 21.8377 0.203999 22.7346 0.989453 23.5004L3.78192 20.6365ZM2.66037 19.0776C2.37215 18.502 2.17572 17.8827 2.07902 17.243L-1.87605 17.8409C-1.71676 18.8946 -1.39295 19.9167 -0.916258 20.8686L2.66037 19.0776ZM2.08149 17.2598C2.05638 17.0836 2.05402 17.0457 2.02262 16.8175L-1.94006 17.3626C-1.93017 17.4345 -1.89642 17.6984 -1.87852 17.824L2.08149 17.2598ZM1.99265 16.6517C2.01138 16.7351 2.0192 16.8003 2.02249 16.832C2.02514 16.8575 2.02644 16.88 2.02442 16.8502C2.02336 16.8347 2.0194 16.7731 2.01111 16.702C2.00231 16.6266 1.98638 16.5185 1.95449 16.3923L-1.92353 17.3726C-1.94682 17.2804 -1.95716 17.2066 -1.96192 17.1658C-1.96618 17.1293 -1.96768 17.1023 -1.96637 17.1216C-1.96609 17.1257 -1.96486 17.1442 -1.96351 17.1622C-1.96201 17.182 -1.95969 17.2106 -1.95621 17.2442C-1.94933 17.3107 -1.93656 17.4106 -1.91009 17.5284L1.99265 16.6517ZM1.94688 16.3631C2.00845 16.5921 2.01075 16.7769 2.01075 16.84C2.01075 16.8627 2.00997 16.8925 2.01062 16.8638C2.01094 16.8497 2.01211 16.8001 2.01034 16.739L-1.98798 16.8549C-1.98869 16.8303 -1.98875 16.8103 -1.98867 16.7969C-1.9886 16.7839 -1.98839 16.7746 -1.98837 16.7737C-1.98804 16.7593 -1.98925 16.8033 -1.98925 16.84C-1.98925 16.9313 -1.98523 17.144 -1.91592 17.4017L1.94688 16.3631ZM1.99068 16.5114C2.01666 16.6914 2.00976 16.8319 2.00798 16.868C2.0071 16.8858 2.00576 16.9048 2.00682 16.889C2.00725 16.8825 2.0095 16.8499 2.01086 16.8103C2.01635 16.6506 2.02247 16.1484 1.69585 15.6259L-1.69585 17.7464C-2.00011 17.2597 -1.99098 16.795 -1.98678 16.6728C-1.98621 16.6564 -1.98553 16.6432 -1.98507 16.6351C-1.98483 16.631 -1.98463 16.6277 -1.9845 16.6256C-1.98443 16.6245 -1.98437 16.6237 -1.98434 16.6231C-1.9843 16.6226 -1.98428 16.6223 -1.98428 16.6222C-1.98385 16.6158 -1.98584 16.6441 -1.98717 16.6711C-1.98987 16.7258 -1.99688 16.8846 -1.96832 17.0825L1.99068 16.5114ZM2 16.6862V16.1331H-2V16.6862H2ZM1.65392 17.2576C1.9786 16.7801 2.01812 16.3097 2.02168 16.0859C2.02309 15.9969 2.01797 15.9047 2.01892 15.9267C2.01893 15.9268 2.01914 15.9316 2.01936 15.9386C2.0196 15.9458 2.0199 15.9571 2.02006 15.9712C2.02036 15.9989 2.02016 16.0437 2.01661 16.0995L-1.97533 15.8456C-1.98357 15.9752 -1.9781 16.0821 -1.97732 16.1C-1.97518 16.1493 -1.9788 16.0844 -1.97782 16.0224C-1.97512 15.8527 -1.9442 15.4355 -1.65392 15.0086L1.65392 17.2576ZM2.01333 16.1434C2.0231 16.0294 2.02142 15.9346 2.02132 15.9237C2.02097 15.8846 2.02224 15.9449 2.01938 16.0054C2.01247 16.1519 1.97749 16.5583 1.69199 16.9776L-1.61459 14.7268C-1.92502 15.1828 -1.96732 15.6293 -1.97617 15.8168C-1.97999 15.8978 -1.97834 15.9788 -1.97851 15.9603C-1.97851 15.9602 -1.97855 15.9559 -1.97855 15.9496C-1.97855 15.9431 -1.97851 15.9328 -1.97827 15.9199C-1.9778 15.8948 -1.97648 15.8534 -1.97205 15.8018L2.01333 16.1434ZM11.0284 6.99975C11.032 6.09233 11.1577 5.34965 11.4183 4.66415L7.67926 3.24299C7.21567 4.46267 7.03352 5.6967 7.02848 6.98407L11.0284 6.99975ZM11.4191 4.66207C11.6188 4.13484 11.8713 3.71008 12.1887 3.36578L9.24806 0.654242C8.52147 1.44223 8.024 2.33295 7.67847 3.24507L11.4191 4.66207ZM12.1924 3.36178C12.5316 2.99186 12.8731 2.78686 13.2499 2.69011L12.2548 -1.18415C11.0216 -0.867418 10.0283 -0.196602 9.24438 0.658241L12.1924 3.36178ZM13.2518 2.6896C13.6312 2.59175 14.0077 2.60998 14.4371 2.76754L15.8149 -0.987674C14.6894 -1.40062 13.4834 -1.50103 12.2528 -1.18365L13.2518 2.6896ZM14.4335 2.76622C14.8277 2.91173 15.2003 3.14905 15.5679 3.49595L18.3133 0.586881C17.6179 -0.0694048 16.7951 -0.625907 15.8185 -0.986354L14.4335 2.76622ZM15.5683 3.49629C16.1688 4.06274 16.6253 4.76958 16.9694 5.63085L20.6838 4.14658C20.1628 2.84271 19.4067 1.61821 18.313 0.586533L15.5683 3.49629ZM16.9699 5.63207C17.185 6.16939 17.3343 6.72869 17.4197 7.31154L21.3774 6.7316C21.2478 5.84718 21.0187 4.98283 20.6834 4.14536L16.9699 5.63207ZM17.4198 7.31255C17.4688 7.64557 17.497 7.98162 17.5039 8.31854L21.5031 8.23692C21.4927 7.73117 21.4504 7.22803 21.3773 6.73059L17.4198 7.31255ZM17.5039 8.31984C17.5125 8.72992 17.4841 9.1399 17.4189 9.54458L21.3679 10.1809C21.4715 9.53799 21.5167 8.88683 21.503 8.23562L17.5039 8.31984ZM17.4198 9.53898C17.2787 10.3987 17.0073 11.1098 16.5742 11.7075L19.8132 14.0546C20.6873 12.8483 21.1486 11.5182 21.367 10.1865L17.4198 9.53898ZM16.5613 11.7255C16.3357 12.0442 16.0447 12.3055 15.7109 12.4923L17.6647 15.9827C18.521 15.5034 19.2588 14.8379 19.8261 14.0366L16.5613 11.7255ZM15.7149 12.4901C15.3993 12.6658 15.0421 12.7422 14.6873 12.7122L14.3503 16.698C15.5007 16.7952 16.6522 16.5464 17.6606 15.985L15.7149 12.4901ZM14.6719 12.711C14.3372 12.6853 13.9945 12.5741 13.6208 12.3492L11.5588 15.7768C12.3771 16.2691 13.3141 16.6185 14.3657 16.6992L14.6719 12.711ZM13.6191 12.3483C13.1218 12.0497 12.6866 11.6292 12.2909 11.0699L9.02551 13.3802C9.679 14.3038 10.5029 15.143 11.5604 15.7778L13.6191 12.3483ZM12.2983 11.0805C11.8266 10.4044 11.4807 9.64467 11.2791 8.83902L7.39875 9.81004C7.71804 11.086 8.26661 12.2927 9.01804 13.3695L12.2983 11.0805ZM11.2754 8.82455C11.1581 8.36997 11.082 7.90526 11.0482 7.4363L7.05856 7.72342C7.10961 8.43283 7.2247 9.13613 7.40243 9.82451L11.2754 8.82455ZM11.0441 7.38695C11.0321 7.26354 11.0269 7.13955 11.0283 7.01553L7.0286 6.96828C7.02543 7.23687 7.03682 7.50544 7.06273 7.77278L11.0441 7.38695ZM40.9991 16.496V16.6233H44.9991V16.496H40.9991ZM41.0011 16.534C40.9674 17.2879 40.7687 18.0235 40.4152 18.7694L44.0299 20.4824C44.5759 19.3301 44.9362 18.075 44.9971 16.7127L41.0011 16.534ZM40.4141 18.7718C40.151 19.3289 39.8051 19.8403 39.3893 20.2882L42.3209 23.0095C43.0169 22.2598 43.5935 21.4064 44.031 20.48L40.4141 18.7718ZM39.3907 20.2867C38.8484 20.8697 38.2717 21.271 37.6276 21.5056L38.9965 25.2641C40.3356 24.7763 41.4256 23.972 42.3195 23.011L39.3907 20.2867ZM37.6061 21.5135C37.276 21.6381 36.9252 21.6929 36.5749 21.6752L36.3735 25.6701C37.2742 25.7156 38.1741 25.5744 39.018 25.2561L37.6061 21.5135ZM36.5613 21.6746C36.1412 21.6563 35.7368 21.4852 35.4233 21.1855L32.6591 24.0768C33.6683 25.0416 34.9912 25.6099 36.3871 25.6708L36.5613 21.6746ZM35.4137 21.1763C35.1373 20.9156 34.9248 20.5718 34.7725 20.0949L30.962 21.3116C31.2811 22.3107 31.8133 23.2789 32.6687 24.0859L35.4137 21.1763ZM34.7747 20.1017C34.6359 19.6618 34.5736 19.2002 34.5907 18.7378L30.5934 18.5897C30.5594 19.509 30.6833 20.4277 30.9599 21.3048L34.7747 20.1017ZM34.5911 18.7245C34.6254 17.5965 34.9711 16.5594 35.6169 15.5651L32.2625 13.3862C31.2571 14.9339 30.6516 16.6743 30.593 18.603L34.5911 18.7245ZM35.6188 15.5622C35.8228 15.247 36.0578 14.9543 36.3199 14.6886L33.4722 11.8795C33.0182 12.3398 32.6122 12.8457 32.2606 13.3891L35.6188 15.5622ZM36.3178 14.6907C36.8744 14.1281 37.4525 13.7521 38.0941 13.543L36.8547 9.73987C35.4993 10.1816 34.3918 10.9501 33.4743 11.8774L36.3178 14.6907ZM38.1085 13.5383C38.4196 13.4343 38.7469 13.3931 39.0725 13.4165L39.3594 9.42677C38.5068 9.36547 37.651 9.47361 36.8403 9.74464L38.1085 13.5383ZM39.0831 13.4172C39.492 13.4444 39.8832 13.6171 40.1866 13.9117L42.9736 11.0426C41.9946 10.0915 40.7116 9.51672 39.3487 9.42603L39.0831 13.4172ZM40.1969 13.9217C40.4905 14.2028 40.7113 14.5769 40.8623 15.1041L44.7077 14.0025C44.4029 12.9386 43.8668 11.8977 42.9633 11.0326L40.1969 13.9217ZM40.8632 15.107C40.9462 15.3952 40.992 15.68 41.001 15.9631L44.999 15.8355C44.9788 15.2027 44.8766 14.589 44.7068 13.9996L40.8632 15.107ZM41 15.8993V16.0275H45V15.8993H41ZM41.0008 15.9695C40.9954 16.1566 40.9941 16.3522 41 16.5541L44.9983 16.4379C44.9951 16.3275 44.9955 16.2107 44.9992 16.0856L41.0008 15.9695Z" fill="#FF7A00" mask="url(#path-1-inside-1_854_932)"/>
</g>
</svg>
